<svg width="360" height="687" viewBox="0 0 360 687" fill="none" xmlns="http://www.w3.org/2000/svg">
<circle cx="237.936" cy="408.835" r="1.76054" fill="#FD377E"/>
<circle cx="246.739" cy="408.835" r="1.76054" fill="#66C085"/>
<circle cx="255.541" cy="408.835" r="1.76054" fill="black"/>
<circle cx="180" cy="513" r="174" fill="#E064CC" fill-opacity="0.05"/>
<circle cx="180" cy="513" r="151.686" fill="#E064CC" fill-opacity="0.05"/>
<circle cx="178.406" cy="513" r="124.589" fill="#E064CC" fill-opacity="0.05"/>
<rect x="108.541" y="400.099" width="150.357" height="208.269" rx="3.62137" fill="white"/>
<rect x="123.369" y="452.848" width="120.89" height="21.1265" rx="1.81069" fill="#F3F3F3"/>
<rect x="123.369" y="482.777" width="120.89" height="21.1265" rx="1.81069" fill="#F3F3F3"/>
<rect x="123.369" y="422.919" width="120.89" height="21.1265" rx="1.81069" fill="#F3F3F3"/>
<rect x="123.369" y="542.636" width="120.89" height="21.1265" rx="1.81069" fill="#F3F3F3"/>
<rect x="123.369" y="572.565" width="120.89" height="21.1265" rx="1.81069" fill="#F3F3F3"/>
<rect x="123.369" y="512.707" width="120.89" height="21.1265" rx="1.81069" fill="#F3F3F3"/>
<rect x="121.609" y="480.048" width="30.8153" height="9.03206" rx="1.81069" fill="#FCEFFA"/>
<g filter="url(#filter0_d_20672_306)">
<rect x="135.106" y="519.162" width="136.023" height="40.4924" rx="2.67961" fill="white"/>
</g>
<rect x="141.003" y="527.024" width="26.3397" height="25.1603" rx="2.67961" fill="#66C085"/>
<rect x="172.454" y="527.024" width="89.6337" height="6.68321" rx="1.33981" fill="#66C085" fill-opacity="0.11"/>
<rect x="172.454" y="538.032" width="22.8015" height="6.68321" rx="1.33981" fill="#66C085" fill-opacity="0.11"/>
<g clip-path="url(#clip0_20672_306)">
<path d="M157.515 536.459H150.438C150.004 536.459 149.652 536.811 149.652 537.246V541.963C149.652 542.398 150.004 542.75 150.438 542.75H157.515C157.949 542.75 158.301 542.398 158.301 541.963V537.246C158.301 536.811 157.949 536.459 157.515 536.459Z" stroke="white" stroke-width="1.33981" stroke-linecap="round" stroke-linejoin="round"/>
<path d="M149.652 538.818H158.301" stroke="white" stroke-width="1.33981" stroke-linecap="round" stroke-linejoin="round"/>
</g>
<g filter="url(#filter1_d_20672_306)">
<rect x="53.8168" y="478.731" width="183.829" height="54.7237" rx="3.62137" fill="white"/>
</g>
<rect x="61.7863" y="489.357" width="35.5969" height="34.0031" rx="3.62137" fill="#FD377E"/>
<rect x="104.29" y="489.357" width="121.136" height="9.03206" rx="1.81069" fill="#FCEFFA"/>
<rect x="104.29" y="504.234" width="30.8153" height="9.03206" rx="1.81069" fill="#FCEFFA"/>
<g clip-path="url(#clip1_20672_306)">
<path d="M84.1007 502.108H74.5373C73.9505 502.108 73.4747 502.584 73.4747 503.171V509.547C73.4747 510.133 73.9505 510.609 74.5373 510.609H84.1007C84.6875 510.609 85.1633 510.133 85.1633 509.547V503.171C85.1633 502.584 84.6875 502.108 84.1007 502.108Z" stroke="white" stroke-width="1.81069" stroke-linecap="round" stroke-linejoin="round"/>
<path d="M73.4747 505.296H85.1633" stroke="white" stroke-width="1.81069" stroke-linecap="round" stroke-linejoin="round"/>
</g>
<path d="M15.694 87.418C12.806 87.418 10.336 86.848 8.284 85.708C6.232 84.568 4.64867 82.972 3.534 80.92C2.44467 78.8427 1.9 76.398 1.9 73.586C1.9 71.4833 2.204 69.596 2.812 67.924C3.44533 66.2267 4.35733 64.7827 5.548 63.592C6.73867 62.376 8.18267 61.4387 9.88 60.78C11.6027 60.1213 13.5407 59.792 15.694 59.792C16.9607 59.792 18.24 59.9567 19.532 60.286C20.8493 60.59 21.9893 61.0333 22.952 61.616C23.5853 61.9707 24.016 62.414 24.244 62.946C24.472 63.478 24.5353 64.01 24.434 64.542C24.358 65.074 24.1427 65.53 23.788 65.91C23.4587 66.29 23.0407 66.5307 22.534 66.632C22.0273 66.7333 21.4573 66.6193 20.824 66.29C20.064 65.834 19.266 65.5047 18.43 65.302C17.594 65.0993 16.7453 64.998 15.884 64.998C14.1867 64.998 12.7553 65.34 11.59 66.024C10.45 66.6827 9.58867 67.6453 9.006 68.912C8.42333 70.1787 8.132 71.7367 8.132 73.586C8.132 75.41 8.42333 76.968 9.006 78.26C9.58867 79.552 10.45 80.54 11.59 81.224C12.7553 81.8827 14.1867 82.212 15.884 82.212C16.6947 82.212 17.518 82.1107 18.354 81.908C19.2153 81.7053 20.0387 81.3887 20.824 80.958C21.4827 80.6287 22.0653 80.5147 22.572 80.616C23.104 80.692 23.5347 80.92 23.864 81.3C24.2187 81.6547 24.434 82.0853 24.51 82.592C24.6113 83.0987 24.5607 83.6053 24.358 84.112C24.1553 84.6187 23.7753 85.0493 23.218 85.404C22.2807 86.0373 21.128 86.5313 19.76 86.886C18.392 87.2407 17.0367 87.418 15.694 87.418ZM36.5346 87.418C34.3306 87.418 32.4306 87.0253 30.8346 86.24C29.264 85.4293 28.048 84.302 27.1866 82.858C26.3506 81.3887 25.9326 79.666 25.9326 77.69C25.9326 75.7647 26.338 74.08 27.1486 72.636C27.9593 71.1667 29.0866 70.0267 30.5306 69.216C32 68.38 33.6593 67.962 35.5086 67.962C36.8513 67.962 38.0673 68.19 39.1566 68.646C40.246 69.0767 41.1833 69.71 41.9686 70.546C42.754 71.3567 43.3493 72.3573 43.7546 73.548C44.16 74.7133 44.3626 76.018 44.3626 77.462C44.3626 77.9433 44.2106 78.3107 43.9066 78.564C43.6026 78.792 43.1593 78.906 42.5766 78.906H30.6446V75.942H40.2206L39.6126 76.474C39.6126 75.4353 39.4606 74.574 39.1566 73.89C38.8526 73.1807 38.4093 72.6487 37.8266 72.294C37.2693 71.9393 36.5726 71.762 35.7366 71.762C34.7993 71.762 34.0013 71.9773 33.3426 72.408C32.684 72.8387 32.1773 73.4593 31.8226 74.27C31.468 75.0807 31.2906 76.056 31.2906 77.196V77.5C31.2906 79.4253 31.734 80.844 32.6206 81.756C33.5326 82.668 34.8753 83.124 36.6486 83.124C37.2566 83.124 37.9533 83.048 38.7386 82.896C39.524 82.744 40.2586 82.5033 40.9426 82.174C41.5253 81.8953 42.0446 81.8067 42.5006 81.908C42.9566 81.984 43.3113 82.1867 43.5646 82.516C43.818 82.8453 43.9573 83.2253 43.9826 83.656C44.0333 84.0867 43.9446 84.5173 43.7166 84.948C43.4886 85.3533 43.1086 85.6953 42.5766 85.974C41.7153 86.4553 40.74 86.81 39.6506 87.038C38.5866 87.2913 37.548 87.418 36.5346 87.418ZM50.5881 87.342C49.6508 87.342 48.9288 87.0887 48.4221 86.582C47.9408 86.0753 47.7001 85.3533 47.7001 84.416V70.926C47.7001 69.9887 47.9408 69.2793 48.4221 68.798C48.9288 68.2913 49.6254 68.038 50.5121 68.038C51.4241 68.038 52.1208 68.2913 52.6021 68.798C53.0834 69.2793 53.3241 69.9887 53.3241 70.926V73.092L52.9061 71.838C53.4888 70.5967 54.3501 69.6467 55.4901 68.988C56.6554 68.304 57.9728 67.962 59.4421 67.962C60.9368 67.962 62.1654 68.2533 63.1281 68.836C64.0908 69.3933 64.8128 70.2547 65.2941 71.42C65.7754 72.56 66.0161 74.0167 66.0161 75.79V84.416C66.0161 85.3533 65.7628 86.0753 65.2561 86.582C64.7748 87.0887 64.0654 87.342 63.1281 87.342C62.2161 87.342 61.5068 87.0887 61.0001 86.582C60.5188 86.0753 60.2781 85.3533 60.2781 84.416V76.056C60.2781 74.764 60.0374 73.8393 59.5561 73.282C59.1001 72.6993 58.3908 72.408 57.4281 72.408C56.2121 72.408 55.2368 72.788 54.5021 73.548C53.7928 74.308 53.4381 75.3213 53.4381 76.588V84.416C53.4381 86.3667 52.4881 87.342 50.5881 87.342ZM79.4577 87.418C77.7097 87.418 76.2404 87.1267 75.0497 86.544C73.8844 85.9613 73.0104 85.1127 72.4277 83.998C71.8704 82.8833 71.5917 81.4773 71.5917 79.78V72.636H69.9957C69.2864 72.636 68.729 72.446 68.3237 72.066C67.9437 71.686 67.7537 71.1667 67.7537 70.508C67.7537 69.7987 67.9437 69.2667 68.3237 68.912C68.729 68.532 69.2864 68.342 69.9957 68.342H71.5917V65.454C71.5917 64.4913 71.845 63.7693 72.3517 63.288C72.8584 62.7813 73.5677 62.528 74.4797 62.528C75.417 62.528 76.1264 62.7813 76.6077 63.288C77.089 63.7693 77.3297 64.4913 77.3297 65.454V68.342H80.9397C81.649 68.342 82.1937 68.532 82.5737 68.912C82.9537 69.2667 83.1437 69.7987 83.1437 70.508C83.1437 71.1667 82.9537 71.686 82.5737 72.066C82.1937 72.446 81.649 72.636 80.9397 72.636H77.3297V79.552C77.3297 80.616 77.5704 81.414 78.0517 81.946C78.5584 82.478 79.3564 82.744 80.4457 82.744C80.8257 82.744 81.1804 82.706 81.5097 82.63C81.839 82.554 82.143 82.5033 82.4217 82.478C82.7764 82.4527 83.0677 82.5667 83.2957 82.82C83.5237 83.048 83.6377 83.5673 83.6377 84.378C83.6377 84.986 83.5364 85.518 83.3337 85.974C83.131 86.43 82.7764 86.7593 82.2697 86.962C81.9404 87.0887 81.4844 87.19 80.9017 87.266C80.3444 87.3673 79.863 87.418 79.4577 87.418ZM88.627 87.342C87.6643 87.342 86.9297 87.0887 86.423 86.582C85.9163 86.0753 85.663 85.3533 85.663 84.416V70.926C85.663 69.9887 85.9037 69.2793 86.385 68.798C86.8917 68.2913 87.5883 68.038 88.475 68.038C89.387 68.038 90.0837 68.2913 90.565 68.798C91.0463 69.2793 91.287 69.9887 91.287 70.926V72.902H90.907C91.211 71.382 91.8823 70.204 92.921 69.368C93.9597 68.532 95.3023 68.0633 96.949 67.962C97.5823 67.9113 98.0637 68.076 98.393 68.456C98.7477 68.8107 98.9377 69.406 98.963 70.242C99.0137 71.0273 98.849 71.648 98.469 72.104C98.1143 72.56 97.5063 72.8387 96.645 72.94L95.771 73.016C94.327 73.1427 93.2503 73.5607 92.541 74.27C91.857 74.9793 91.515 76.0053 91.515 77.348V84.416C91.515 85.3533 91.2617 86.0753 90.755 86.582C90.2737 87.0887 89.5643 87.342 88.627 87.342ZM107.446 87.418C106.078 87.418 104.849 87.152 103.76 86.62C102.67 86.088 101.822 85.366 101.214 84.454C100.606 83.542 100.302 82.516 100.302 81.376C100.302 80.008 100.656 78.9313 101.366 78.146C102.075 77.3353 103.228 76.7653 104.824 76.436C106.42 76.0813 108.535 75.904 111.17 75.904H113.184V78.868H111.208C109.916 78.868 108.864 78.944 108.054 79.096C107.268 79.2227 106.698 79.4507 106.344 79.78C106.014 80.1093 105.85 80.5653 105.85 81.148C105.85 81.8573 106.09 82.44 106.572 82.896C107.078 83.352 107.8 83.58 108.738 83.58C109.472 83.58 110.118 83.4153 110.676 83.086C111.258 82.7313 111.714 82.2627 112.044 81.68C112.373 81.072 112.538 80.388 112.538 79.628V75.258C112.538 74.1433 112.284 73.358 111.778 72.902C111.271 72.4207 110.41 72.18 109.194 72.18C108.51 72.18 107.762 72.2687 106.952 72.446C106.166 72.598 105.292 72.864 104.33 73.244C103.772 73.4973 103.278 73.5607 102.848 73.434C102.417 73.282 102.088 73.0287 101.86 72.674C101.632 72.294 101.518 71.8887 101.518 71.458C101.518 71.002 101.644 70.5713 101.898 70.166C102.151 69.7353 102.569 69.4187 103.152 69.216C104.342 68.7347 105.457 68.4053 106.496 68.228C107.56 68.0507 108.535 67.962 109.422 67.962C111.372 67.962 112.968 68.2533 114.21 68.836C115.476 69.3933 116.426 70.2673 117.06 71.458C117.693 72.6233 118.01 74.1307 118.01 75.98V84.416C118.01 85.3533 117.782 86.0753 117.326 86.582C116.87 87.0887 116.211 87.342 115.35 87.342C114.488 87.342 113.817 87.0887 113.336 86.582C112.88 86.0753 112.652 85.3533 112.652 84.416V83.01L112.918 83.238C112.766 84.0993 112.436 84.8467 111.93 85.48C111.448 86.088 110.828 86.5693 110.068 86.924C109.308 87.2533 108.434 87.418 107.446 87.418ZM129.016 87.418C126.761 87.418 125.077 86.7973 123.962 85.556C122.847 84.2893 122.29 82.4147 122.29 79.932V62.794C122.29 61.8313 122.531 61.1093 123.012 60.628C123.519 60.1213 124.241 59.868 125.178 59.868C126.09 59.868 126.787 60.1213 127.268 60.628C127.775 61.1093 128.028 61.8313 128.028 62.794V79.704C128.028 80.7427 128.243 81.5153 128.674 82.022C129.13 82.5033 129.725 82.744 130.46 82.744C130.663 82.744 130.853 82.7313 131.03 82.706C131.207 82.6807 131.397 82.668 131.6 82.668C132.005 82.6173 132.284 82.744 132.436 83.048C132.613 83.3267 132.702 83.8967 132.702 84.758C132.702 85.518 132.55 86.1007 132.246 86.506C131.942 86.886 131.473 87.1393 130.84 87.266C130.587 87.2913 130.295 87.3167 129.966 87.342C129.637 87.3927 129.32 87.418 129.016 87.418ZM137.832 87.304C136.895 87.304 136.173 87.038 135.666 86.506C135.185 85.9487 134.944 85.176 134.944 84.188V71.192C134.944 70.1787 135.185 69.406 135.666 68.874C136.173 68.3167 136.895 68.038 137.832 68.038C138.744 68.038 139.441 68.3167 139.922 68.874C140.429 69.406 140.682 70.1787 140.682 71.192V84.188C140.682 85.176 140.442 85.9487 139.96 86.506C139.479 87.038 138.77 87.304 137.832 87.304ZM137.832 64.922C136.768 64.922 135.945 64.6813 135.362 64.2C134.805 63.6933 134.526 62.984 134.526 62.072C134.526 61.1347 134.805 60.4253 135.362 59.944C135.945 59.4373 136.768 59.184 137.832 59.184C138.896 59.184 139.707 59.4373 140.264 59.944C140.822 60.4253 141.1 61.1347 141.1 62.072C141.1 62.984 140.822 63.6933 140.264 64.2C139.707 64.6813 138.896 64.922 137.832 64.922ZM146.708 87C146.151 87 145.682 86.8607 145.302 86.582C144.922 86.278 144.669 85.898 144.542 85.442C144.416 84.986 144.416 84.492 144.542 83.96C144.694 83.428 144.986 82.934 145.416 82.478L154.726 71.306V72.636H146.48C145.796 72.636 145.264 72.446 144.884 72.066C144.504 71.686 144.314 71.1667 144.314 70.508C144.314 69.7987 144.504 69.2667 144.884 68.912C145.264 68.532 145.796 68.342 146.48 68.342H157.462C158.146 68.342 158.691 68.494 159.096 68.798C159.502 69.102 159.768 69.482 159.894 69.938C160.046 70.3687 160.059 70.85 159.932 71.382C159.831 71.8887 159.565 72.37 159.134 72.826L149.596 84.226V82.744H158.412C159.856 82.744 160.578 83.4533 160.578 84.872C160.578 85.556 160.388 86.088 160.008 86.468C159.628 86.8227 159.096 87 158.412 87H146.708ZM172.689 87.418C170.485 87.418 168.585 87.0253 166.989 86.24C165.418 85.4293 164.202 84.302 163.341 82.858C162.505 81.3887 162.087 79.666 162.087 77.69C162.087 75.7647 162.492 74.08 163.303 72.636C164.114 71.1667 165.241 70.0267 166.685 69.216C168.154 68.38 169.814 67.962 171.663 67.962C173.006 67.962 174.222 68.19 175.311 68.646C176.4 69.0767 177.338 69.71 178.123 70.546C178.908 71.3567 179.504 72.3573 179.909 73.548C180.314 74.7133 180.517 76.018 180.517 77.462C180.517 77.9433 180.365 78.3107 180.061 78.564C179.757 78.792 179.314 78.906 178.731 78.906H166.799V75.942H176.375L175.767 76.474C175.767 75.4353 175.615 74.574 175.311 73.89C175.007 73.1807 174.564 72.6487 173.981 72.294C173.424 71.9393 172.727 71.762 171.891 71.762C170.954 71.762 170.156 71.9773 169.497 72.408C168.838 72.8387 168.332 73.4593 167.977 74.27C167.622 75.0807 167.445 76.056 167.445 77.196V77.5C167.445 79.4253 167.888 80.844 168.775 81.756C169.687 82.668 171.03 83.124 172.803 83.124C173.411 83.124 174.108 83.048 174.893 82.896C175.678 82.744 176.413 82.5033 177.097 82.174C177.68 81.8953 178.199 81.8067 178.655 81.908C179.111 81.984 179.466 82.1867 179.719 82.516C179.972 82.8453 180.112 83.2253 180.137 83.656C180.188 84.0867 180.099 84.5173 179.871 84.948C179.643 85.3533 179.263 85.6953 178.731 85.974C177.87 86.4553 176.894 86.81 175.805 87.038C174.741 87.2913 173.702 87.418 172.689 87.418ZM203.436 87.418C201.434 87.418 199.686 87.0253 198.192 86.24C196.722 85.4547 195.582 84.3273 194.772 82.858C193.961 81.3887 193.556 79.6533 193.556 77.652C193.556 76.1573 193.784 74.8147 194.24 73.624C194.696 72.4333 195.354 71.42 196.216 70.584C197.102 69.7227 198.154 69.0767 199.37 68.646C200.586 68.19 201.941 67.962 203.436 67.962C205.437 67.962 207.172 68.3547 208.642 69.14C210.136 69.9253 211.289 71.04 212.1 72.484C212.936 73.928 213.354 75.6507 213.354 77.652C213.354 79.172 213.113 80.5273 212.632 81.718C212.176 82.9087 211.517 83.9347 210.656 84.796C209.794 85.6573 208.743 86.316 207.502 86.772C206.286 87.2027 204.93 87.418 203.436 87.418ZM203.436 83.124C204.272 83.124 204.994 82.9213 205.602 82.516C206.21 82.1107 206.691 81.5153 207.046 80.73C207.4 79.9193 207.578 78.8933 207.578 77.652C207.578 75.8027 207.198 74.4473 206.438 73.586C205.678 72.6993 204.677 72.256 203.436 72.256C202.625 72.256 201.903 72.446 201.27 72.826C200.662 73.206 200.18 73.8013 199.826 74.612C199.496 75.3973 199.332 76.4107 199.332 77.652C199.332 79.5013 199.712 80.882 200.472 81.794C201.232 82.6807 202.22 83.124 203.436 83.124ZM11.286 135.418C9.25933 135.418 7.486 135.025 5.966 134.24C4.47133 133.429 3.31867 132.289 2.508 130.82C1.69733 129.351 1.292 127.615 1.292 125.614C1.292 124.119 1.52 122.777 1.976 121.586C2.432 120.395 3.09067 119.382 3.952 118.546C4.83867 117.71 5.90267 117.077 7.144 116.646C8.38533 116.19 9.766 115.962 11.286 115.962C12.0713 115.962 12.9073 116.063 13.794 116.266C14.6807 116.443 15.5547 116.76 16.416 117.216C16.9227 117.444 17.2647 117.773 17.442 118.204C17.6447 118.609 17.7207 119.04 17.67 119.496C17.6193 119.927 17.4547 120.319 17.176 120.674C16.9227 121.003 16.5933 121.231 16.188 121.358C15.7827 121.459 15.3267 121.383 14.82 121.13C14.3387 120.851 13.832 120.649 13.3 120.522C12.7933 120.395 12.312 120.332 11.856 120.332C11.096 120.332 10.4247 120.459 9.842 120.712C9.25933 120.94 8.76533 121.282 8.36 121.738C7.98 122.169 7.676 122.713 7.448 123.372C7.24533 124.031 7.144 124.791 7.144 125.652C7.144 127.324 7.54933 128.641 8.36 129.604C9.196 130.541 10.3613 131.01 11.856 131.01C12.312 131.01 12.7933 130.959 13.3 130.858C13.8067 130.731 14.3133 130.529 14.82 130.25C15.3267 129.997 15.7827 129.933 16.188 130.06C16.5933 130.187 16.91 130.427 17.138 130.782C17.3913 131.111 17.5307 131.504 17.556 131.96C17.6067 132.391 17.5307 132.821 17.328 133.252C17.1507 133.657 16.8213 133.974 16.34 134.202C15.4787 134.633 14.6173 134.937 13.756 135.114C12.8947 135.317 12.0713 135.418 11.286 135.418ZM28.9474 135.418C26.9461 135.418 25.1981 135.025 23.7034 134.24C22.2341 133.455 21.0941 132.327 20.2834 130.858C19.4727 129.389 19.0674 127.653 19.0674 125.652C19.0674 124.157 19.2954 122.815 19.7514 121.624C20.2074 120.433 20.8661 119.42 21.7274 118.584C22.6141 117.723 23.6654 117.077 24.8814 116.646C26.0974 116.19 27.4527 115.962 28.9474 115.962C30.9487 115.962 32.6841 116.355 34.1534 117.14C35.6481 117.925 36.8007 119.04 37.6114 120.484C38.4474 121.928 38.8654 123.651 38.8654 125.652C38.8654 127.172 38.6247 128.527 38.1434 129.718C37.6874 130.909 37.0287 131.935 36.1674 132.796C35.3061 133.657 34.2547 134.316 33.0134 134.772C31.7974 135.203 30.4421 135.418 28.9474 135.418ZM28.9474 131.124C29.7834 131.124 30.5054 130.921 31.1134 130.516C31.7214 130.111 32.2027 129.515 32.5574 128.73C32.9121 127.919 33.0894 126.893 33.0894 125.652C33.0894 123.803 32.7094 122.447 31.9494 121.586C31.1894 120.699 30.1887 120.256 28.9474 120.256C28.1367 120.256 27.4147 120.446 26.7814 120.826C26.1734 121.206 25.6921 121.801 25.3374 122.612C25.0081 123.397 24.8434 124.411 24.8434 125.652C24.8434 127.501 25.2234 128.882 25.9834 129.794C26.7434 130.681 27.7314 131.124 28.9474 131.124ZM45.2443 135.342C44.307 135.342 43.585 135.089 43.0783 134.582C42.597 134.075 42.3563 133.353 42.3563 132.416V118.926C42.3563 117.989 42.597 117.279 43.0783 116.798C43.585 116.291 44.2817 116.038 45.1683 116.038C46.0803 116.038 46.777 116.291 47.2583 116.798C47.7397 117.279 47.9803 117.989 47.9803 118.926V121.092L47.5623 119.838C48.145 118.597 49.0063 117.647 50.1463 116.988C51.3117 116.304 52.629 115.962 54.0983 115.962C55.593 115.962 56.8217 116.253 57.7843 116.836C58.747 117.393 59.469 118.255 59.9503 119.42C60.4317 120.56 60.6723 122.017 60.6723 123.79V132.416C60.6723 133.353 60.419 134.075 59.9123 134.582C59.431 135.089 58.7217 135.342 57.7843 135.342C56.8723 135.342 56.163 135.089 55.6563 134.582C55.175 134.075 54.9343 133.353 54.9343 132.416V124.056C54.9343 122.764 54.6937 121.839 54.2123 121.282C53.7563 120.699 53.047 120.408 52.0843 120.408C50.8683 120.408 49.893 120.788 49.1583 121.548C48.449 122.308 48.0943 123.321 48.0943 124.588V132.416C48.0943 134.367 47.1443 135.342 45.2443 135.342ZM74.114 135.418C72.366 135.418 70.8966 135.127 69.706 134.544C68.5406 133.961 67.6666 133.113 67.084 131.998C66.5266 130.883 66.248 129.477 66.248 127.78V120.636H64.652C63.9426 120.636 63.3853 120.446 62.98 120.066C62.6 119.686 62.41 119.167 62.41 118.508C62.41 117.799 62.6 117.267 62.98 116.912C63.3853 116.532 63.9426 116.342 64.652 116.342H66.248V113.454C66.248 112.491 66.5013 111.769 67.008 111.288C67.5146 110.781 68.224 110.528 69.136 110.528C70.0733 110.528 70.7826 110.781 71.264 111.288C71.7453 111.769 71.986 112.491 71.986 113.454V116.342H75.596C76.3053 116.342 76.85 116.532 77.23 116.912C77.61 117.267 77.8 117.799 77.8 118.508C77.8 119.167 77.61 119.686 77.23 120.066C76.85 120.446 76.3053 120.636 75.596 120.636H71.986V127.552C71.986 128.616 72.2266 129.414 72.708 129.946C73.2146 130.478 74.0126 130.744 75.102 130.744C75.482 130.744 75.8366 130.706 76.166 130.63C76.4953 130.554 76.7993 130.503 77.078 130.478C77.4326 130.453 77.724 130.567 77.952 130.82C78.18 131.048 78.294 131.567 78.294 132.378C78.294 132.986 78.1926 133.518 77.99 133.974C77.7873 134.43 77.4326 134.759 76.926 134.962C76.5966 135.089 76.1406 135.19 75.558 135.266C75.0006 135.367 74.5193 135.418 74.114 135.418ZM83.2832 135.342C82.3206 135.342 81.5859 135.089 81.0792 134.582C80.5726 134.075 80.3192 133.353 80.3192 132.416V118.926C80.3192 117.989 80.5599 117.279 81.0412 116.798C81.5479 116.291 82.2446 116.038 83.1312 116.038C84.0432 116.038 84.7399 116.291 85.2212 116.798C85.7026 117.279 85.9432 117.989 85.9432 118.926V120.902H85.5632C85.8672 119.382 86.5386 118.204 87.5772 117.368C88.6159 116.532 89.9586 116.063 91.6052 115.962C92.2386 115.911 92.7199 116.076 93.0492 116.456C93.4039 116.811 93.5939 117.406 93.6192 118.242C93.6699 119.027 93.5052 119.648 93.1252 120.104C92.7706 120.56 92.1626 120.839 91.3012 120.94L90.4272 121.016C88.9832 121.143 87.9066 121.561 87.1972 122.27C86.5132 122.979 86.1712 124.005 86.1712 125.348V132.416C86.1712 133.353 85.9179 134.075 85.4112 134.582C84.9299 135.089 84.2206 135.342 83.2832 135.342ZM104.613 135.418C102.612 135.418 100.864 135.025 99.3694 134.24C97.9001 133.455 96.7601 132.327 95.9494 130.858C95.1387 129.389 94.7334 127.653 94.7334 125.652C94.7334 124.157 94.9614 122.815 95.4174 121.624C95.8734 120.433 96.5321 119.42 97.3934 118.584C98.2801 117.723 99.3314 117.077 100.547 116.646C101.763 116.19 103.119 115.962 104.613 115.962C106.615 115.962 108.35 116.355 109.819 117.14C111.314 117.925 112.467 119.04 113.277 120.484C114.113 121.928 114.531 123.651 114.531 125.652C114.531 127.172 114.291 128.527 113.809 129.718C113.353 130.909 112.695 131.935 111.833 132.796C110.972 133.657 109.921 134.316 108.679 134.772C107.463 135.203 106.108 135.418 104.613 135.418ZM104.613 131.124C105.449 131.124 106.171 130.921 106.779 130.516C107.387 130.111 107.869 129.515 108.223 128.73C108.578 127.919 108.755 126.893 108.755 125.652C108.755 123.803 108.375 122.447 107.615 121.586C106.855 120.699 105.855 120.256 104.613 120.256C103.803 120.256 103.081 120.446 102.447 120.826C101.839 121.206 101.358 121.801 101.003 122.612C100.674 123.397 100.509 124.411 100.509 125.652C100.509 127.501 100.889 128.882 101.649 129.794C102.409 130.681 103.397 131.124 104.613 131.124ZM124.748 135.418C122.494 135.418 120.809 134.797 119.694 133.556C118.58 132.289 118.022 130.415 118.022 127.932V110.794C118.022 109.831 118.263 109.109 118.744 108.628C119.251 108.121 119.973 107.868 120.91 107.868C121.822 107.868 122.519 108.121 123 108.628C123.507 109.109 123.76 109.831 123.76 110.794V127.704C123.76 128.743 123.976 129.515 124.406 130.022C124.862 130.503 125.458 130.744 126.192 130.744C126.395 130.744 126.585 130.731 126.762 130.706C126.94 130.681 127.13 130.668 127.332 130.668C127.738 130.617 128.016 130.744 128.168 131.048C128.346 131.327 128.434 131.897 128.434 132.758C128.434 133.518 128.282 134.101 127.978 134.506C127.674 134.886 127.206 135.139 126.572 135.266C126.319 135.291 126.028 135.317 125.698 135.342C125.369 135.393 125.052 135.418 124.748 135.418ZM140.181 135.418C137.977 135.418 136.077 135.025 134.481 134.24C132.91 133.429 131.694 132.302 130.833 130.858C129.997 129.389 129.579 127.666 129.579 125.69C129.579 123.765 129.984 122.08 130.795 120.636C131.606 119.167 132.733 118.027 134.177 117.216C135.646 116.38 137.306 115.962 139.155 115.962C140.498 115.962 141.714 116.19 142.803 116.646C143.892 117.077 144.83 117.71 145.615 118.546C146.4 119.357 146.996 120.357 147.401 121.548C147.806 122.713 148.009 124.018 148.009 125.462C148.009 125.943 147.857 126.311 147.553 126.564C147.249 126.792 146.806 126.906 146.223 126.906H134.291V123.942H143.867L143.259 124.474C143.259 123.435 143.107 122.574 142.803 121.89C142.499 121.181 142.056 120.649 141.473 120.294C140.916 119.939 140.219 119.762 139.383 119.762C138.446 119.762 137.648 119.977 136.989 120.408C136.33 120.839 135.824 121.459 135.469 122.27C135.114 123.081 134.937 124.056 134.937 125.196V125.5C134.937 127.425 135.38 128.844 136.267 129.756C137.179 130.668 138.522 131.124 140.295 131.124C140.903 131.124 141.6 131.048 142.385 130.896C143.17 130.744 143.905 130.503 144.589 130.174C145.172 129.895 145.691 129.807 146.147 129.908C146.603 129.984 146.958 130.187 147.211 130.516C147.464 130.845 147.604 131.225 147.629 131.656C147.68 132.087 147.591 132.517 147.363 132.948C147.135 133.353 146.755 133.695 146.223 133.974C145.362 134.455 144.386 134.81 143.297 135.038C142.233 135.291 141.194 135.418 140.181 135.418ZM169.218 135.418C167.597 135.418 166.165 135.025 164.924 134.24C163.708 133.455 162.758 132.327 162.074 130.858C161.39 129.389 161.048 127.653 161.048 125.652C161.048 123.651 161.39 121.928 162.074 120.484C162.758 119.04 163.708 117.925 164.924 117.14C166.165 116.355 167.597 115.962 169.218 115.962C170.687 115.962 171.979 116.317 173.094 117.026C174.234 117.735 175.007 118.66 175.412 119.8H174.994V110.794C174.994 109.831 175.235 109.109 175.716 108.628C176.197 108.121 176.907 107.868 177.844 107.868C178.756 107.868 179.465 108.121 179.972 108.628C180.479 109.109 180.732 109.831 180.732 110.794V132.416C180.732 133.353 180.479 134.075 179.972 134.582C179.491 135.089 178.794 135.342 177.882 135.342C176.97 135.342 176.261 135.089 175.754 134.582C175.273 134.075 175.032 133.353 175.032 132.416V129.832L175.45 131.314C175.095 132.555 174.335 133.556 173.17 134.316C172.03 135.051 170.713 135.418 169.218 135.418ZM170.928 131.124C171.764 131.124 172.486 130.921 173.094 130.516C173.702 130.111 174.183 129.515 174.538 128.73C174.893 127.919 175.07 126.893 175.07 125.652C175.07 123.803 174.69 122.447 173.93 121.586C173.17 120.699 172.169 120.256 170.928 120.256C170.117 120.256 169.395 120.446 168.762 120.826C168.154 121.206 167.673 121.801 167.318 122.612C166.989 123.397 166.824 124.411 166.824 125.652C166.824 127.501 167.204 128.882 167.964 129.794C168.724 130.681 169.712 131.124 170.928 131.124ZM191.461 135.418C190.093 135.418 188.865 135.152 187.775 134.62C186.686 134.088 185.837 133.366 185.229 132.454C184.621 131.542 184.317 130.516 184.317 129.376C184.317 128.008 184.672 126.931 185.381 126.146C186.091 125.335 187.243 124.765 188.839 124.436C190.435 124.081 192.551 123.904 195.185 123.904H197.199V126.868H195.223C193.931 126.868 192.88 126.944 192.069 127.096C191.284 127.223 190.714 127.451 190.359 127.78C190.03 128.109 189.865 128.565 189.865 129.148C189.865 129.857 190.106 130.44 190.587 130.896C191.094 131.352 191.816 131.58 192.753 131.58C193.488 131.58 194.134 131.415 194.691 131.086C195.274 130.731 195.73 130.263 196.059 129.68C196.389 129.072 196.553 128.388 196.553 127.628V123.258C196.553 122.143 196.3 121.358 195.793 120.902C195.287 120.421 194.425 120.18 193.209 120.18C192.525 120.18 191.778 120.269 190.967 120.446C190.182 120.598 189.308 120.864 188.345 121.244C187.788 121.497 187.294 121.561 186.863 121.434C186.433 121.282 186.103 121.029 185.875 120.674C185.647 120.294 185.533 119.889 185.533 119.458C185.533 119.002 185.66 118.571 185.913 118.166C186.167 117.735 186.585 117.419 187.167 117.216C188.358 116.735 189.473 116.405 190.511 116.228C191.575 116.051 192.551 115.962 193.437 115.962C195.388 115.962 196.984 116.253 198.225 116.836C199.492 117.393 200.442 118.267 201.075 119.458C201.709 120.623 202.025 122.131 202.025 123.98V132.416C202.025 133.353 201.797 134.075 201.341 134.582C200.885 135.089 200.227 135.342 199.365 135.342C198.504 135.342 197.833 135.089 197.351 134.582C196.895 134.075 196.667 133.353 196.667 132.416V131.01L196.933 131.238C196.781 132.099 196.452 132.847 195.945 133.48C195.464 134.088 194.843 134.569 194.083 134.924C193.323 135.253 192.449 135.418 191.461 135.418ZM213.45 135.418C212.335 135.418 211.182 135.317 209.992 135.114C208.826 134.911 207.762 134.569 206.8 134.088C206.293 133.835 205.926 133.518 205.698 133.138C205.495 132.733 205.406 132.327 205.432 131.922C205.457 131.517 205.584 131.149 205.812 130.82C206.065 130.491 206.382 130.275 206.762 130.174C207.167 130.047 207.61 130.085 208.092 130.288C209.13 130.719 210.08 131.023 210.942 131.2C211.803 131.377 212.652 131.466 213.488 131.466C214.577 131.466 215.362 131.301 215.844 130.972C216.35 130.617 216.604 130.161 216.604 129.604C216.604 129.097 216.439 128.717 216.11 128.464C215.78 128.211 215.299 128.033 214.666 127.932L210.676 127.21C209.105 126.931 207.889 126.361 207.028 125.5C206.192 124.613 205.774 123.486 205.774 122.118C205.774 120.851 206.128 119.762 206.838 118.85C207.547 117.913 208.522 117.203 209.764 116.722C211.03 116.215 212.462 115.962 214.058 115.962C215.198 115.962 216.249 116.063 217.212 116.266C218.174 116.469 219.099 116.798 219.986 117.254C220.442 117.482 220.758 117.786 220.936 118.166C221.138 118.546 221.202 118.939 221.126 119.344C221.075 119.749 220.923 120.117 220.67 120.446C220.416 120.775 220.087 120.991 219.682 121.092C219.302 121.193 218.858 121.143 218.352 120.94C217.541 120.56 216.794 120.294 216.11 120.142C215.426 119.965 214.767 119.876 214.134 119.876C212.994 119.876 212.17 120.066 211.664 120.446C211.157 120.801 210.904 121.257 210.904 121.814C210.904 122.245 211.043 122.612 211.322 122.916C211.626 123.195 212.082 123.385 212.69 123.486L216.68 124.208C218.326 124.487 219.58 125.044 220.442 125.88C221.303 126.691 221.734 127.805 221.734 129.224C221.734 131.149 220.974 132.669 219.454 133.784C217.959 134.873 215.958 135.418 213.45 135.418ZM242.766 135.418C241.651 135.418 240.499 135.317 239.308 135.114C238.143 134.911 237.079 134.569 236.116 134.088C235.609 133.835 235.242 133.518 235.014 133.138C234.811 132.733 234.723 132.327 234.748 131.922C234.773 131.517 234.9 131.149 235.128 130.82C235.381 130.491 235.698 130.275 236.078 130.174C236.483 130.047 236.927 130.085 237.408 130.288C238.447 130.719 239.397 131.023 240.258 131.2C241.119 131.377 241.968 131.466 242.804 131.466C243.893 131.466 244.679 131.301 245.16 130.972C245.667 130.617 245.92 130.161 245.92 129.604C245.92 129.097 245.755 128.717 245.426 128.464C245.097 128.211 244.615 128.033 243.982 127.932L239.992 127.21C238.421 126.931 237.205 126.361 236.344 125.5C235.508 124.613 235.09 123.486 235.09 122.118C235.09 120.851 235.445 119.762 236.154 118.85C236.863 117.913 237.839 117.203 239.08 116.722C240.347 116.215 241.778 115.962 243.374 115.962C244.514 115.962 245.565 116.063 246.528 116.266C247.491 116.469 248.415 116.798 249.302 117.254C249.758 117.482 250.075 117.786 250.252 118.166C250.455 118.546 250.518 118.939 250.442 119.344C250.391 119.749 250.239 120.117 249.986 120.446C249.733 120.775 249.403 120.991 248.998 121.092C248.618 121.193 248.175 121.143 247.668 120.94C246.857 120.56 246.11 120.294 245.426 120.142C244.742 119.965 244.083 119.876 243.45 119.876C242.31 119.876 241.487 120.066 240.98 120.446C240.473 120.801 240.22 121.257 240.22 121.814C240.22 122.245 240.359 122.612 240.638 122.916C240.942 123.195 241.398 123.385 242.006 123.486L245.996 124.208C247.643 124.487 248.897 125.044 249.758 125.88C250.619 126.691 251.05 127.805 251.05 129.224C251.05 131.149 250.29 132.669 248.77 133.784C247.275 134.873 245.274 135.418 242.766 135.418ZM261.203 135.418C259.632 135.418 258.328 135.127 257.289 134.544C256.25 133.961 255.478 133.087 254.971 131.922C254.49 130.731 254.249 129.262 254.249 127.514V118.926C254.249 117.963 254.49 117.241 254.971 116.76C255.478 116.279 256.187 116.038 257.099 116.038C258.011 116.038 258.72 116.279 259.227 116.76C259.734 117.241 259.987 117.963 259.987 118.926V127.666C259.987 128.781 260.215 129.617 260.671 130.174C261.127 130.706 261.849 130.972 262.837 130.972C263.926 130.972 264.813 130.592 265.497 129.832C266.206 129.047 266.561 128.021 266.561 126.754V118.926C266.561 117.963 266.802 117.241 267.283 116.76C267.79 116.279 268.499 116.038 269.411 116.038C270.348 116.038 271.058 116.279 271.539 116.76C272.046 117.241 272.299 117.963 272.299 118.926V132.416C272.299 134.367 271.374 135.342 269.525 135.342C268.613 135.342 267.916 135.089 267.435 134.582C266.954 134.075 266.713 133.353 266.713 132.416V129.87L267.283 131.352C266.726 132.644 265.928 133.645 264.889 134.354C263.85 135.063 262.622 135.418 261.203 135.418ZM283.047 135.418C281.679 135.418 280.45 135.152 279.361 134.62C278.272 134.088 277.423 133.366 276.815 132.454C276.207 131.542 275.903 130.516 275.903 129.376C275.903 128.008 276.258 126.931 276.967 126.146C277.676 125.335 278.829 124.765 280.425 124.436C282.021 124.081 284.136 123.904 286.771 123.904H288.785V126.868H286.809C285.517 126.868 284.466 126.944 283.655 127.096C282.87 127.223 282.3 127.451 281.945 127.78C281.616 128.109 281.451 128.565 281.451 129.148C281.451 129.857 281.692 130.44 282.173 130.896C282.68 131.352 283.402 131.58 284.339 131.58C285.074 131.58 285.72 131.415 286.277 131.086C286.86 130.731 287.316 130.263 287.645 129.68C287.974 129.072 288.139 128.388 288.139 127.628V123.258C288.139 122.143 287.886 121.358 287.379 120.902C286.872 120.421 286.011 120.18 284.795 120.18C284.111 120.18 283.364 120.269 282.553 120.446C281.768 120.598 280.894 120.864 279.931 121.244C279.374 121.497 278.88 121.561 278.449 121.434C278.018 121.282 277.689 121.029 277.461 120.674C277.233 120.294 277.119 119.889 277.119 119.458C277.119 119.002 277.246 118.571 277.499 118.166C277.752 117.735 278.17 117.419 278.753 117.216C279.944 116.735 281.058 116.405 282.097 116.228C283.161 116.051 284.136 115.962 285.023 115.962C286.974 115.962 288.57 116.253 289.811 116.836C291.078 117.393 292.028 118.267 292.661 119.458C293.294 120.623 293.611 122.131 293.611 123.98V132.416C293.611 133.353 293.383 134.075 292.927 134.582C292.471 135.089 291.812 135.342 290.951 135.342C290.09 135.342 289.418 135.089 288.937 134.582C288.481 134.075 288.253 133.353 288.253 132.416V131.01L288.519 131.238C288.367 132.099 288.038 132.847 287.531 133.48C287.05 134.088 286.429 134.569 285.669 134.924C284.909 135.253 284.035 135.418 283.047 135.418ZM305.036 135.418C303.921 135.418 302.768 135.317 301.578 135.114C300.412 134.911 299.348 134.569 298.386 134.088C297.879 133.835 297.512 133.518 297.284 133.138C297.081 132.733 296.992 132.327 297.018 131.922C297.043 131.517 297.17 131.149 297.398 130.82C297.651 130.491 297.968 130.275 298.348 130.174C298.753 130.047 299.196 130.085 299.678 130.288C300.716 130.719 301.666 131.023 302.528 131.2C303.389 131.377 304.238 131.466 305.074 131.466C306.163 131.466 306.948 131.301 307.43 130.972C307.936 130.617 308.19 130.161 308.19 129.604C308.19 129.097 308.025 128.717 307.696 128.464C307.366 128.211 306.885 128.033 306.252 127.932L302.262 127.21C300.691 126.931 299.475 126.361 298.614 125.5C297.778 124.613 297.36 123.486 297.36 122.118C297.36 120.851 297.714 119.762 298.424 118.85C299.133 117.913 300.108 117.203 301.35 116.722C302.616 116.215 304.048 115.962 305.644 115.962C306.784 115.962 307.835 116.063 308.798 116.266C309.76 116.469 310.685 116.798 311.572 117.254C312.028 117.482 312.344 117.786 312.522 118.166C312.724 118.546 312.788 118.939 312.712 119.344C312.661 119.749 312.509 120.117 312.256 120.446C312.002 120.775 311.673 120.991 311.268 121.092C310.888 121.193 310.444 121.143 309.938 120.94C309.127 120.56 308.38 120.294 307.696 120.142C307.012 119.965 306.353 119.876 305.719 119.876C304.58 119.876 303.756 120.066 303.25 120.446C302.743 120.801 302.49 121.257 302.49 121.814C302.49 122.245 302.629 122.612 302.908 122.916C303.212 123.195 303.668 123.385 304.276 123.486L308.266 124.208C309.912 124.487 311.166 125.044 312.028 125.88C312.889 126.691 313.32 127.805 313.32 129.224C313.32 131.149 312.56 132.669 311.04 133.784C309.545 134.873 307.544 135.418 305.036 135.418ZM6.536 183.342C5.59867 183.342 4.87667 183.089 4.37 182.582C3.88867 182.075 3.648 181.353 3.648 180.416V168.636H2.28C1.57067 168.636 1.01333 168.446 0.608 168.066C0.228 167.686 0.038 167.167 0.038 166.508C0.038 165.799 0.228 165.267 0.608 164.912C1.01333 164.532 1.57067 164.342 2.28 164.342H5.32L3.648 165.862V164.684C3.648 162.024 4.30667 160.01 5.624 158.642C6.94133 157.274 8.892 156.451 11.476 156.172L12.578 156.058C13.2873 156.007 13.8447 156.109 14.25 156.362C14.6807 156.59 14.9593 156.907 15.086 157.312C15.238 157.717 15.276 158.135 15.2 158.566C15.124 158.997 14.9467 159.377 14.668 159.706C14.4147 160.01 14.0853 160.175 13.68 160.2L12.882 160.276C11.6153 160.352 10.716 160.669 10.184 161.226C9.652 161.783 9.386 162.607 9.386 163.696V164.988L8.664 164.342H19.304C20.216 164.342 20.9127 164.621 21.394 165.178C21.9007 165.71 22.154 166.47 22.154 167.458V180.188C22.154 181.176 21.9133 181.949 21.432 182.506C20.9507 183.038 20.2413 183.304 19.304 183.304C18.392 183.304 17.6827 183.038 17.176 182.506C16.6693 181.949 16.416 181.176 16.416 180.188V168.636H9.386V180.416C9.386 182.367 8.436 183.342 6.536 183.342ZM19.418 160.922C18.4047 160.922 17.6193 160.681 17.062 160.2C16.53 159.693 16.264 158.984 16.264 158.072C16.264 157.135 16.53 156.425 17.062 155.944C17.6193 155.437 18.4047 155.184 19.418 155.184C20.4313 155.184 21.204 155.437 21.736 155.944C22.2933 156.425 22.572 157.135 22.572 158.072C22.572 158.984 22.2933 159.693 21.736 160.2C21.204 160.681 20.4313 160.922 19.418 160.922ZM29.4729 183.342C28.5355 183.342 27.8135 183.089 27.3069 182.582C26.8255 182.075 26.5849 181.353 26.5849 180.416V166.926C26.5849 165.989 26.8255 165.279 27.3069 164.798C27.8135 164.291 28.5102 164.038 29.3969 164.038C30.3089 164.038 31.0055 164.291 31.4869 164.798C31.9682 165.279 32.2089 165.989 32.2089 166.926V169.092L31.7909 167.838C32.3735 166.597 33.2349 165.647 34.3749 164.988C35.5402 164.304 36.8575 163.962 38.3269 163.962C39.8215 163.962 41.0502 164.253 42.0129 164.836C42.9755 165.393 43.6975 166.255 44.1789 167.42C44.6602 168.56 44.9009 170.017 44.9009 171.79V180.416C44.9009 181.353 44.6475 182.075 44.1409 182.582C43.6595 183.089 42.9502 183.342 42.0129 183.342C41.1009 183.342 40.3915 183.089 39.8849 182.582C39.4035 182.075 39.1629 181.353 39.1629 180.416V172.056C39.1629 170.764 38.9222 169.839 38.4409 169.282C37.9849 168.699 37.2755 168.408 36.3129 168.408C35.0969 168.408 34.1215 168.788 33.3869 169.548C32.6775 170.308 32.3229 171.321 32.3229 172.588V180.416C32.3229 182.367 31.3729 183.342 29.4729 183.342ZM55.4925 183.418C54.1245 183.418 52.8958 183.152 51.8065 182.62C50.7171 182.088 49.8685 181.366 49.2605 180.454C48.6525 179.542 48.3485 178.516 48.3485 177.376C48.3485 176.008 48.7031 174.931 49.4125 174.146C50.1218 173.335 51.2745 172.765 52.8705 172.436C54.4665 172.081 56.5818 171.904 59.2165 171.904H61.2305V174.868H59.2545C57.9625 174.868 56.9111 174.944 56.1005 175.096C55.3151 175.223 54.7451 175.451 54.3905 175.78C54.0611 176.109 53.8965 176.565 53.8965 177.148C53.8965 177.857 54.1371 178.44 54.6185 178.896C55.1251 179.352 55.8471 179.58 56.7845 179.58C57.5191 179.58 58.1651 179.415 58.7225 179.086C59.3051 178.731 59.7611 178.263 60.0905 177.68C60.4198 177.072 60.5845 176.388 60.5845 175.628V171.258C60.5845 170.143 60.3311 169.358 59.8245 168.902C59.3178 168.421 58.4565 168.18 57.2405 168.18C56.5565 168.18 55.8091 168.269 54.9985 168.446C54.2131 168.598 53.3391 168.864 52.3765 169.244C51.8191 169.497 51.3251 169.561 50.8945 169.434C50.4638 169.282 50.1345 169.029 49.9065 168.674C49.6785 168.294 49.5645 167.889 49.5645 167.458C49.5645 167.002 49.6911 166.571 49.9445 166.166C50.1978 165.735 50.6158 165.419 51.1985 165.216C52.3891 164.735 53.5038 164.405 54.5425 164.228C55.6065 164.051 56.5818 163.962 57.4685 163.962C59.4191 163.962 61.0151 164.253 62.2565 164.836C63.5231 165.393 64.4731 166.267 65.1065 167.458C65.7398 168.623 66.0565 170.131 66.0565 171.98V180.416C66.0565 181.353 65.8285 182.075 65.3725 182.582C64.9165 183.089 64.2578 183.342 63.3965 183.342C62.5351 183.342 61.8638 183.089 61.3825 182.582C60.9265 182.075 60.6985 181.353 60.6985 180.416V179.01L60.9645 179.238C60.8125 180.099 60.4831 180.847 59.9765 181.48C59.4951 182.088 58.8745 182.569 58.1145 182.924C57.3545 183.253 56.4805 183.418 55.4925 183.418ZM73.2248 183.342C72.2875 183.342 71.5655 183.089 71.0588 182.582C70.5775 182.075 70.3368 181.353 70.3368 180.416V166.926C70.3368 165.989 70.5775 165.279 71.0588 164.798C71.5655 164.291 72.2621 164.038 73.1488 164.038C74.0608 164.038 74.7575 164.291 75.2388 164.798C75.7201 165.279 75.9608 165.989 75.9608 166.926V169.092L75.5428 167.838C76.1255 166.597 76.9868 165.647 78.1268 164.988C79.2921 164.304 80.6095 163.962 82.0788 163.962C83.5735 163.962 84.8021 164.253 85.7648 164.836C86.7275 165.393 87.4495 166.255 87.9308 167.42C88.4121 168.56 88.6528 170.017 88.6528 171.79V180.416C88.6528 181.353 88.3995 182.075 87.8928 182.582C87.4115 183.089 86.7021 183.342 85.7648 183.342C84.8528 183.342 84.1435 183.089 83.6368 182.582C83.1555 182.075 82.9148 181.353 82.9148 180.416V172.056C82.9148 170.764 82.6741 169.839 82.1928 169.282C81.7368 168.699 81.0275 168.408 80.0648 168.408C78.8488 168.408 77.8735 168.788 77.1388 169.548C76.4295 170.308 76.0748 171.321 76.0748 172.588V180.416C76.0748 182.367 75.1248 183.342 73.2248 183.342ZM102.018 183.418C99.9918 183.418 98.2184 183.025 96.6984 182.24C95.2038 181.429 94.0511 180.289 93.2404 178.82C92.4298 177.351 92.0244 175.615 92.0244 173.614C92.0244 172.119 92.2524 170.777 92.7084 169.586C93.1644 168.395 93.8231 167.382 94.6844 166.546C95.5711 165.71 96.6351 165.077 97.8764 164.646C99.1178 164.19 100.498 163.962 102.018 163.962C102.804 163.962 103.64 164.063 104.526 164.266C105.413 164.443 106.287 164.76 107.148 165.216C107.655 165.444 107.997 165.773 108.174 166.204C108.377 166.609 108.453 167.04 108.402 167.496C108.352 167.927 108.187 168.319 107.908 168.674C107.655 169.003 107.326 169.231 106.92 169.358C106.515 169.459 106.059 169.383 105.552 169.13C105.071 168.851 104.564 168.649 104.032 168.522C103.526 168.395 103.044 168.332 102.588 168.332C101.828 168.332 101.157 168.459 100.574 168.712C99.9918 168.94 99.4978 169.282 99.0924 169.738C98.7124 170.169 98.4084 170.713 98.1804 171.372C97.9778 172.031 97.8764 172.791 97.8764 173.652C97.8764 175.324 98.2818 176.641 99.0924 177.604C99.9284 178.541 101.094 179.01 102.588 179.01C103.044 179.01 103.526 178.959 104.032 178.858C104.539 178.731 105.046 178.529 105.552 178.25C106.059 177.997 106.515 177.933 106.92 178.06C107.326 178.187 107.642 178.427 107.87 178.782C108.124 179.111 108.263 179.504 108.288 179.96C108.339 180.391 108.263 180.821 108.06 181.252C107.883 181.657 107.554 181.974 107.072 182.202C106.211 182.633 105.35 182.937 104.488 183.114C103.627 183.317 102.804 183.418 102.018 183.418ZM101.6 190.486C101.119 190.486 100.6 190.448 100.042 190.372C99.5104 190.321 99.0164 190.22 98.5604 190.068C98.1298 189.941 97.8258 189.713 97.6484 189.384C97.4964 189.055 97.4584 188.725 97.5344 188.396C97.6104 188.067 97.7878 187.813 98.0664 187.636C98.3704 187.459 98.7504 187.446 99.2064 187.598C99.5358 187.699 99.8524 187.775 100.156 187.826C100.46 187.877 100.764 187.902 101.068 187.902C101.727 187.902 102.221 187.813 102.55 187.636C102.88 187.484 103.044 187.243 103.044 186.914C103.044 186.661 102.93 186.471 102.702 186.344C102.5 186.217 102.145 186.154 101.638 186.154C101.461 186.154 101.284 186.154 101.106 186.154C100.929 186.179 100.752 186.205 100.574 186.23C100.397 186.281 100.232 186.293 100.08 186.268C99.9538 186.243 99.8271 186.179 99.7004 186.078C99.5991 185.977 99.5358 185.837 99.5104 185.66C99.4851 185.508 99.4851 185.305 99.5104 185.052L99.9284 182.24H102.816L102.322 185.128L100.916 184.596C101.22 184.495 101.524 184.419 101.828 184.368C102.132 184.317 102.411 184.292 102.664 184.292C103.779 184.292 104.666 184.533 105.324 185.014C105.983 185.521 106.312 186.217 106.312 187.104C106.312 188.117 105.869 188.928 104.982 189.536C104.121 190.169 102.994 190.486 101.6 190.486ZM117.317 183.418C115.949 183.418 114.72 183.152 113.631 182.62C112.541 182.088 111.693 181.366 111.085 180.454C110.477 179.542 110.173 178.516 110.173 177.376C110.173 176.008 110.527 174.931 111.237 174.146C111.946 173.335 113.099 172.765 114.695 172.436C116.291 172.081 118.406 171.904 121.041 171.904H123.055V174.868H121.079C119.787 174.868 118.735 174.944 117.925 175.096C117.139 175.223 116.569 175.451 116.215 175.78C115.885 176.109 115.721 176.565 115.721 177.148C115.721 177.857 115.961 178.44 116.443 178.896C116.949 179.352 117.671 179.58 118.609 179.58C119.343 179.58 119.989 179.415 120.547 179.086C121.129 178.731 121.585 178.263 121.915 177.68C122.244 177.072 122.409 176.388 122.409 175.628V171.258C122.409 170.143 122.155 169.358 121.649 168.902C121.142 168.421 120.281 168.18 119.065 168.18C118.381 168.18 117.633 168.269 116.823 168.446C116.037 168.598 115.163 168.864 114.201 169.244C113.643 169.497 113.149 169.561 112.719 169.434C112.288 169.282 111.959 169.029 111.731 168.674C111.503 168.294 111.389 167.889 111.389 167.458C111.389 167.002 111.515 166.571 111.769 166.166C112.022 165.735 112.44 165.419 113.023 165.216C114.213 164.735 115.328 164.405 116.367 164.228C117.431 164.051 118.406 163.962 119.293 163.962C121.243 163.962 122.839 164.253 124.081 164.836C125.347 165.393 126.297 166.267 126.931 167.458C127.564 168.623 127.881 170.131 127.881 171.98V180.416C127.881 181.353 127.653 182.075 127.197 182.582C126.741 183.089 126.082 183.342 125.221 183.342C124.359 183.342 123.688 183.089 123.207 182.582C122.751 182.075 122.523 181.353 122.523 180.416V179.01L122.789 179.238C122.637 180.099 122.307 180.847 121.801 181.48C121.319 182.088 120.699 182.569 119.939 182.924C119.179 183.253 118.305 183.418 117.317 183.418ZM139.305 183.418C138.19 183.418 137.038 183.317 135.847 183.114C134.682 182.911 133.618 182.569 132.655 182.088C132.148 181.835 131.781 181.518 131.553 181.138C131.35 180.733 131.262 180.327 131.287 179.922C131.312 179.517 131.439 179.149 131.667 178.82C131.92 178.491 132.237 178.275 132.617 178.174C133.022 178.047 133.466 178.085 133.947 178.288C134.986 178.719 135.936 179.023 136.797 179.2C137.658 179.377 138.507 179.466 139.343 179.466C140.432 179.466 141.218 179.301 141.699 178.972C142.206 178.617 142.459 178.161 142.459 177.604C142.459 177.097 142.294 176.717 141.965 176.464C141.636 176.211 141.154 176.033 140.521 175.932L136.531 175.21C134.96 174.931 133.744 174.361 132.883 173.5C132.047 172.613 131.629 171.486 131.629 170.118C131.629 168.851 131.984 167.762 132.693 166.85C133.402 165.913 134.378 165.203 135.619 164.722C136.886 164.215 138.317 163.962 139.913 163.962C141.053 163.962 142.104 164.063 143.067 164.266C144.03 164.469 144.954 164.798 145.841 165.254C146.297 165.482 146.614 165.786 146.791 166.166C146.994 166.546 147.057 166.939 146.981 167.344C146.93 167.749 146.778 168.117 146.525 168.446C146.272 168.775 145.942 168.991 145.537 169.092C145.157 169.193 144.714 169.143 144.207 168.94C143.396 168.56 142.649 168.294 141.965 168.142C141.281 167.965 140.622 167.876 139.989 167.876C138.849 167.876 138.026 168.066 137.519 168.446C137.012 168.801 136.759 169.257 136.759 169.814C136.759 170.245 136.898 170.612 137.177 170.916C137.481 171.195 137.937 171.385 138.545 171.486L142.535 172.208C144.182 172.487 145.436 173.044 146.297 173.88C147.158 174.691 147.589 175.805 147.589 177.224C147.589 179.149 146.829 180.669 145.309 181.784C143.814 182.873 141.813 183.418 139.305 183.418Z" fill="white"/>
<path d="M4.176 240.144C3.48267 240.144 2.87467 239.979 2.352 239.648C1.84 239.317 1.44 238.853 1.152 238.256C0.874667 237.648 0.736 236.933 0.736 236.112C0.736 235.28 0.874667 234.565 1.152 233.968C1.44 233.36 1.84 232.896 2.352 232.576C2.87467 232.245 3.48267 232.08 4.176 232.08C4.88 232.08 5.48267 232.256 5.984 232.608C6.48533 232.96 6.82133 233.435 6.992 234.032H6.816V229.264C6.816 229.051 6.86933 228.891 6.976 228.784C7.09333 228.667 7.25867 228.608 7.472 228.608C7.67467 228.608 7.82933 228.667 7.936 228.784C8.05333 228.891 8.112 229.051 8.112 229.264V239.44C8.112 239.653 8.05867 239.819 7.952 239.936C7.84533 240.053 7.68533 240.112 7.472 240.112C7.26933 240.112 7.10933 240.053 6.992 239.936C6.88533 239.819 6.832 239.653 6.832 239.44V237.92L7.008 238.144C6.83733 238.752 6.496 239.237 5.984 239.6C5.48267 239.963 4.88 240.144 4.176 240.144ZM4.448 239.104C4.928 239.104 5.34933 238.987 5.712 238.752C6.07467 238.517 6.352 238.176 6.544 237.728C6.74667 237.28 6.848 236.741 6.848 236.112C6.848 235.141 6.62933 234.4 6.192 233.888C5.76533 233.376 5.184 233.12 4.448 233.12C3.95733 233.12 3.53067 233.237 3.168 233.472C2.816 233.696 2.53867 234.032 2.336 234.48C2.144 234.917 2.048 235.461 2.048 236.112C2.048 237.072 2.26667 237.813 2.704 238.336C3.14133 238.848 3.72267 239.104 4.448 239.104ZM14.0481 240.144C13.2268 240.144 12.5175 239.984 11.9201 239.664C11.3335 239.333 10.8748 238.869 10.5441 238.272C10.2241 237.675 10.0641 236.96 10.0641 236.128C10.0641 235.317 10.2241 234.613 10.5441 234.016C10.8641 233.408 11.3015 232.933 11.8561 232.592C12.4215 232.251 13.0721 232.08 13.8081 232.08C14.3308 232.08 14.8001 232.171 15.2161 232.352C15.6321 232.523 15.9841 232.773 16.2721 233.104C16.5708 233.435 16.7948 233.835 16.9441 234.304C17.1041 234.773 17.1841 235.301 17.1841 235.888C17.1841 236.059 17.1361 236.187 17.0401 236.272C16.9441 236.347 16.8055 236.384 16.6241 236.384H11.0561V235.536H16.3201L16.0641 235.744C16.0641 235.168 15.9788 234.683 15.8081 234.288C15.6375 233.883 15.3868 233.573 15.0561 233.36C14.7361 233.147 14.3308 233.04 13.8401 233.04C13.2961 233.04 12.8321 233.168 12.4481 233.424C12.0748 233.669 11.7921 234.016 11.6001 234.464C11.4081 234.901 11.3121 235.413 11.3121 236V236.096C11.3121 237.077 11.5468 237.824 12.0161 238.336C12.4961 238.848 13.1735 239.104 14.0481 239.104C14.4108 239.104 14.7681 239.056 15.1201 238.96C15.4828 238.864 15.8348 238.704 16.1761 238.48C16.3255 238.384 16.4588 238.341 16.5761 238.352C16.7041 238.352 16.8055 238.389 16.8801 238.464C16.9548 238.528 17.0028 238.613 17.0241 238.72C17.0561 238.816 17.0455 238.923 16.9921 239.04C16.9495 239.157 16.8588 239.259 16.7201 239.344C16.3681 239.6 15.9521 239.797 15.4721 239.936C14.9921 240.075 14.5175 240.144 14.0481 240.144ZM24.2408 240.112C24.0381 240.112 23.8781 240.053 23.7608 239.936C23.6541 239.819 23.6008 239.653 23.6008 239.44V233.232H22.5768C22.4061 233.232 22.2674 233.189 22.1608 233.104C22.0648 233.008 22.0168 232.88 22.0168 232.72C22.0168 232.56 22.0648 232.437 22.1608 232.352C22.2674 232.267 22.4061 232.224 22.5768 232.224H23.9528L23.6008 232.56V231.952C23.6008 230.939 23.8461 230.165 24.3368 229.632C24.8381 229.099 25.5688 228.789 26.5288 228.704L26.9928 228.656C27.1421 228.645 27.2594 228.672 27.3448 228.736C27.4408 228.8 27.4994 228.88 27.5208 228.976C27.5528 229.072 27.5581 229.173 27.5368 229.28C27.5154 229.376 27.4674 229.461 27.3928 229.536C27.3181 229.611 27.2274 229.653 27.1208 229.664L26.7528 229.696C26.1021 229.749 25.6274 229.947 25.3288 230.288C25.0408 230.629 24.8968 231.131 24.8968 231.792V232.464L24.7048 232.224H26.6248C26.8061 232.224 26.9448 232.267 27.0408 232.352C27.1368 232.437 27.1848 232.56 27.1848 232.72C27.1848 232.88 27.1368 233.008 27.0408 233.104C26.9448 233.189 26.8061 233.232 26.6248 233.232H24.8968V239.44C24.8968 239.888 24.6781 240.112 24.2408 240.112ZM31.5261 240.144C30.7688 240.144 30.1128 239.979 29.5581 239.648C29.0035 239.317 28.5715 238.853 28.2621 238.256C27.9635 237.648 27.8141 236.933 27.8141 236.112C27.8141 235.493 27.8995 234.939 28.0701 234.448C28.2408 233.947 28.4915 233.52 28.8221 233.168C29.1528 232.816 29.5421 232.549 29.9901 232.368C30.4488 232.176 30.9608 232.08 31.5261 232.08C32.2835 232.08 32.9395 232.245 33.4941 232.576C34.0488 232.907 34.4755 233.376 34.7741 233.984C35.0835 234.581 35.2381 235.291 35.2381 236.112C35.2381 236.731 35.1528 237.285 34.9821 237.776C34.8115 238.267 34.5608 238.693 34.2301 239.056C33.8995 239.408 33.5048 239.68 33.0461 239.872C32.5981 240.053 32.0915 240.144 31.5261 240.144ZM31.5261 239.104C32.0061 239.104 32.4275 238.987 32.7901 238.752C33.1528 238.517 33.4301 238.176 33.6221 237.728C33.8248 237.28 33.9261 236.741 33.9261 236.112C33.9261 235.141 33.7075 234.4 33.2701 233.888C32.8435 233.376 32.2621 233.12 31.5261 233.12C31.0355 233.12 30.6088 233.237 30.2461 233.472C29.8941 233.696 29.6168 234.032 29.4141 234.48C29.2221 234.917 29.1261 235.461 29.1261 236.112C29.1261 237.072 29.3448 237.813 29.7821 238.336C30.2195 238.848 30.8008 239.104 31.5261 239.104ZM37.8408 240.112C37.6274 240.112 37.4621 240.053 37.3448 239.936C37.2381 239.819 37.1848 239.653 37.1848 239.44V232.768C37.1848 232.555 37.2381 232.395 37.3448 232.288C37.4514 232.171 37.6061 232.112 37.8088 232.112C38.0114 232.112 38.1661 232.171 38.2728 232.288C38.3901 232.395 38.4488 232.555 38.4488 232.768V234.064H38.2888C38.4594 233.435 38.7848 232.949 39.2648 232.608C39.7448 232.267 40.3368 232.085 41.0408 232.064C41.2008 232.053 41.3288 232.091 41.4248 232.176C41.5208 232.251 41.5741 232.384 41.5848 232.576C41.5954 232.757 41.5528 232.901 41.4568 233.008C41.3608 233.115 41.2114 233.179 41.0088 233.2L40.7528 233.232C40.0274 233.296 39.4674 233.531 39.0728 233.936C38.6888 234.331 38.4968 234.875 38.4968 235.568V239.44C38.4968 239.653 38.4381 239.819 38.3207 239.936C38.2141 240.053 38.0541 240.112 37.8408 240.112ZM43.5911 240.112C43.3778 240.112 43.2178 240.053 43.1111 239.936C43.0045 239.819 42.9511 239.653 42.9511 239.44V232.768C42.9511 232.555 43.0045 232.395 43.1111 232.288C43.2178 232.171 43.3725 232.112 43.5751 232.112C43.7778 232.112 43.9325 232.171 44.0391 232.288C44.1565 232.395 44.2151 232.555 44.2151 232.768V234.176L44.0391 233.952C44.2418 233.355 44.5671 232.896 45.0151 232.576C45.4738 232.245 46.0178 232.08 46.6471 232.08C47.3085 232.08 47.8418 232.24 48.2471 232.56C48.6631 232.869 48.9405 233.355 49.0791 234.016H48.8391C49.0311 233.419 49.3725 232.949 49.8631 232.608C50.3645 232.256 50.9458 232.08 51.6071 232.08C52.1938 232.08 52.6738 232.192 53.0471 232.416C53.4311 232.64 53.7191 232.981 53.9111 233.44C54.1031 233.888 54.1991 234.459 54.1991 235.152V239.44C54.1991 239.653 54.1405 239.819 54.0231 239.936C53.9165 240.053 53.7565 240.112 53.5431 240.112C53.3405 240.112 53.1805 240.053 53.0631 239.936C52.9565 239.819 52.9031 239.653 52.9031 239.44V235.216C52.9031 234.501 52.7805 233.979 52.5351 233.648C52.2898 233.307 51.8738 233.136 51.2871 233.136C50.6471 233.136 50.1405 233.36 49.7671 233.808C49.4045 234.245 49.2231 234.843 49.2231 235.6V239.44C49.2231 239.653 49.1645 239.819 49.0471 239.936C48.9405 240.053 48.7805 240.112 48.5671 240.112C48.3645 240.112 48.2045 240.053 48.0871 239.936C47.9805 239.819 47.9271 239.653 47.9271 239.44V235.216C47.9271 234.501 47.7991 233.979 47.5431 233.648C47.2978 233.307 46.8871 233.136 46.3111 233.136C45.6711 233.136 45.1645 233.36 44.7911 233.808C44.4285 234.245 44.2471 234.843 44.2471 235.6V239.44C44.2471 239.888 44.0285 240.112 43.5911 240.112ZM59.0703 240.144C58.5369 240.144 58.0569 240.043 57.6303 239.84C57.2143 239.627 56.8836 239.339 56.6383 238.976C56.3929 238.613 56.2703 238.208 56.2703 237.76C56.2703 237.184 56.4143 236.731 56.7023 236.4C57.0009 236.069 57.4863 235.835 58.1583 235.696C58.8409 235.557 59.7689 235.488 60.9423 235.488H61.6623V236.336H60.9583C60.0943 236.336 59.4116 236.379 58.9103 236.464C58.4196 236.539 58.0729 236.672 57.8703 236.864C57.6783 237.056 57.5823 237.328 57.5823 237.68C57.5823 238.117 57.7316 238.475 58.0303 238.752C58.3396 239.029 58.7556 239.168 59.2783 239.168C59.7049 239.168 60.0783 239.067 60.3983 238.864C60.7289 238.661 60.9849 238.384 61.1663 238.032C61.3583 237.68 61.4543 237.275 61.4543 236.816V234.992C61.4543 234.331 61.3209 233.856 61.0543 233.568C60.7876 233.269 60.3503 233.12 59.7423 233.12C59.3689 233.12 58.9956 233.168 58.6223 233.264C58.2489 233.36 57.8543 233.515 57.4383 233.728C57.2889 233.803 57.1609 233.829 57.0543 233.808C56.9476 233.776 56.8623 233.717 56.7983 233.632C56.7343 233.547 56.6969 233.451 56.6863 233.344C56.6756 233.227 56.6969 233.115 56.7503 233.008C56.8143 232.901 56.9103 232.816 57.0383 232.752C57.5076 232.517 57.9716 232.347 58.4303 232.24C58.8889 232.133 59.3263 232.08 59.7423 232.08C60.4143 232.08 60.9689 232.192 61.4063 232.416C61.8436 232.629 62.1689 232.96 62.3823 233.408C62.5956 233.845 62.7023 234.411 62.7023 235.104V239.44C62.7023 239.653 62.6489 239.819 62.5423 239.936C62.4463 240.053 62.3023 240.112 62.1103 240.112C61.9076 240.112 61.7529 240.053 61.6463 239.936C61.5396 239.819 61.4863 239.653 61.4863 239.44V238.192H61.6303C61.5449 238.597 61.3796 238.944 61.1343 239.232C60.8996 239.52 60.6063 239.744 60.2543 239.904C59.9023 240.064 59.5076 240.144 59.0703 240.144ZM69.8876 240.112C69.6743 240.112 69.509 240.053 69.3916 239.936C69.285 239.819 69.2316 239.653 69.2316 239.44V232.768C69.2316 232.555 69.285 232.395 69.3916 232.288C69.4983 232.171 69.653 232.112 69.8556 232.112C70.0583 232.112 70.213 232.171 70.3196 232.288C70.437 232.395 70.4956 232.555 70.4956 232.768V234.064H70.3356C70.5063 233.435 70.8316 232.949 71.3116 232.608C71.7916 232.267 72.3836 232.085 73.0876 232.064C73.2476 232.053 73.3756 232.091 73.4716 232.176C73.5676 232.251 73.621 232.384 73.6316 232.576C73.6423 232.757 73.5996 232.901 73.5036 233.008C73.4076 233.115 73.2583 233.179 73.0556 233.2L72.7996 233.232C72.0743 233.296 71.5143 233.531 71.1196 233.936C70.7356 234.331 70.5436 234.875 70.5436 235.568V239.44C70.5436 239.653 70.485 239.819 70.3676 239.936C70.261 240.053 70.101 240.112 69.8876 240.112ZM77.414 240.144C76.8807 240.144 76.4007 240.043 75.974 239.84C75.558 239.627 75.2273 239.339 74.982 238.976C74.7367 238.613 74.614 238.208 74.614 237.76C74.614 237.184 74.758 236.731 75.046 236.4C75.3447 236.069 75.83 235.835 76.502 235.696C77.1847 235.557 78.1127 235.488 79.286 235.488H80.006V236.336H79.302C78.438 236.336 77.7553 236.379 77.254 236.464C76.7633 236.539 76.4167 236.672 76.214 236.864C76.022 237.056 75.926 237.328 75.926 237.68C75.926 238.117 76.0753 238.475 76.374 238.752C76.6833 239.029 77.0993 239.168 77.622 239.168C78.0487 239.168 78.422 239.067 78.742 238.864C79.0727 238.661 79.3287 238.384 79.51 238.032C79.702 237.68 79.798 237.275 79.798 236.816V234.992C79.798 234.331 79.6647 233.856 79.398 233.568C79.1313 233.269 78.694 233.12 78.086 233.12C77.7127 233.12 77.3393 233.168 76.966 233.264C76.5927 233.36 76.198 233.515 75.782 233.728C75.6327 233.803 75.5047 233.829 75.398 233.808C75.2913 233.776 75.206 233.717 75.142 233.632C75.078 233.547 75.0407 233.451 75.03 233.344C75.0193 233.227 75.0407 233.115 75.094 233.008C75.158 232.901 75.254 232.816 75.382 232.752C75.8513 232.517 76.3153 232.347 76.774 232.24C77.2327 232.133 77.67 232.08 78.086 232.08C78.758 232.08 79.3127 232.192 79.75 232.416C80.1873 232.629 80.5127 232.96 80.726 233.408C80.9393 233.845 81.046 234.411 81.046 235.104V239.44C81.046 239.653 80.9927 239.819 80.886 239.936C80.79 240.053 80.646 240.112 80.454 240.112C80.2513 240.112 80.0967 240.053 79.99 239.936C79.8833 239.819 79.83 239.653 79.83 239.44V238.192H79.974C79.8887 238.597 79.7233 238.944 79.478 239.232C79.2433 239.52 78.95 239.744 78.598 239.904C78.246 240.064 77.8513 240.144 77.414 240.144ZM78.63 231.104C78.5553 231.211 78.4647 231.275 78.358 231.296C78.2513 231.307 78.15 231.291 78.054 231.248C77.958 231.195 77.8887 231.12 77.846 231.024C77.8033 230.928 77.814 230.816 77.878 230.688L79.222 228.08C79.2967 227.931 79.3927 227.835 79.51 227.792C79.6273 227.749 79.7447 227.744 79.862 227.776C79.99 227.797 80.0967 227.851 80.182 227.936C80.2673 228.021 80.3153 228.123 80.326 228.24C80.3473 228.357 80.3153 228.48 80.23 228.608L78.63 231.104ZM84.0904 242.992C83.877 242.992 83.717 242.933 83.6104 242.816C83.5037 242.709 83.4504 242.549 83.4504 242.336V232.768C83.4504 232.555 83.5037 232.395 83.6104 232.288C83.717 232.171 83.8717 232.112 84.0744 232.112C84.2877 232.112 84.4477 232.171 84.5544 232.288C84.6717 232.395 84.7304 232.555 84.7304 232.768V234.288L84.5544 234.064C84.725 233.456 85.061 232.976 85.5624 232.624C86.0744 232.261 86.6824 232.08 87.3864 232.08C88.0797 232.08 88.6824 232.245 89.1944 232.576C89.717 232.896 90.117 233.36 90.3944 233.968C90.6824 234.565 90.8264 235.28 90.8264 236.112C90.8264 236.933 90.6824 237.648 90.3944 238.256C90.117 238.853 89.7224 239.317 89.2104 239.648C88.6984 239.979 88.0904 240.144 87.3864 240.144C86.6824 240.144 86.0797 239.968 85.5784 239.616C85.077 239.253 84.7357 238.773 84.5544 238.176H84.7464V242.336C84.7464 242.549 84.6877 242.709 84.5704 242.816C84.453 242.933 84.293 242.992 84.0904 242.992ZM87.1144 239.104C87.605 239.104 88.0264 238.987 88.3784 238.752C88.741 238.517 89.0184 238.176 89.2104 237.728C89.413 237.28 89.5144 236.741 89.5144 236.112C89.5144 235.141 89.2957 234.4 88.8584 233.888C88.4317 233.376 87.8504 233.12 87.1144 233.12C86.6344 233.12 86.213 233.237 85.8504 233.472C85.4877 233.696 85.205 234.032 85.0024 234.48C84.8104 234.917 84.7144 235.461 84.7144 236.112C84.7144 237.072 84.933 237.813 85.3704 238.336C85.8077 238.848 86.389 239.104 87.1144 239.104ZM93.4185 240.08C93.2052 240.08 93.0452 240.021 92.9385 239.904C92.8318 239.776 92.7785 239.6 92.7785 239.376V232.832C92.7785 232.608 92.8318 232.437 92.9385 232.32C93.0452 232.203 93.2052 232.144 93.4185 232.144C93.6212 232.144 93.7812 232.203 93.8985 232.32C94.0158 232.437 94.0745 232.608 94.0745 232.832V239.376C94.0745 239.6 94.0158 239.776 93.8985 239.904C93.7918 240.021 93.6318 240.08 93.4185 240.08ZM93.4185 230.352C93.1518 230.352 92.9438 230.283 92.7945 230.144C92.6452 229.995 92.5705 229.797 92.5705 229.552C92.5705 229.296 92.6452 229.104 92.7945 228.976C92.9438 228.837 93.1518 228.768 93.4185 228.768C93.6958 228.768 93.9038 228.837 94.0425 228.976C94.1918 229.104 94.2665 229.296 94.2665 229.552C94.2665 229.797 94.1918 229.995 94.0425 230.144C93.9038 230.283 93.6958 230.352 93.4185 230.352ZM99.4573 240.144C98.7639 240.144 98.1559 239.979 97.6332 239.648C97.1213 239.317 96.7213 238.853 96.4333 238.256C96.1559 237.648 96.0173 236.933 96.0173 236.112C96.0173 235.28 96.1559 234.565 96.4333 233.968C96.7213 233.36 97.1213 232.896 97.6332 232.576C98.1559 232.245 98.7639 232.08 99.4573 232.08C100.161 232.08 100.764 232.256 101.265 232.608C101.767 232.96 102.103 233.435 102.273 234.032H102.097V229.264C102.097 229.051 102.151 228.891 102.257 228.784C102.375 228.667 102.54 228.608 102.753 228.608C102.956 228.608 103.111 228.667 103.217 228.784C103.335 228.891 103.393 229.051 103.393 229.264V239.44C103.393 239.653 103.34 239.819 103.233 239.936C103.127 240.053 102.967 240.112 102.753 240.112C102.551 240.112 102.391 240.053 102.273 239.936C102.167 239.819 102.113 239.653 102.113 239.44V237.92L102.289 238.144C102.119 238.752 101.777 239.237 101.265 239.6C100.764 239.963 100.161 240.144 99.4573 240.144ZM99.7293 239.104C100.209 239.104 100.631 238.987 100.993 238.752C101.356 238.517 101.633 238.176 101.825 237.728C102.028 237.28 102.129 236.741 102.129 236.112C102.129 235.141 101.911 234.4 101.473 233.888C101.047 233.376 100.465 233.12 99.7293 233.12C99.2386 233.12 98.8119 233.237 98.4493 233.472C98.0973 233.696 97.8199 234.032 97.6173 234.48C97.4253 234.917 97.3293 235.461 97.3293 236.112C97.3293 237.072 97.5479 237.813 97.9853 238.336C98.4226 238.848 99.0039 239.104 99.7293 239.104ZM108.273 240.144C107.74 240.144 107.26 240.043 106.833 239.84C106.417 239.627 106.087 239.339 105.841 238.976C105.596 238.613 105.473 238.208 105.473 237.76C105.473 237.184 105.617 236.731 105.905 236.4C106.204 236.069 106.689 235.835 107.361 235.696C108.044 235.557 108.972 235.488 110.145 235.488H110.865V236.336H110.161C109.297 236.336 108.615 236.379 108.113 236.464C107.623 236.539 107.276 236.672 107.073 236.864C106.881 237.056 106.785 237.328 106.785 237.68C106.785 238.117 106.935 238.475 107.233 238.752C107.543 239.029 107.959 239.168 108.481 239.168C108.908 239.168 109.281 239.067 109.601 238.864C109.932 238.661 110.188 238.384 110.369 238.032C110.561 237.68 110.657 237.275 110.657 236.816V234.992C110.657 234.331 110.524 233.856 110.257 233.568C109.991 233.269 109.553 233.12 108.945 233.12C108.572 233.12 108.199 233.168 107.825 233.264C107.452 233.36 107.057 233.515 106.641 233.728C106.492 233.803 106.364 233.829 106.257 233.808C106.151 233.776 106.065 233.717 106.001 233.632C105.937 233.547 105.9 233.451 105.889 233.344C105.879 233.227 105.9 233.115 105.953 233.008C106.017 232.901 106.113 232.816 106.241 232.752C106.711 232.517 107.175 232.347 107.633 232.24C108.092 232.133 108.529 232.08 108.945 232.08C109.617 232.08 110.172 232.192 110.609 232.416C111.047 232.629 111.372 232.96 111.585 233.408C111.799 233.845 111.905 234.411 111.905 235.104V239.44C111.905 239.653 111.852 239.819 111.745 239.936C111.649 240.053 111.505 240.112 111.313 240.112C111.111 240.112 110.956 240.053 110.849 239.936C110.743 239.819 110.689 239.653 110.689 239.44V238.192H110.833C110.748 238.597 110.583 238.944 110.337 239.232C110.103 239.52 109.809 239.744 109.457 239.904C109.105 240.064 108.711 240.144 108.273 240.144ZM121.939 240.144C121.117 240.144 120.408 239.984 119.811 239.664C119.224 239.333 118.765 238.869 118.435 238.272C118.115 237.675 117.955 236.96 117.955 236.128C117.955 235.317 118.115 234.613 118.435 234.016C118.755 233.408 119.192 232.933 119.747 232.592C120.312 232.251 120.963 232.08 121.699 232.08C122.221 232.08 122.691 232.171 123.107 232.352C123.523 232.523 123.875 232.773 124.163 233.104C124.461 233.435 124.685 233.835 124.835 234.304C124.995 234.773 125.075 235.301 125.075 235.888C125.075 236.059 125.027 236.187 124.931 236.272C124.835 236.347 124.696 236.384 124.515 236.384H118.947V235.536H124.211L123.955 235.744C123.955 235.168 123.869 234.683 123.699 234.288C123.528 233.883 123.277 233.573 122.947 233.36C122.627 233.147 122.221 233.04 121.731 233.04C121.187 233.04 120.723 233.168 120.339 233.424C119.965 233.669 119.683 234.016 119.491 234.464C119.299 234.901 119.203 235.413 119.203 236V236.096C119.203 237.077 119.437 237.824 119.907 238.336C120.387 238.848 121.064 239.104 121.939 239.104C122.301 239.104 122.659 239.056 123.011 238.96C123.373 238.864 123.725 238.704 124.067 238.48C124.216 238.384 124.349 238.341 124.467 238.352C124.595 238.352 124.696 238.389 124.771 238.464C124.845 238.528 124.893 238.613 124.915 238.72C124.947 238.816 124.936 238.923 124.883 239.04C124.84 239.157 124.749 239.259 124.611 239.344C124.259 239.6 123.843 239.797 123.363 239.936C122.883 240.075 122.408 240.144 121.939 240.144ZM133.699 240.144C133.219 240.144 132.734 240.085 132.243 239.968C131.763 239.851 131.315 239.648 130.899 239.36C130.793 239.285 130.718 239.2 130.675 239.104C130.633 238.997 130.617 238.896 130.627 238.8C130.649 238.693 130.691 238.603 130.755 238.528C130.83 238.453 130.915 238.411 131.011 238.4C131.118 238.379 131.235 238.4 131.363 238.464C131.779 238.72 132.179 238.901 132.563 239.008C132.958 239.104 133.347 239.152 133.731 239.152C134.339 239.152 134.798 239.04 135.107 238.816C135.417 238.592 135.571 238.288 135.571 237.904C135.571 237.605 135.47 237.371 135.267 237.2C135.065 237.019 134.745 236.88 134.307 236.784L132.851 236.464C132.179 236.325 131.678 236.085 131.347 235.744C131.027 235.403 130.867 234.96 130.867 234.416C130.867 233.936 130.99 233.525 131.235 233.184C131.491 232.832 131.849 232.56 132.307 232.368C132.766 232.176 133.299 232.08 133.907 232.08C134.377 232.08 134.819 232.144 135.235 232.272C135.662 232.389 136.046 232.581 136.387 232.848C136.494 232.923 136.563 233.013 136.595 233.12C136.638 233.216 136.643 233.317 136.611 233.424C136.59 233.52 136.542 233.605 136.467 233.68C136.393 233.744 136.302 233.781 136.195 233.792C136.089 233.803 135.977 233.771 135.859 233.696C135.539 233.483 135.214 233.328 134.883 233.232C134.553 233.125 134.227 233.072 133.907 233.072C133.31 233.072 132.857 233.189 132.547 233.424C132.238 233.659 132.083 233.968 132.083 234.352C132.083 234.651 132.179 234.896 132.371 235.088C132.563 235.28 132.862 235.419 133.267 235.504L134.723 235.808C135.417 235.957 135.934 236.197 136.275 236.528C136.627 236.848 136.803 237.285 136.803 237.84C136.803 238.544 136.521 239.104 135.955 239.52C135.39 239.936 134.638 240.144 133.699 240.144ZM142.283 240.144C141.461 240.144 140.752 239.984 140.155 239.664C139.568 239.333 139.109 238.869 138.779 238.272C138.459 237.675 138.299 236.96 138.299 236.128C138.299 235.317 138.459 234.613 138.779 234.016C139.099 233.408 139.536 232.933 140.091 232.592C140.656 232.251 141.307 232.08 142.043 232.08C142.565 232.08 143.035 232.171 143.451 232.352C143.867 232.523 144.219 232.773 144.507 233.104C144.805 233.435 145.029 233.835 145.179 234.304C145.339 234.773 145.419 235.301 145.419 235.888C145.419 236.059 145.371 236.187 145.275 236.272C145.179 236.347 145.04 236.384 144.859 236.384H139.291V235.536H144.555L144.299 235.744C144.299 235.168 144.213 234.683 144.043 234.288C143.872 233.883 143.621 233.573 143.291 233.36C142.971 233.147 142.565 233.04 142.075 233.04C141.531 233.04 141.067 233.168 140.683 233.424C140.309 233.669 140.027 234.016 139.835 234.464C139.643 234.901 139.547 235.413 139.547 236V236.096C139.547 237.077 139.781 237.824 140.251 238.336C140.731 238.848 141.408 239.104 142.283 239.104C142.645 239.104 143.003 239.056 143.355 238.96C143.717 238.864 144.069 238.704 144.411 238.48C144.56 238.384 144.693 238.341 144.811 238.352C144.939 238.352 145.04 238.389 145.115 238.464C145.189 238.528 145.237 238.613 145.259 238.72C145.291 238.816 145.28 238.923 145.227 239.04C145.184 239.157 145.093 239.259 144.955 239.344C144.603 239.6 144.187 239.797 143.707 239.936C143.227 240.075 142.752 240.144 142.283 240.144ZM150.734 243.024C150.169 243.024 149.614 242.955 149.07 242.816C148.537 242.688 148.051 242.48 147.614 242.192C147.486 242.117 147.401 242.027 147.358 241.92C147.326 241.813 147.321 241.707 147.342 241.6C147.363 241.504 147.411 241.413 147.486 241.328C147.561 241.253 147.646 241.205 147.742 241.184C147.849 241.163 147.955 241.179 148.062 241.232C148.531 241.52 148.979 241.717 149.406 241.824C149.833 241.931 150.254 241.984 150.67 241.984C151.427 241.984 151.998 241.781 152.382 241.376C152.777 240.971 152.974 240.384 152.974 239.616V237.808H153.134C152.974 238.427 152.633 238.917 152.11 239.28C151.598 239.643 150.995 239.824 150.302 239.824C149.587 239.824 148.969 239.664 148.446 239.344C147.923 239.013 147.518 238.555 147.23 237.968C146.953 237.381 146.814 236.704 146.814 235.936C146.814 235.36 146.894 234.837 147.054 234.368C147.214 233.888 147.443 233.483 147.742 233.152C148.051 232.811 148.419 232.549 148.846 232.368C149.283 232.176 149.769 232.08 150.302 232.08C151.006 232.08 151.614 232.261 152.126 232.624C152.638 232.976 152.969 233.456 153.118 234.064L152.958 234.256V232.768C152.958 232.555 153.011 232.395 153.118 232.288C153.235 232.171 153.395 232.112 153.598 232.112C153.811 232.112 153.971 232.171 154.078 232.288C154.185 232.395 154.238 232.555 154.238 232.768V239.44C154.238 240.624 153.939 241.515 153.342 242.112C152.755 242.72 151.886 243.024 150.734 243.024ZM150.542 238.768C151.043 238.768 151.475 238.656 151.838 238.432C152.201 238.197 152.478 237.867 152.67 237.44C152.873 237.013 152.974 236.512 152.974 235.936C152.974 235.072 152.755 234.389 152.318 233.888C151.881 233.376 151.289 233.12 150.542 233.12C150.051 233.12 149.625 233.237 149.262 233.472C148.899 233.696 148.617 234.021 148.414 234.448C148.222 234.864 148.126 235.36 148.126 235.936C148.126 236.8 148.345 237.488 148.782 238C149.219 238.512 149.806 238.768 150.542 238.768ZM159.421 240.144C158.792 240.144 158.269 240.032 157.853 239.808C157.448 239.573 157.138 239.227 156.925 238.768C156.722 238.309 156.621 237.739 156.621 237.056V232.768C156.621 232.544 156.674 232.379 156.781 232.272C156.898 232.165 157.058 232.112 157.261 232.112C157.474 232.112 157.634 232.165 157.741 232.272C157.858 232.379 157.917 232.544 157.917 232.768V237.04C157.917 237.723 158.056 238.235 158.333 238.576C158.621 238.907 159.069 239.072 159.677 239.072C160.338 239.072 160.877 238.848 161.293 238.4C161.709 237.952 161.917 237.365 161.917 236.64V232.768C161.917 232.544 161.97 232.379 162.077 232.272C162.194 232.165 162.36 232.112 162.573 232.112C162.776 232.112 162.93 232.165 163.037 232.272C163.154 232.379 163.213 232.544 163.213 232.768V239.44C163.213 239.888 163.005 240.112 162.589 240.112C162.386 240.112 162.226 240.053 162.109 239.936C162.002 239.819 161.949 239.653 161.949 239.44V237.984L162.157 238.208C161.944 238.837 161.592 239.317 161.101 239.648C160.621 239.979 160.061 240.144 159.421 240.144ZM166.294 240.112C166.081 240.112 165.915 240.053 165.798 239.936C165.691 239.819 165.638 239.653 165.638 239.44V232.768C165.638 232.555 165.691 232.395 165.798 232.288C165.905 232.171 166.059 232.112 166.262 232.112C166.465 232.112 166.619 232.171 166.726 232.288C166.843 232.395 166.902 232.555 166.902 232.768V234.064H166.742C166.913 233.435 167.238 232.949 167.718 232.608C168.198 232.267 168.79 232.085 169.494 232.064C169.654 232.053 169.782 232.091 169.878 232.176C169.974 232.251 170.027 232.384 170.038 232.576C170.049 232.757 170.006 232.901 169.91 233.008C169.814 233.115 169.665 233.179 169.462 233.2L169.206 233.232C168.481 233.296 167.921 233.531 167.526 233.936C167.142 234.331 166.95 234.875 166.95 235.568V239.44C166.95 239.653 166.891 239.819 166.774 239.936C166.667 240.053 166.507 240.112 166.294 240.112ZM173.742 240.144C173.209 240.144 172.729 240.043 172.302 239.84C171.886 239.627 171.555 239.339 171.31 238.976C171.065 238.613 170.942 238.208 170.942 237.76C170.942 237.184 171.086 236.731 171.374 236.4C171.673 236.069 172.158 235.835 172.83 235.696C173.513 235.557 174.441 235.488 175.614 235.488H176.334V236.336H175.63C174.766 236.336 174.083 236.379 173.582 236.464C173.091 236.539 172.745 236.672 172.542 236.864C172.35 237.056 172.254 237.328 172.254 237.68C172.254 238.117 172.403 238.475 172.702 238.752C173.011 239.029 173.427 239.168 173.95 239.168C174.377 239.168 174.75 239.067 175.07 238.864C175.401 238.661 175.657 238.384 175.838 238.032C176.03 237.68 176.126 237.275 176.126 236.816V234.992C176.126 234.331 175.993 233.856 175.726 233.568C175.459 233.269 175.022 233.12 174.414 233.12C174.041 233.12 173.667 233.168 173.294 233.264C172.921 233.36 172.526 233.515 172.11 233.728C171.961 233.803 171.833 233.829 171.726 233.808C171.619 233.776 171.534 233.717 171.47 233.632C171.406 233.547 171.369 233.451 171.358 233.344C171.347 233.227 171.369 233.115 171.422 233.008C171.486 232.901 171.582 232.816 171.71 232.752C172.179 232.517 172.643 232.347 173.102 232.24C173.561 232.133 173.998 232.08 174.414 232.08C175.086 232.08 175.641 232.192 176.078 232.416C176.515 232.629 176.841 232.96 177.054 233.408C177.267 233.845 177.374 234.411 177.374 235.104V239.44C177.374 239.653 177.321 239.819 177.214 239.936C177.118 240.053 176.974 240.112 176.782 240.112C176.579 240.112 176.425 240.053 176.318 239.936C176.211 239.819 176.158 239.653 176.158 239.44V238.192H176.302C176.217 238.597 176.051 238.944 175.806 239.232C175.571 239.52 175.278 239.744 174.926 239.904C174.574 240.064 174.179 240.144 173.742 240.144Z" fill="white"/>
<rect x="1" y="277" width="358" height="46" rx="7" fill="#FD377E"/>
<path d="M159.534 293.864V305.5H157.778V293.864H159.534ZM163.653 300.318V305.5H161.955V296.773H163.585V298.193H163.693C163.894 297.731 164.208 297.36 164.636 297.08C165.068 296.799 165.612 296.659 166.267 296.659C166.862 296.659 167.383 296.784 167.83 297.034C168.277 297.28 168.623 297.648 168.869 298.136C169.116 298.625 169.239 299.229 169.239 299.949V305.5H167.54V300.153C167.54 299.521 167.375 299.027 167.045 298.67C166.716 298.311 166.263 298.131 165.688 298.131C165.294 298.131 164.943 298.216 164.636 298.386C164.333 298.557 164.093 298.807 163.915 299.136C163.741 299.462 163.653 299.856 163.653 300.318ZM171.517 305.5V296.773H173.216V305.5H171.517ZM172.375 295.426C172.08 295.426 171.826 295.328 171.614 295.131C171.405 294.93 171.301 294.691 171.301 294.415C171.301 294.134 171.405 293.896 171.614 293.699C171.826 293.498 172.08 293.398 172.375 293.398C172.67 293.398 172.922 293.498 173.131 293.699C173.343 293.896 173.449 294.134 173.449 294.415C173.449 294.691 173.343 294.93 173.131 295.131C172.922 295.328 172.67 295.426 172.375 295.426ZM179.178 305.676C178.333 305.676 177.606 305.485 176.996 305.102C176.39 304.716 175.924 304.184 175.598 303.506C175.272 302.828 175.109 302.051 175.109 301.176C175.109 300.29 175.276 299.508 175.609 298.83C175.943 298.148 176.412 297.616 177.018 297.233C177.625 296.85 178.339 296.659 179.161 296.659C179.823 296.659 180.414 296.782 180.933 297.028C181.452 297.271 181.871 297.612 182.189 298.051C182.511 298.491 182.702 299.004 182.763 299.591H181.109C181.018 299.182 180.81 298.83 180.484 298.534C180.162 298.239 179.731 298.091 179.189 298.091C178.715 298.091 178.301 298.216 177.945 298.466C177.592 298.712 177.318 299.064 177.121 299.523C176.924 299.977 176.825 300.515 176.825 301.136C176.825 301.773 176.922 302.322 177.115 302.784C177.308 303.246 177.581 303.604 177.933 303.858C178.289 304.112 178.708 304.239 179.189 304.239C179.511 304.239 179.803 304.18 180.064 304.062C180.329 303.941 180.551 303.769 180.729 303.545C180.911 303.322 181.037 303.053 181.109 302.739H182.763C182.702 303.303 182.518 303.807 182.212 304.25C181.905 304.693 181.494 305.042 180.979 305.295C180.467 305.549 179.867 305.676 179.178 305.676ZM184.58 305.5V296.773H186.278V305.5H184.58ZM185.438 295.426C185.142 295.426 184.888 295.328 184.676 295.131C184.468 294.93 184.364 294.691 184.364 294.415C184.364 294.134 184.468 293.896 184.676 293.699C184.888 293.498 185.142 293.398 185.438 293.398C185.733 293.398 185.985 293.498 186.193 293.699C186.405 293.896 186.511 294.134 186.511 294.415C186.511 294.691 186.405 294.93 186.193 295.131C185.985 295.328 185.733 295.426 185.438 295.426ZM191.104 305.693C190.551 305.693 190.051 305.591 189.604 305.386C189.157 305.178 188.803 304.877 188.541 304.483C188.284 304.089 188.155 303.606 188.155 303.034C188.155 302.542 188.25 302.136 188.439 301.818C188.628 301.5 188.884 301.248 189.206 301.062C189.528 300.877 189.888 300.737 190.286 300.642C190.683 300.547 191.089 300.475 191.501 300.426C192.024 300.366 192.448 300.316 192.774 300.278C193.1 300.237 193.337 300.17 193.484 300.08C193.632 299.989 193.706 299.841 193.706 299.636V299.597C193.706 299.1 193.566 298.716 193.286 298.443C193.009 298.17 192.596 298.034 192.047 298.034C191.475 298.034 191.024 298.161 190.695 298.415C190.369 298.665 190.143 298.943 190.018 299.25L188.422 298.886C188.611 298.356 188.888 297.928 189.251 297.602C189.619 297.273 190.041 297.034 190.518 296.886C190.996 296.735 191.498 296.659 192.024 296.659C192.373 296.659 192.742 296.701 193.132 296.784C193.526 296.864 193.893 297.011 194.234 297.227C194.579 297.443 194.861 297.752 195.081 298.153C195.301 298.551 195.411 299.068 195.411 299.705V305.5H193.751V304.307H193.683C193.573 304.527 193.409 304.742 193.189 304.955C192.969 305.167 192.687 305.343 192.342 305.483C191.998 305.623 191.585 305.693 191.104 305.693ZM191.473 304.33C191.943 304.33 192.344 304.237 192.678 304.051C193.015 303.866 193.27 303.623 193.445 303.324C193.623 303.021 193.712 302.697 193.712 302.352V301.227C193.651 301.288 193.534 301.345 193.359 301.398C193.189 301.447 192.994 301.491 192.774 301.528C192.554 301.562 192.34 301.595 192.132 301.625C191.924 301.652 191.75 301.674 191.609 301.693C191.28 301.735 190.979 301.805 190.706 301.903C190.437 302.002 190.221 302.144 190.058 302.33C189.899 302.511 189.82 302.754 189.82 303.057C189.82 303.477 189.975 303.795 190.286 304.011C190.596 304.223 190.992 304.33 191.473 304.33ZM197.673 305.5V296.773H199.315V298.159H199.406C199.565 297.689 199.846 297.32 200.247 297.051C200.652 296.778 201.111 296.642 201.622 296.642C201.728 296.642 201.853 296.646 201.997 296.653C202.145 296.661 202.26 296.67 202.344 296.682V298.307C202.276 298.288 202.154 298.267 201.98 298.244C201.806 298.218 201.632 298.205 201.457 298.205C201.056 298.205 200.698 298.29 200.384 298.46C200.073 298.627 199.827 298.86 199.645 299.159C199.463 299.455 199.372 299.792 199.372 300.17V305.5H197.673Z" fill="white"/>
<rect x="1" y="277" width="358" height="46" rx="7" stroke="#FD377E" stroke-width="2"/>
<path d="M14.092 0.858C14.7507 0.858 15.288 1.07467 15.704 1.508C16.1373 1.94133 16.354 2.50467 16.354 3.198V17.108C16.354 17.8187 16.146 18.3907 15.73 18.824C15.314 19.2573 14.7767 19.474 14.118 19.474C13.338 19.474 12.7487 19.214 12.35 18.694L4.446 8.84V17.108C4.446 17.8187 4.24667 18.3907 3.848 18.824C3.44933 19.2573 2.912 19.474 2.236 19.474C1.57733 19.474 1.04 19.2573 0.624 18.824C0.208 18.3907 0 17.8187 0 17.108V3.198C0 2.50467 0.208 1.94133 0.624 1.508C1.04 1.07467 1.57733 0.858 2.236 0.858C2.98133 0.858 3.562 1.118 3.978 1.638L11.882 11.466V3.198C11.882 2.48733 12.0813 1.924 12.48 1.508C12.896 1.07467 13.4333 0.858 14.092 0.858Z" fill="url(#paint0_linear_20672_306)"/>
<path d="M29.9477 6.266C30.6584 6.266 31.2217 6.45667 31.6377 6.838C32.0537 7.21933 32.2617 7.73933 32.2617 8.398V17.394C32.2617 18.0007 32.0451 18.5033 31.6117 18.902C31.1784 19.2833 30.6151 19.474 29.9217 19.474C29.2977 19.474 28.7864 19.3093 28.3877 18.98C27.9891 18.6333 27.7811 18.174 27.7637 17.602C27.3651 18.226 26.8537 18.7027 26.2297 19.032C25.6231 19.3613 24.9211 19.526 24.1237 19.526C22.4771 19.526 21.2551 19.0753 20.4577 18.174C19.6604 17.2553 19.2617 15.8687 19.2617 14.014V8.398C19.2617 7.73933 19.4697 7.21933 19.8857 6.838C20.3017 6.45667 20.8651 6.266 21.5757 6.266C22.2864 6.266 22.8497 6.45667 23.2657 6.838C23.6817 7.21933 23.8897 7.73933 23.8897 8.398V14.118C23.8897 15.366 24.4271 15.99 25.5017 15.99C26.1257 15.99 26.6371 15.7647 27.0357 15.314C27.4344 14.8633 27.6337 14.274 27.6337 13.546V8.398C27.6337 7.73933 27.8417 7.21933 28.2577 6.838C28.6737 6.45667 29.2371 6.266 29.9477 6.266Z" fill="url(#paint1_linear_20672_306)"/>
<path d="M58.177 15.73C58.6277 16.1633 58.853 16.666 58.853 17.238C58.853 17.81 58.6364 18.3127 58.203 18.746C57.7697 19.1793 57.2584 19.396 56.669 19.396C56.0277 19.396 55.4384 19.1187 54.901 18.564L47.491 10.972V17.108C47.491 17.836 47.2744 18.4167 46.841 18.85C46.4077 19.266 45.8184 19.474 45.073 19.474C44.345 19.474 43.7644 19.266 43.331 18.85C42.915 18.4167 42.707 17.836 42.707 17.108V3.198C42.707 2.48733 42.915 1.924 43.331 1.508C43.7644 1.07467 44.345 0.858 45.073 0.858C45.8184 0.858 46.4077 1.07467 46.841 1.508C47.2744 1.924 47.491 2.48733 47.491 3.198V8.918L54.797 1.56C55.2477 1.092 55.759 0.858 56.331 0.858C56.903 0.858 57.4057 1.07467 57.839 1.508C58.2724 1.924 58.489 2.418 58.489 2.99C58.489 3.562 58.2377 4.09067 57.735 4.576L52.405 9.802L58.177 15.73Z" fill="url(#paint2_linear_20672_306)"/>
<path d="M70.8224 15.21C71.221 15.21 71.5417 15.366 71.7844 15.678C72.0444 15.99 72.1744 16.3973 72.1744 16.9C72.1744 17.5933 71.8364 18.122 71.1604 18.486C70.571 18.7807 69.869 19.032 69.0544 19.24C68.257 19.4307 67.5204 19.526 66.8444 19.526C65.423 19.526 64.1837 19.2573 63.1264 18.72C62.069 18.1827 61.2544 17.4113 60.6824 16.406C60.1104 15.4007 59.8244 14.222 59.8244 12.87C59.8244 11.5873 60.093 10.4433 60.6304 9.438C61.185 8.41533 61.9477 7.62667 62.9184 7.072C63.9064 6.5 65.0157 6.214 66.2464 6.214C67.4424 6.214 68.491 6.474 69.3924 6.994C70.2937 7.514 70.987 8.25067 71.4724 9.204C71.975 10.1573 72.2264 11.2753 72.2264 12.558C72.2264 12.9567 72.131 13.2687 71.9404 13.494C71.767 13.702 71.507 13.806 71.1604 13.806H64.2964C64.4177 14.638 64.6864 15.236 65.1024 15.6C65.5184 15.964 66.1337 16.146 66.9484 16.146C67.3817 16.146 67.7804 16.1027 68.1444 16.016C68.5084 15.912 68.9157 15.7733 69.3664 15.6C69.6264 15.496 69.8777 15.4093 70.1204 15.34C70.3804 15.2533 70.6144 15.21 70.8224 15.21ZM66.3764 9.334C65.7697 9.334 65.2844 9.53333 64.9204 9.932C64.5564 10.3133 64.3397 10.8767 64.2704 11.622H68.3524C68.2484 10.0967 67.5897 9.334 66.3764 9.334Z" fill="url(#paint3_linear_20672_306)"/>
<path d="M82.9424 6.214C84.4678 6.214 85.6031 6.67333 86.3484 7.592C87.0938 8.49333 87.4664 9.87133 87.4664 11.726V17.342C87.4664 18.0007 87.2584 18.5207 86.8424 18.902C86.4264 19.2833 85.8631 19.474 85.1524 19.474C84.4418 19.474 83.8784 19.2833 83.4624 18.902C83.0464 18.5207 82.8384 18.0007 82.8384 17.342V11.934C82.8384 11.1713 82.6998 10.6167 82.4224 10.27C82.1624 9.92333 81.7638 9.75 81.2264 9.75C80.5331 9.75 79.9784 9.97533 79.5624 10.426C79.1638 10.8593 78.9644 11.4487 78.9644 12.194V17.342C78.9644 18.0007 78.7564 18.5207 78.3404 18.902C77.9244 19.2833 77.3611 19.474 76.6504 19.474C75.9398 19.474 75.3764 19.2833 74.9604 18.902C74.5444 18.5207 74.3364 18.0007 74.3364 17.342V8.346C74.3364 7.73933 74.5531 7.24533 74.9864 6.864C75.4198 6.46533 75.9831 6.266 76.6764 6.266C77.3351 6.266 77.8551 6.448 78.2364 6.812C78.6351 7.176 78.8344 7.65267 78.8344 8.242C79.2851 7.58333 79.8658 7.08067 80.5764 6.734C81.2871 6.38733 82.0758 6.214 82.9424 6.214Z" fill="url(#paint4_linear_20672_306)"/>
<path d="M99.7766 15.912C101.163 15.912 101.857 16.4753 101.857 17.602C101.857 18.746 101.163 19.318 99.7766 19.318H91.5866C90.98 19.318 90.486 19.1273 90.1046 18.746C89.7233 18.3647 89.5326 17.9053 89.5326 17.368C89.5326 16.796 89.7493 16.2673 90.1826 15.782L95.6426 9.932H91.4566C90.07 9.932 89.3766 9.36 89.3766 8.216C89.3766 7.08933 90.07 6.526 91.4566 6.526H99.3346C99.9413 6.526 100.435 6.71667 100.817 7.098C101.198 7.47933 101.389 7.93867 101.389 8.476C101.389 9.03067 101.172 9.55067 100.739 10.036L95.2526 15.912H99.7766Z" fill="url(#paint5_linear_20672_306)"/>
<path d="M105.875 19.474C105.216 19.474 104.662 19.3007 104.211 18.954C103.778 18.59 103.561 18.0527 103.561 17.342V8.398C103.561 7.68733 103.778 7.15867 104.211 6.812C104.662 6.448 105.216 6.266 105.875 6.266C106.534 6.266 107.08 6.448 107.513 6.812C107.964 7.15867 108.189 7.68733 108.189 8.398V17.342C108.189 18.0527 107.964 18.59 107.513 18.954C107.08 19.3007 106.534 19.474 105.875 19.474ZM105.875 4.446C105.095 4.446 104.471 4.24667 104.003 3.848C103.552 3.432 103.327 2.886 103.327 2.21C103.327 1.534 103.552 0.996667 104.003 0.598C104.471 0.199333 105.095 0 105.875 0C106.638 0 107.253 0.199333 107.721 0.598C108.189 0.996667 108.423 1.534 108.423 2.21C108.423 2.886 108.189 3.432 107.721 3.848C107.27 4.24667 106.655 4.446 105.875 4.446Z" fill="url(#paint6_linear_20672_306)"/>
<path d="M121.274 15.21C121.672 15.21 121.993 15.366 122.236 15.678C122.496 15.99 122.626 16.3973 122.626 16.9C122.626 17.5933 122.288 18.122 121.612 18.486C121.022 18.7807 120.32 19.032 119.506 19.24C118.708 19.4307 117.972 19.526 117.296 19.526C115.874 19.526 114.635 19.2573 113.578 18.72C112.52 18.1827 111.706 17.4113 111.134 16.406C110.562 15.4007 110.276 14.222 110.276 12.87C110.276 11.5873 110.544 10.4433 111.082 9.438C111.636 8.41533 112.399 7.62667 113.37 7.072C114.358 6.5 115.467 6.214 116.698 6.214C117.894 6.214 118.942 6.474 119.844 6.994C120.745 7.514 121.438 8.25067 121.924 9.204C122.426 10.1573 122.678 11.2753 122.678 12.558C122.678 12.9567 122.582 13.2687 122.392 13.494C122.218 13.702 121.958 13.806 121.612 13.806H114.748C114.869 14.638 115.138 15.236 115.554 15.6C115.97 15.964 116.585 16.146 117.4 16.146C117.833 16.146 118.232 16.1027 118.596 16.016C118.96 15.912 119.367 15.7733 119.818 15.6C120.078 15.496 120.329 15.4093 120.572 15.34C120.832 15.2533 121.066 15.21 121.274 15.21ZM116.828 9.334C116.221 9.334 115.736 9.53333 115.372 9.932C115.008 10.3133 114.791 10.8767 114.722 11.622H118.804C118.7 10.0967 118.041 9.334 116.828 9.334Z" fill="url(#paint7_linear_20672_306)"/>
<defs>
<filter id="filter0_d_20672_306" x="108.31" y="495.045" width="189.615" height="94.0847" filterUnits="userSpaceOnUse" color-interpolation-filters="sRGB">
<feFlood flood-opacity="0" result="BackgroundImageFix"/>
<feColorMatrix in="SourceAlpha" type="matrix" values="0 0 0 0 0 0 0 0 0 0 0 0 0 0 0 0 0 0 127 0" result="hardAlpha"/>
<feOffset dy="2.67961"/>
<feGaussianBlur stdDeviation="13.3981"/>
<feComposite in2="hardAlpha" operator="out"/>
<feColorMatrix type="matrix" values="0 0 0 0 0 0 0 0 0 0 0 0 0 0 0 0 0 0 0.25 0"/>
<feBlend mode="normal" in2="BackgroundImageFix" result="effect1_dropShadow_20672_306"/>
<feBlend mode="normal" in="SourceGraphic" in2="effect1_dropShadow_20672_306" result="shape"/>
</filter>
<filter id="filter1_d_20672_306" x="17.603" y="446.139" width="256.256" height="127.151" filterUnits="userSpaceOnUse" color-interpolation-filters="sRGB">
<feFlood flood-opacity="0" result="BackgroundImageFix"/>
<feColorMatrix in="SourceAlpha" type="matrix" values="0 0 0 0 0 0 0 0 0 0 0 0 0 0 0 0 0 0 127 0" result="hardAlpha"/>
<feOffset dy="3.62137"/>
<feGaussianBlur stdDeviation="18.1069"/>
<feComposite in2="hardAlpha" operator="out"/>
<feColorMatrix type="matrix" values="0 0 0 0 0 0 0 0 0 0 0 0 0 0 0 0 0 0 0.25 0"/>
<feBlend mode="normal" in2="BackgroundImageFix" result="effect1_dropShadow_20672_306"/>
<feBlend mode="normal" in="SourceGraphic" in2="effect1_dropShadow_20672_306" result="shape"/>
</filter>
<linearGradient id="paint0_linear_20672_306" x1="35.3857" y1="19.318" x2="35.8857" y2="19.318" gradientUnits="userSpaceOnUse">
<stop stop-color="#FD377E"/>
<stop offset="1" stop-color="white"/>
</linearGradient>
<linearGradient id="paint1_linear_20672_306" x1="35.3857" y1="19.318" x2="35.8857" y2="19.318" gradientUnits="userSpaceOnUse">
<stop stop-color="#FD377E"/>
<stop offset="1" stop-color="white"/>
</linearGradient>
<linearGradient id="paint2_linear_20672_306" x1="35.3857" y1="19.318" x2="35.8857" y2="19.318" gradientUnits="userSpaceOnUse">
<stop stop-color="#FD377E"/>
<stop offset="1" stop-color="white"/>
</linearGradient>
<linearGradient id="paint3_linear_20672_306" x1="35.3857" y1="19.318" x2="35.8857" y2="19.318" gradientUnits="userSpaceOnUse">
<stop stop-color="#FD377E"/>
<stop offset="1" stop-color="white"/>
</linearGradient>
<linearGradient id="paint4_linear_20672_306" x1="35.3857" y1="19.318" x2="35.8857" y2="19.318" gradientUnits="userSpaceOnUse">
<stop stop-color="#FD377E"/>
<stop offset="1" stop-color="white"/>
</linearGradient>
<linearGradient id="paint5_linear_20672_306" x1="35.3857" y1="19.318" x2="35.8857" y2="19.318" gradientUnits="userSpaceOnUse">
<stop stop-color="#FD377E"/>
<stop offset="1" stop-color="white"/>
</linearGradient>
<linearGradient id="paint6_linear_20672_306" x1="35.3857" y1="19.318" x2="35.8857" y2="19.318" gradientUnits="userSpaceOnUse">
<stop stop-color="#FD377E"/>
<stop offset="1" stop-color="white"/>
</linearGradient>
<linearGradient id="paint7_linear_20672_306" x1="35.3857" y1="19.318" x2="35.8857" y2="19.318" gradientUnits="userSpaceOnUse">
<stop stop-color="#FD377E"/>
<stop offset="1" stop-color="white"/>
</linearGradient>
<clipPath id="clip0_20672_306">
<rect width="9.43513" height="9.43513" fill="white" transform="translate(149.259 534.887)"/>
</clipPath>
<clipPath id="clip1_20672_306">
<rect width="12.7511" height="12.7511" fill="white" transform="translate(72.9435 499.983)"/>
</clipPath>
</defs>
</svg>
