<svg width="988" height="593" viewBox="0 0 988 593" fill="none" xmlns="http://www.w3.org/2000/svg">
<circle cx="691.5" cy="296.5" r="296.5" fill="#E064CC" fill-opacity="0.05"/>
<circle cx="691.5" cy="296.5" r="258.476" fill="#E064CC" fill-opacity="0.05"/>
<circle cx="688.784" cy="296.5" r="212.303" fill="#E064CC" fill-opacity="0.05"/>
<rect x="569.731" y="104.115" width="256.212" height="354.895" rx="3.62137" fill="white"/>
<rect x="595" y="194" width="206" height="36" rx="1.81069" fill="#F3F3F3"/>
<rect x="595" y="245" width="206" height="36" rx="1.81069" fill="#F3F3F3"/>
<rect x="595" y="143" width="206" height="36" rx="1.81069" fill="#F3F3F3"/>
<rect x="595" y="347" width="206" height="36" rx="1.81069" fill="#F3F3F3"/>
<rect x="595" y="398" width="206" height="36" rx="1.81069" fill="#F3F3F3"/>
<rect x="595" y="296" width="206" height="36" rx="1.81069" fill="#F3F3F3"/>
<rect x="592" y="240.35" width="52.5099" height="15.3908" rx="1.81069" fill="#FCEFFA"/>
<g filter="url(#filter0_d_123_980)">
<rect x="615" y="307" width="231.786" height="69" rx="2.67961" fill="white"/>
</g>
<rect x="625.049" y="320.398" width="44.8835" height="42.8738" rx="2.67961" fill="#66C085"/>
<rect x="678.641" y="320.398" width="152.738" height="11.3883" rx="1.33981" fill="#66C085" fill-opacity="0.11"/>
<rect x="678.641" y="339.155" width="38.8544" height="11.3883" rx="1.33981" fill="#66C085" fill-opacity="0.11"/>
<g clip-path="url(#clip0_123_980)">
<path d="M653.184 336.476H641.126C640.386 336.476 639.786 337.076 639.786 337.816V345.854C639.786 346.594 640.386 347.194 641.126 347.194H653.184C653.924 347.194 654.524 346.594 654.524 345.854V337.816C654.524 337.076 653.924 336.476 653.184 336.476Z" stroke="white" stroke-width="1.33981" stroke-linecap="round" stroke-linejoin="round"/>
<path d="M639.786 340.495H654.524" stroke="white" stroke-width="1.33981" stroke-linecap="round" stroke-linejoin="round"/>
</g>
<g filter="url(#filter1_d_123_980)">
<rect x="476.481" y="238.105" width="313.249" height="93.2504" rx="3.62137" fill="white"/>
</g>
<rect x="490.061" y="256.212" width="60.658" height="57.942" rx="3.62137" fill="#FD377E"/>
<rect x="562.489" y="256.212" width="206.418" height="15.3908" rx="1.81069" fill="#FCEFFA"/>
<rect x="562.489" y="281.562" width="52.5099" height="15.3908" rx="1.81069" fill="#FCEFFA"/>
<g clip-path="url(#clip1_123_980)">
<path d="M528.086 277.94H511.789C510.789 277.94 509.979 278.751 509.979 279.751V290.615C509.979 291.615 510.789 292.426 511.789 292.426H528.086C529.086 292.426 529.896 291.615 529.896 290.615V279.751C529.896 278.751 529.086 277.94 528.086 277.94Z" stroke="white" stroke-width="1.81069" stroke-linecap="round" stroke-linejoin="round"/>
<path d="M509.979 283.373H529.896" stroke="white" stroke-width="1.81069" stroke-linecap="round" stroke-linejoin="round"/>
</g>
<circle cx="780" cy="119" r="3" fill="#FD377E"/>
<circle cx="795" cy="119" r="3" fill="#66C085"/>
<circle cx="810" cy="119" r="3" fill="black"/>
<path d="M15.694 207.418C12.806 207.418 10.336 206.848 8.284 205.708C6.232 204.568 4.64867 202.972 3.534 200.92C2.44467 198.843 1.9 196.398 1.9 193.586C1.9 191.483 2.204 189.596 2.812 187.924C3.44533 186.227 4.35733 184.783 5.548 183.592C6.73867 182.376 8.18267 181.439 9.88 180.78C11.6027 180.121 13.5407 179.792 15.694 179.792C16.9607 179.792 18.24 179.957 19.532 180.286C20.8493 180.59 21.9893 181.033 22.952 181.616C23.5853 181.971 24.016 182.414 24.244 182.946C24.472 183.478 24.5353 184.01 24.434 184.542C24.358 185.074 24.1427 185.53 23.788 185.91C23.4587 186.29 23.0407 186.531 22.534 186.632C22.0273 186.733 21.4573 186.619 20.824 186.29C20.064 185.834 19.266 185.505 18.43 185.302C17.594 185.099 16.7453 184.998 15.884 184.998C14.1867 184.998 12.7553 185.34 11.59 186.024C10.45 186.683 9.58867 187.645 9.006 188.912C8.42333 190.179 8.132 191.737 8.132 193.586C8.132 195.41 8.42333 196.968 9.006 198.26C9.58867 199.552 10.45 200.54 11.59 201.224C12.7553 201.883 14.1867 202.212 15.884 202.212C16.6947 202.212 17.518 202.111 18.354 201.908C19.2153 201.705 20.0387 201.389 20.824 200.958C21.4827 200.629 22.0653 200.515 22.572 200.616C23.104 200.692 23.5347 200.92 23.864 201.3C24.2187 201.655 24.434 202.085 24.51 202.592C24.6113 203.099 24.5607 203.605 24.358 204.112C24.1553 204.619 23.7753 205.049 23.218 205.404C22.2807 206.037 21.128 206.531 19.76 206.886C18.392 207.241 17.0367 207.418 15.694 207.418ZM36.5346 207.418C34.3306 207.418 32.4306 207.025 30.8346 206.24C29.264 205.429 28.048 204.302 27.1866 202.858C26.3506 201.389 25.9326 199.666 25.9326 197.69C25.9326 195.765 26.338 194.08 27.1486 192.636C27.9593 191.167 29.0866 190.027 30.5306 189.216C32 188.38 33.6593 187.962 35.5086 187.962C36.8513 187.962 38.0673 188.19 39.1566 188.646C40.246 189.077 41.1833 189.71 41.9686 190.546C42.754 191.357 43.3493 192.357 43.7546 193.548C44.16 194.713 44.3626 196.018 44.3626 197.462C44.3626 197.943 44.2106 198.311 43.9066 198.564C43.6026 198.792 43.1593 198.906 42.5766 198.906H30.6446V195.942H40.2206L39.6126 196.474C39.6126 195.435 39.4606 194.574 39.1566 193.89C38.8526 193.181 38.4093 192.649 37.8266 192.294C37.2693 191.939 36.5726 191.762 35.7366 191.762C34.7993 191.762 34.0013 191.977 33.3426 192.408C32.684 192.839 32.1773 193.459 31.8226 194.27C31.468 195.081 31.2906 196.056 31.2906 197.196V197.5C31.2906 199.425 31.734 200.844 32.6206 201.756C33.5326 202.668 34.8753 203.124 36.6486 203.124C37.2566 203.124 37.9533 203.048 38.7386 202.896C39.524 202.744 40.2586 202.503 40.9426 202.174C41.5253 201.895 42.0446 201.807 42.5006 201.908C42.9566 201.984 43.3113 202.187 43.5646 202.516C43.818 202.845 43.9573 203.225 43.9826 203.656C44.0333 204.087 43.9446 204.517 43.7166 204.948C43.4886 205.353 43.1086 205.695 42.5766 205.974C41.7153 206.455 40.74 206.81 39.6506 207.038C38.5866 207.291 37.548 207.418 36.5346 207.418ZM50.5881 207.342C49.6508 207.342 48.9288 207.089 48.4221 206.582C47.9408 206.075 47.7001 205.353 47.7001 204.416V190.926C47.7001 189.989 47.9408 189.279 48.4221 188.798C48.9288 188.291 49.6254 188.038 50.5121 188.038C51.4241 188.038 52.1208 188.291 52.6021 188.798C53.0834 189.279 53.3241 189.989 53.3241 190.926V193.092L52.9061 191.838C53.4888 190.597 54.3501 189.647 55.4901 188.988C56.6554 188.304 57.9728 187.962 59.4421 187.962C60.9368 187.962 62.1654 188.253 63.1281 188.836C64.0908 189.393 64.8128 190.255 65.2941 191.42C65.7754 192.56 66.0161 194.017 66.0161 195.79V204.416C66.0161 205.353 65.7628 206.075 65.2561 206.582C64.7748 207.089 64.0654 207.342 63.1281 207.342C62.2161 207.342 61.5068 207.089 61.0001 206.582C60.5188 206.075 60.2781 205.353 60.2781 204.416V196.056C60.2781 194.764 60.0374 193.839 59.5561 193.282C59.1001 192.699 58.3908 192.408 57.4281 192.408C56.2121 192.408 55.2368 192.788 54.5021 193.548C53.7928 194.308 53.4381 195.321 53.4381 196.588V204.416C53.4381 206.367 52.4881 207.342 50.5881 207.342ZM79.4577 207.418C77.7097 207.418 76.2404 207.127 75.0497 206.544C73.8844 205.961 73.0104 205.113 72.4277 203.998C71.8704 202.883 71.5917 201.477 71.5917 199.78V192.636H69.9957C69.2864 192.636 68.729 192.446 68.3237 192.066C67.9437 191.686 67.7537 191.167 67.7537 190.508C67.7537 189.799 67.9437 189.267 68.3237 188.912C68.729 188.532 69.2864 188.342 69.9957 188.342H71.5917V185.454C71.5917 184.491 71.845 183.769 72.3517 183.288C72.8584 182.781 73.5677 182.528 74.4797 182.528C75.417 182.528 76.1264 182.781 76.6077 183.288C77.089 183.769 77.3297 184.491 77.3297 185.454V188.342H80.9397C81.649 188.342 82.1937 188.532 82.5737 188.912C82.9537 189.267 83.1437 189.799 83.1437 190.508C83.1437 191.167 82.9537 191.686 82.5737 192.066C82.1937 192.446 81.649 192.636 80.9397 192.636H77.3297V199.552C77.3297 200.616 77.5704 201.414 78.0517 201.946C78.5584 202.478 79.3564 202.744 80.4457 202.744C80.8257 202.744 81.1804 202.706 81.5097 202.63C81.839 202.554 82.143 202.503 82.4217 202.478C82.7764 202.453 83.0677 202.567 83.2957 202.82C83.5237 203.048 83.6377 203.567 83.6377 204.378C83.6377 204.986 83.5364 205.518 83.3337 205.974C83.131 206.43 82.7764 206.759 82.2697 206.962C81.9404 207.089 81.4844 207.19 80.9017 207.266C80.3444 207.367 79.863 207.418 79.4577 207.418ZM88.627 207.342C87.6643 207.342 86.9297 207.089 86.423 206.582C85.9163 206.075 85.663 205.353 85.663 204.416V190.926C85.663 189.989 85.9037 189.279 86.385 188.798C86.8917 188.291 87.5883 188.038 88.475 188.038C89.387 188.038 90.0837 188.291 90.565 188.798C91.0463 189.279 91.287 189.989 91.287 190.926V192.902H90.907C91.211 191.382 91.8823 190.204 92.921 189.368C93.9597 188.532 95.3023 188.063 96.949 187.962C97.5823 187.911 98.0637 188.076 98.393 188.456C98.7477 188.811 98.9377 189.406 98.963 190.242C99.0137 191.027 98.849 191.648 98.469 192.104C98.1143 192.56 97.5063 192.839 96.645 192.94L95.771 193.016C94.327 193.143 93.2503 193.561 92.541 194.27C91.857 194.979 91.515 196.005 91.515 197.348V204.416C91.515 205.353 91.2617 206.075 90.755 206.582C90.2737 207.089 89.5643 207.342 88.627 207.342ZM107.446 207.418C106.078 207.418 104.849 207.152 103.76 206.62C102.67 206.088 101.822 205.366 101.214 204.454C100.606 203.542 100.302 202.516 100.302 201.376C100.302 200.008 100.656 198.931 101.366 198.146C102.075 197.335 103.228 196.765 104.824 196.436C106.42 196.081 108.535 195.904 111.17 195.904H113.184V198.868H111.208C109.916 198.868 108.864 198.944 108.054 199.096C107.268 199.223 106.698 199.451 106.344 199.78C106.014 200.109 105.85 200.565 105.85 201.148C105.85 201.857 106.09 202.44 106.572 202.896C107.078 203.352 107.8 203.58 108.738 203.58C109.472 203.58 110.118 203.415 110.676 203.086C111.258 202.731 111.714 202.263 112.044 201.68C112.373 201.072 112.538 200.388 112.538 199.628V195.258C112.538 194.143 112.284 193.358 111.778 192.902C111.271 192.421 110.41 192.18 109.194 192.18C108.51 192.18 107.762 192.269 106.952 192.446C106.166 192.598 105.292 192.864 104.33 193.244C103.772 193.497 103.278 193.561 102.848 193.434C102.417 193.282 102.088 193.029 101.86 192.674C101.632 192.294 101.518 191.889 101.518 191.458C101.518 191.002 101.644 190.571 101.898 190.166C102.151 189.735 102.569 189.419 103.152 189.216C104.342 188.735 105.457 188.405 106.496 188.228C107.56 188.051 108.535 187.962 109.422 187.962C111.372 187.962 112.968 188.253 114.21 188.836C115.476 189.393 116.426 190.267 117.06 191.458C117.693 192.623 118.01 194.131 118.01 195.98V204.416C118.01 205.353 117.782 206.075 117.326 206.582C116.87 207.089 116.211 207.342 115.35 207.342C114.488 207.342 113.817 207.089 113.336 206.582C112.88 206.075 112.652 205.353 112.652 204.416V203.01L112.918 203.238C112.766 204.099 112.436 204.847 111.93 205.48C111.448 206.088 110.828 206.569 110.068 206.924C109.308 207.253 108.434 207.418 107.446 207.418ZM129.016 207.418C126.761 207.418 125.077 206.797 123.962 205.556C122.847 204.289 122.29 202.415 122.29 199.932V182.794C122.29 181.831 122.531 181.109 123.012 180.628C123.519 180.121 124.241 179.868 125.178 179.868C126.09 179.868 126.787 180.121 127.268 180.628C127.775 181.109 128.028 181.831 128.028 182.794V199.704C128.028 200.743 128.243 201.515 128.674 202.022C129.13 202.503 129.725 202.744 130.46 202.744C130.663 202.744 130.853 202.731 131.03 202.706C131.207 202.681 131.397 202.668 131.6 202.668C132.005 202.617 132.284 202.744 132.436 203.048C132.613 203.327 132.702 203.897 132.702 204.758C132.702 205.518 132.55 206.101 132.246 206.506C131.942 206.886 131.473 207.139 130.84 207.266C130.587 207.291 130.295 207.317 129.966 207.342C129.637 207.393 129.32 207.418 129.016 207.418ZM137.832 207.304C136.895 207.304 136.173 207.038 135.666 206.506C135.185 205.949 134.944 205.176 134.944 204.188V191.192C134.944 190.179 135.185 189.406 135.666 188.874C136.173 188.317 136.895 188.038 137.832 188.038C138.744 188.038 139.441 188.317 139.922 188.874C140.429 189.406 140.682 190.179 140.682 191.192V204.188C140.682 205.176 140.442 205.949 139.96 206.506C139.479 207.038 138.77 207.304 137.832 207.304ZM137.832 184.922C136.768 184.922 135.945 184.681 135.362 184.2C134.805 183.693 134.526 182.984 134.526 182.072C134.526 181.135 134.805 180.425 135.362 179.944C135.945 179.437 136.768 179.184 137.832 179.184C138.896 179.184 139.707 179.437 140.264 179.944C140.822 180.425 141.1 181.135 141.1 182.072C141.1 182.984 140.822 183.693 140.264 184.2C139.707 184.681 138.896 184.922 137.832 184.922ZM146.708 207C146.151 207 145.682 206.861 145.302 206.582C144.922 206.278 144.669 205.898 144.542 205.442C144.416 204.986 144.416 204.492 144.542 203.96C144.694 203.428 144.986 202.934 145.416 202.478L154.726 191.306V192.636H146.48C145.796 192.636 145.264 192.446 144.884 192.066C144.504 191.686 144.314 191.167 144.314 190.508C144.314 189.799 144.504 189.267 144.884 188.912C145.264 188.532 145.796 188.342 146.48 188.342H157.462C158.146 188.342 158.691 188.494 159.096 188.798C159.502 189.102 159.768 189.482 159.894 189.938C160.046 190.369 160.059 190.85 159.932 191.382C159.831 191.889 159.565 192.37 159.134 192.826L149.596 204.226V202.744H158.412C159.856 202.744 160.578 203.453 160.578 204.872C160.578 205.556 160.388 206.088 160.008 206.468C159.628 206.823 159.096 207 158.412 207H146.708ZM172.689 207.418C170.485 207.418 168.585 207.025 166.989 206.24C165.418 205.429 164.202 204.302 163.341 202.858C162.505 201.389 162.087 199.666 162.087 197.69C162.087 195.765 162.492 194.08 163.303 192.636C164.114 191.167 165.241 190.027 166.685 189.216C168.154 188.38 169.814 187.962 171.663 187.962C173.006 187.962 174.222 188.19 175.311 188.646C176.4 189.077 177.338 189.71 178.123 190.546C178.908 191.357 179.504 192.357 179.909 193.548C180.314 194.713 180.517 196.018 180.517 197.462C180.517 197.943 180.365 198.311 180.061 198.564C179.757 198.792 179.314 198.906 178.731 198.906H166.799V195.942H176.375L175.767 196.474C175.767 195.435 175.615 194.574 175.311 193.89C175.007 193.181 174.564 192.649 173.981 192.294C173.424 191.939 172.727 191.762 171.891 191.762C170.954 191.762 170.156 191.977 169.497 192.408C168.838 192.839 168.332 193.459 167.977 194.27C167.622 195.081 167.445 196.056 167.445 197.196V197.5C167.445 199.425 167.888 200.844 168.775 201.756C169.687 202.668 171.03 203.124 172.803 203.124C173.411 203.124 174.108 203.048 174.893 202.896C175.678 202.744 176.413 202.503 177.097 202.174C177.68 201.895 178.199 201.807 178.655 201.908C179.111 201.984 179.466 202.187 179.719 202.516C179.972 202.845 180.112 203.225 180.137 203.656C180.188 204.087 180.099 204.517 179.871 204.948C179.643 205.353 179.263 205.695 178.731 205.974C177.87 206.455 176.894 206.81 175.805 207.038C174.741 207.291 173.702 207.418 172.689 207.418ZM203.436 207.418C201.434 207.418 199.686 207.025 198.192 206.24C196.722 205.455 195.582 204.327 194.772 202.858C193.961 201.389 193.556 199.653 193.556 197.652C193.556 196.157 193.784 194.815 194.24 193.624C194.696 192.433 195.354 191.42 196.216 190.584C197.102 189.723 198.154 189.077 199.37 188.646C200.586 188.19 201.941 187.962 203.436 187.962C205.437 187.962 207.172 188.355 208.642 189.14C210.136 189.925 211.289 191.04 212.1 192.484C212.936 193.928 213.354 195.651 213.354 197.652C213.354 199.172 213.113 200.527 212.632 201.718C212.176 202.909 211.517 203.935 210.656 204.796C209.794 205.657 208.743 206.316 207.502 206.772C206.286 207.203 204.93 207.418 203.436 207.418ZM203.436 203.124C204.272 203.124 204.994 202.921 205.602 202.516C206.21 202.111 206.691 201.515 207.046 200.73C207.4 199.919 207.578 198.893 207.578 197.652C207.578 195.803 207.198 194.447 206.438 193.586C205.678 192.699 204.677 192.256 203.436 192.256C202.625 192.256 201.903 192.446 201.27 192.826C200.662 193.206 200.18 193.801 199.826 194.612C199.496 195.397 199.332 196.411 199.332 197.652C199.332 199.501 199.712 200.882 200.472 201.794C201.232 202.681 202.22 203.124 203.436 203.124ZM11.286 255.418C9.25933 255.418 7.486 255.025 5.966 254.24C4.47133 253.429 3.31867 252.289 2.508 250.82C1.69733 249.351 1.292 247.615 1.292 245.614C1.292 244.119 1.52 242.777 1.976 241.586C2.432 240.395 3.09067 239.382 3.952 238.546C4.83867 237.71 5.90267 237.077 7.144 236.646C8.38533 236.19 9.766 235.962 11.286 235.962C12.0713 235.962 12.9073 236.063 13.794 236.266C14.6807 236.443 15.5547 236.76 16.416 237.216C16.9227 237.444 17.2647 237.773 17.442 238.204C17.6447 238.609 17.7207 239.04 17.67 239.496C17.6193 239.927 17.4547 240.319 17.176 240.674C16.9227 241.003 16.5933 241.231 16.188 241.358C15.7827 241.459 15.3267 241.383 14.82 241.13C14.3387 240.851 13.832 240.649 13.3 240.522C12.7933 240.395 12.312 240.332 11.856 240.332C11.096 240.332 10.4247 240.459 9.842 240.712C9.25933 240.94 8.76533 241.282 8.36 241.738C7.98 242.169 7.676 242.713 7.448 243.372C7.24533 244.031 7.144 244.791 7.144 245.652C7.144 247.324 7.54933 248.641 8.36 249.604C9.196 250.541 10.3613 251.01 11.856 251.01C12.312 251.01 12.7933 250.959 13.3 250.858C13.8067 250.731 14.3133 250.529 14.82 250.25C15.3267 249.997 15.7827 249.933 16.188 250.06C16.5933 250.187 16.91 250.427 17.138 250.782C17.3913 251.111 17.5307 251.504 17.556 251.96C17.6067 252.391 17.5307 252.821 17.328 253.252C17.1507 253.657 16.8213 253.974 16.34 254.202C15.4787 254.633 14.6173 254.937 13.756 255.114C12.8947 255.317 12.0713 255.418 11.286 255.418ZM28.9474 255.418C26.9461 255.418 25.1981 255.025 23.7034 254.24C22.2341 253.455 21.0941 252.327 20.2834 250.858C19.4727 249.389 19.0674 247.653 19.0674 245.652C19.0674 244.157 19.2954 242.815 19.7514 241.624C20.2074 240.433 20.8661 239.42 21.7274 238.584C22.6141 237.723 23.6654 237.077 24.8814 236.646C26.0974 236.19 27.4527 235.962 28.9474 235.962C30.9487 235.962 32.6841 236.355 34.1534 237.14C35.6481 237.925 36.8007 239.04 37.6114 240.484C38.4474 241.928 38.8654 243.651 38.8654 245.652C38.8654 247.172 38.6247 248.527 38.1434 249.718C37.6874 250.909 37.0287 251.935 36.1674 252.796C35.3061 253.657 34.2547 254.316 33.0134 254.772C31.7974 255.203 30.4421 255.418 28.9474 255.418ZM28.9474 251.124C29.7834 251.124 30.5054 250.921 31.1134 250.516C31.7214 250.111 32.2027 249.515 32.5574 248.73C32.9121 247.919 33.0894 246.893 33.0894 245.652C33.0894 243.803 32.7094 242.447 31.9494 241.586C31.1894 240.699 30.1887 240.256 28.9474 240.256C28.1367 240.256 27.4147 240.446 26.7814 240.826C26.1734 241.206 25.6921 241.801 25.3374 242.612C25.0081 243.397 24.8434 244.411 24.8434 245.652C24.8434 247.501 25.2234 248.882 25.9834 249.794C26.7434 250.681 27.7314 251.124 28.9474 251.124ZM45.2443 255.342C44.307 255.342 43.585 255.089 43.0783 254.582C42.597 254.075 42.3563 253.353 42.3563 252.416V238.926C42.3563 237.989 42.597 237.279 43.0783 236.798C43.585 236.291 44.2817 236.038 45.1683 236.038C46.0803 236.038 46.777 236.291 47.2583 236.798C47.7397 237.279 47.9803 237.989 47.9803 238.926V241.092L47.5623 239.838C48.145 238.597 49.0063 237.647 50.1463 236.988C51.3117 236.304 52.629 235.962 54.0983 235.962C55.593 235.962 56.8217 236.253 57.7843 236.836C58.747 237.393 59.469 238.255 59.9503 239.42C60.4317 240.56 60.6723 242.017 60.6723 243.79V252.416C60.6723 253.353 60.419 254.075 59.9123 254.582C59.431 255.089 58.7217 255.342 57.7843 255.342C56.8723 255.342 56.163 255.089 55.6563 254.582C55.175 254.075 54.9343 253.353 54.9343 252.416V244.056C54.9343 242.764 54.6937 241.839 54.2123 241.282C53.7563 240.699 53.047 240.408 52.0843 240.408C50.8683 240.408 49.893 240.788 49.1583 241.548C48.449 242.308 48.0943 243.321 48.0943 244.588V252.416C48.0943 254.367 47.1443 255.342 45.2443 255.342ZM74.114 255.418C72.366 255.418 70.8966 255.127 69.706 254.544C68.5406 253.961 67.6666 253.113 67.084 251.998C66.5266 250.883 66.248 249.477 66.248 247.78V240.636H64.652C63.9426 240.636 63.3853 240.446 62.98 240.066C62.6 239.686 62.41 239.167 62.41 238.508C62.41 237.799 62.6 237.267 62.98 236.912C63.3853 236.532 63.9426 236.342 64.652 236.342H66.248V233.454C66.248 232.491 66.5013 231.769 67.008 231.288C67.5146 230.781 68.224 230.528 69.136 230.528C70.0733 230.528 70.7826 230.781 71.264 231.288C71.7453 231.769 71.986 232.491 71.986 233.454V236.342H75.596C76.3053 236.342 76.85 236.532 77.23 236.912C77.61 237.267 77.8 237.799 77.8 238.508C77.8 239.167 77.61 239.686 77.23 240.066C76.85 240.446 76.3053 240.636 75.596 240.636H71.986V247.552C71.986 248.616 72.2266 249.414 72.708 249.946C73.2146 250.478 74.0126 250.744 75.102 250.744C75.482 250.744 75.8366 250.706 76.166 250.63C76.4953 250.554 76.7993 250.503 77.078 250.478C77.4326 250.453 77.724 250.567 77.952 250.82C78.18 251.048 78.294 251.567 78.294 252.378C78.294 252.986 78.1926 253.518 77.99 253.974C77.7873 254.43 77.4326 254.759 76.926 254.962C76.5966 255.089 76.1406 255.19 75.558 255.266C75.0006 255.367 74.5193 255.418 74.114 255.418ZM83.2832 255.342C82.3206 255.342 81.5859 255.089 81.0792 254.582C80.5726 254.075 80.3192 253.353 80.3192 252.416V238.926C80.3192 237.989 80.5599 237.279 81.0412 236.798C81.5479 236.291 82.2446 236.038 83.1312 236.038C84.0432 236.038 84.7399 236.291 85.2212 236.798C85.7026 237.279 85.9432 237.989 85.9432 238.926V240.902H85.5632C85.8672 239.382 86.5386 238.204 87.5772 237.368C88.6159 236.532 89.9586 236.063 91.6052 235.962C92.2386 235.911 92.7199 236.076 93.0492 236.456C93.4039 236.811 93.5939 237.406 93.6192 238.242C93.6699 239.027 93.5052 239.648 93.1252 240.104C92.7706 240.56 92.1626 240.839 91.3012 240.94L90.4272 241.016C88.9832 241.143 87.9066 241.561 87.1972 242.27C86.5132 242.979 86.1712 244.005 86.1712 245.348V252.416C86.1712 253.353 85.9179 254.075 85.4112 254.582C84.9299 255.089 84.2206 255.342 83.2832 255.342ZM104.613 255.418C102.612 255.418 100.864 255.025 99.3694 254.24C97.9001 253.455 96.7601 252.327 95.9494 250.858C95.1387 249.389 94.7334 247.653 94.7334 245.652C94.7334 244.157 94.9614 242.815 95.4174 241.624C95.8734 240.433 96.5321 239.42 97.3934 238.584C98.2801 237.723 99.3314 237.077 100.547 236.646C101.763 236.19 103.119 235.962 104.613 235.962C106.615 235.962 108.35 236.355 109.819 237.14C111.314 237.925 112.467 239.04 113.277 240.484C114.113 241.928 114.531 243.651 114.531 245.652C114.531 247.172 114.291 248.527 113.809 249.718C113.353 250.909 112.695 251.935 111.833 252.796C110.972 253.657 109.921 254.316 108.679 254.772C107.463 255.203 106.108 255.418 104.613 255.418ZM104.613 251.124C105.449 251.124 106.171 250.921 106.779 250.516C107.387 250.111 107.869 249.515 108.223 248.73C108.578 247.919 108.755 246.893 108.755 245.652C108.755 243.803 108.375 242.447 107.615 241.586C106.855 240.699 105.855 240.256 104.613 240.256C103.803 240.256 103.081 240.446 102.447 240.826C101.839 241.206 101.358 241.801 101.003 242.612C100.674 243.397 100.509 244.411 100.509 245.652C100.509 247.501 100.889 248.882 101.649 249.794C102.409 250.681 103.397 251.124 104.613 251.124ZM124.748 255.418C122.494 255.418 120.809 254.797 119.694 253.556C118.58 252.289 118.022 250.415 118.022 247.932V230.794C118.022 229.831 118.263 229.109 118.744 228.628C119.251 228.121 119.973 227.868 120.91 227.868C121.822 227.868 122.519 228.121 123 228.628C123.507 229.109 123.76 229.831 123.76 230.794V247.704C123.76 248.743 123.976 249.515 124.406 250.022C124.862 250.503 125.458 250.744 126.192 250.744C126.395 250.744 126.585 250.731 126.762 250.706C126.94 250.681 127.13 250.668 127.332 250.668C127.738 250.617 128.016 250.744 128.168 251.048C128.346 251.327 128.434 251.897 128.434 252.758C128.434 253.518 128.282 254.101 127.978 254.506C127.674 254.886 127.206 255.139 126.572 255.266C126.319 255.291 126.028 255.317 125.698 255.342C125.369 255.393 125.052 255.418 124.748 255.418ZM140.181 255.418C137.977 255.418 136.077 255.025 134.481 254.24C132.91 253.429 131.694 252.302 130.833 250.858C129.997 249.389 129.579 247.666 129.579 245.69C129.579 243.765 129.984 242.08 130.795 240.636C131.606 239.167 132.733 238.027 134.177 237.216C135.646 236.38 137.306 235.962 139.155 235.962C140.498 235.962 141.714 236.19 142.803 236.646C143.892 237.077 144.83 237.71 145.615 238.546C146.4 239.357 146.996 240.357 147.401 241.548C147.806 242.713 148.009 244.018 148.009 245.462C148.009 245.943 147.857 246.311 147.553 246.564C147.249 246.792 146.806 246.906 146.223 246.906H134.291V243.942H143.867L143.259 244.474C143.259 243.435 143.107 242.574 142.803 241.89C142.499 241.181 142.056 240.649 141.473 240.294C140.916 239.939 140.219 239.762 139.383 239.762C138.446 239.762 137.648 239.977 136.989 240.408C136.33 240.839 135.824 241.459 135.469 242.27C135.114 243.081 134.937 244.056 134.937 245.196V245.5C134.937 247.425 135.38 248.844 136.267 249.756C137.179 250.668 138.522 251.124 140.295 251.124C140.903 251.124 141.6 251.048 142.385 250.896C143.17 250.744 143.905 250.503 144.589 250.174C145.172 249.895 145.691 249.807 146.147 249.908C146.603 249.984 146.958 250.187 147.211 250.516C147.464 250.845 147.604 251.225 147.629 251.656C147.68 252.087 147.591 252.517 147.363 252.948C147.135 253.353 146.755 253.695 146.223 253.974C145.362 254.455 144.386 254.81 143.297 255.038C142.233 255.291 141.194 255.418 140.181 255.418ZM169.218 255.418C167.597 255.418 166.165 255.025 164.924 254.24C163.708 253.455 162.758 252.327 162.074 250.858C161.39 249.389 161.048 247.653 161.048 245.652C161.048 243.651 161.39 241.928 162.074 240.484C162.758 239.04 163.708 237.925 164.924 237.14C166.165 236.355 167.597 235.962 169.218 235.962C170.687 235.962 171.979 236.317 173.094 237.026C174.234 237.735 175.007 238.66 175.412 239.8H174.994V230.794C174.994 229.831 175.235 229.109 175.716 228.628C176.197 228.121 176.907 227.868 177.844 227.868C178.756 227.868 179.465 228.121 179.972 228.628C180.479 229.109 180.732 229.831 180.732 230.794V252.416C180.732 253.353 180.479 254.075 179.972 254.582C179.491 255.089 178.794 255.342 177.882 255.342C176.97 255.342 176.261 255.089 175.754 254.582C175.273 254.075 175.032 253.353 175.032 252.416V249.832L175.45 251.314C175.095 252.555 174.335 253.556 173.17 254.316C172.03 255.051 170.713 255.418 169.218 255.418ZM170.928 251.124C171.764 251.124 172.486 250.921 173.094 250.516C173.702 250.111 174.183 249.515 174.538 248.73C174.893 247.919 175.07 246.893 175.07 245.652C175.07 243.803 174.69 242.447 173.93 241.586C173.17 240.699 172.169 240.256 170.928 240.256C170.117 240.256 169.395 240.446 168.762 240.826C168.154 241.206 167.673 241.801 167.318 242.612C166.989 243.397 166.824 244.411 166.824 245.652C166.824 247.501 167.204 248.882 167.964 249.794C168.724 250.681 169.712 251.124 170.928 251.124ZM191.461 255.418C190.093 255.418 188.865 255.152 187.775 254.62C186.686 254.088 185.837 253.366 185.229 252.454C184.621 251.542 184.317 250.516 184.317 249.376C184.317 248.008 184.672 246.931 185.381 246.146C186.091 245.335 187.243 244.765 188.839 244.436C190.435 244.081 192.551 243.904 195.185 243.904H197.199V246.868H195.223C193.931 246.868 192.88 246.944 192.069 247.096C191.284 247.223 190.714 247.451 190.359 247.78C190.03 248.109 189.865 248.565 189.865 249.148C189.865 249.857 190.106 250.44 190.587 250.896C191.094 251.352 191.816 251.58 192.753 251.58C193.488 251.58 194.134 251.415 194.691 251.086C195.274 250.731 195.73 250.263 196.059 249.68C196.389 249.072 196.553 248.388 196.553 247.628V243.258C196.553 242.143 196.3 241.358 195.793 240.902C195.287 240.421 194.425 240.18 193.209 240.18C192.525 240.18 191.778 240.269 190.967 240.446C190.182 240.598 189.308 240.864 188.345 241.244C187.788 241.497 187.294 241.561 186.863 241.434C186.433 241.282 186.103 241.029 185.875 240.674C185.647 240.294 185.533 239.889 185.533 239.458C185.533 239.002 185.66 238.571 185.913 238.166C186.167 237.735 186.585 237.419 187.167 237.216C188.358 236.735 189.473 236.405 190.511 236.228C191.575 236.051 192.551 235.962 193.437 235.962C195.388 235.962 196.984 236.253 198.225 236.836C199.492 237.393 200.442 238.267 201.075 239.458C201.709 240.623 202.025 242.131 202.025 243.98V252.416C202.025 253.353 201.797 254.075 201.341 254.582C200.885 255.089 200.227 255.342 199.365 255.342C198.504 255.342 197.833 255.089 197.351 254.582C196.895 254.075 196.667 253.353 196.667 252.416V251.01L196.933 251.238C196.781 252.099 196.452 252.847 195.945 253.48C195.464 254.088 194.843 254.569 194.083 254.924C193.323 255.253 192.449 255.418 191.461 255.418ZM213.45 255.418C212.335 255.418 211.182 255.317 209.992 255.114C208.826 254.911 207.762 254.569 206.8 254.088C206.293 253.835 205.926 253.518 205.698 253.138C205.495 252.733 205.406 252.327 205.432 251.922C205.457 251.517 205.584 251.149 205.812 250.82C206.065 250.491 206.382 250.275 206.762 250.174C207.167 250.047 207.61 250.085 208.092 250.288C209.13 250.719 210.08 251.023 210.942 251.2C211.803 251.377 212.652 251.466 213.488 251.466C214.577 251.466 215.362 251.301 215.844 250.972C216.35 250.617 216.604 250.161 216.604 249.604C216.604 249.097 216.439 248.717 216.11 248.464C215.78 248.211 215.299 248.033 214.666 247.932L210.676 247.21C209.105 246.931 207.889 246.361 207.028 245.5C206.192 244.613 205.774 243.486 205.774 242.118C205.774 240.851 206.128 239.762 206.838 238.85C207.547 237.913 208.522 237.203 209.764 236.722C211.03 236.215 212.462 235.962 214.058 235.962C215.198 235.962 216.249 236.063 217.212 236.266C218.174 236.469 219.099 236.798 219.986 237.254C220.442 237.482 220.758 237.786 220.936 238.166C221.138 238.546 221.202 238.939 221.126 239.344C221.075 239.749 220.923 240.117 220.67 240.446C220.416 240.775 220.087 240.991 219.682 241.092C219.302 241.193 218.858 241.143 218.352 240.94C217.541 240.56 216.794 240.294 216.11 240.142C215.426 239.965 214.767 239.876 214.134 239.876C212.994 239.876 212.17 240.066 211.664 240.446C211.157 240.801 210.904 241.257 210.904 241.814C210.904 242.245 211.043 242.612 211.322 242.916C211.626 243.195 212.082 243.385 212.69 243.486L216.68 244.208C218.326 244.487 219.58 245.044 220.442 245.88C221.303 246.691 221.734 247.805 221.734 249.224C221.734 251.149 220.974 252.669 219.454 253.784C217.959 254.873 215.958 255.418 213.45 255.418ZM242.766 255.418C241.651 255.418 240.499 255.317 239.308 255.114C238.143 254.911 237.079 254.569 236.116 254.088C235.609 253.835 235.242 253.518 235.014 253.138C234.811 252.733 234.723 252.327 234.748 251.922C234.773 251.517 234.9 251.149 235.128 250.82C235.381 250.491 235.698 250.275 236.078 250.174C236.483 250.047 236.927 250.085 237.408 250.288C238.447 250.719 239.397 251.023 240.258 251.2C241.119 251.377 241.968 251.466 242.804 251.466C243.893 251.466 244.679 251.301 245.16 250.972C245.667 250.617 245.92 250.161 245.92 249.604C245.92 249.097 245.755 248.717 245.426 248.464C245.097 248.211 244.615 248.033 243.982 247.932L239.992 247.21C238.421 246.931 237.205 246.361 236.344 245.5C235.508 244.613 235.09 243.486 235.09 242.118C235.09 240.851 235.445 239.762 236.154 238.85C236.863 237.913 237.839 237.203 239.08 236.722C240.347 236.215 241.778 235.962 243.374 235.962C244.514 235.962 245.565 236.063 246.528 236.266C247.491 236.469 248.415 236.798 249.302 237.254C249.758 237.482 250.075 237.786 250.252 238.166C250.455 238.546 250.518 238.939 250.442 239.344C250.391 239.749 250.239 240.117 249.986 240.446C249.733 240.775 249.403 240.991 248.998 241.092C248.618 241.193 248.175 241.143 247.668 240.94C246.857 240.56 246.11 240.294 245.426 240.142C244.742 239.965 244.083 239.876 243.45 239.876C242.31 239.876 241.487 240.066 240.98 240.446C240.473 240.801 240.22 241.257 240.22 241.814C240.22 242.245 240.359 242.612 240.638 242.916C240.942 243.195 241.398 243.385 242.006 243.486L245.996 244.208C247.643 244.487 248.897 245.044 249.758 245.88C250.619 246.691 251.05 247.805 251.05 249.224C251.05 251.149 250.29 252.669 248.77 253.784C247.275 254.873 245.274 255.418 242.766 255.418ZM261.203 255.418C259.632 255.418 258.328 255.127 257.289 254.544C256.25 253.961 255.478 253.087 254.971 251.922C254.49 250.731 254.249 249.262 254.249 247.514V238.926C254.249 237.963 254.49 237.241 254.971 236.76C255.478 236.279 256.187 236.038 257.099 236.038C258.011 236.038 258.72 236.279 259.227 236.76C259.734 237.241 259.987 237.963 259.987 238.926V247.666C259.987 248.781 260.215 249.617 260.671 250.174C261.127 250.706 261.849 250.972 262.837 250.972C263.926 250.972 264.813 250.592 265.497 249.832C266.206 249.047 266.561 248.021 266.561 246.754V238.926C266.561 237.963 266.802 237.241 267.283 236.76C267.79 236.279 268.499 236.038 269.411 236.038C270.348 236.038 271.058 236.279 271.539 236.76C272.046 237.241 272.299 237.963 272.299 238.926V252.416C272.299 254.367 271.374 255.342 269.525 255.342C268.613 255.342 267.916 255.089 267.435 254.582C266.954 254.075 266.713 253.353 266.713 252.416V249.87L267.283 251.352C266.726 252.644 265.928 253.645 264.889 254.354C263.85 255.063 262.622 255.418 261.203 255.418ZM283.047 255.418C281.679 255.418 280.45 255.152 279.361 254.62C278.272 254.088 277.423 253.366 276.815 252.454C276.207 251.542 275.903 250.516 275.903 249.376C275.903 248.008 276.258 246.931 276.967 246.146C277.676 245.335 278.829 244.765 280.425 244.436C282.021 244.081 284.136 243.904 286.771 243.904H288.785V246.868H286.809C285.517 246.868 284.466 246.944 283.655 247.096C282.87 247.223 282.3 247.451 281.945 247.78C281.616 248.109 281.451 248.565 281.451 249.148C281.451 249.857 281.692 250.44 282.173 250.896C282.68 251.352 283.402 251.58 284.339 251.58C285.074 251.58 285.72 251.415 286.277 251.086C286.86 250.731 287.316 250.263 287.645 249.68C287.974 249.072 288.139 248.388 288.139 247.628V243.258C288.139 242.143 287.886 241.358 287.379 240.902C286.872 240.421 286.011 240.18 284.795 240.18C284.111 240.18 283.364 240.269 282.553 240.446C281.768 240.598 280.894 240.864 279.931 241.244C279.374 241.497 278.88 241.561 278.449 241.434C278.018 241.282 277.689 241.029 277.461 240.674C277.233 240.294 277.119 239.889 277.119 239.458C277.119 239.002 277.246 238.571 277.499 238.166C277.752 237.735 278.17 237.419 278.753 237.216C279.944 236.735 281.058 236.405 282.097 236.228C283.161 236.051 284.136 235.962 285.023 235.962C286.974 235.962 288.57 236.253 289.811 236.836C291.078 237.393 292.028 238.267 292.661 239.458C293.294 240.623 293.611 242.131 293.611 243.98V252.416C293.611 253.353 293.383 254.075 292.927 254.582C292.471 255.089 291.812 255.342 290.951 255.342C290.09 255.342 289.418 255.089 288.937 254.582C288.481 254.075 288.253 253.353 288.253 252.416V251.01L288.519 251.238C288.367 252.099 288.038 252.847 287.531 253.48C287.05 254.088 286.429 254.569 285.669 254.924C284.909 255.253 284.035 255.418 283.047 255.418ZM305.036 255.418C303.921 255.418 302.768 255.317 301.578 255.114C300.412 254.911 299.348 254.569 298.386 254.088C297.879 253.835 297.512 253.518 297.284 253.138C297.081 252.733 296.992 252.327 297.018 251.922C297.043 251.517 297.17 251.149 297.398 250.82C297.651 250.491 297.968 250.275 298.348 250.174C298.753 250.047 299.196 250.085 299.678 250.288C300.716 250.719 301.666 251.023 302.528 251.2C303.389 251.377 304.238 251.466 305.074 251.466C306.163 251.466 306.948 251.301 307.43 250.972C307.936 250.617 308.19 250.161 308.19 249.604C308.19 249.097 308.025 248.717 307.696 248.464C307.366 248.211 306.885 248.033 306.252 247.932L302.262 247.21C300.691 246.931 299.475 246.361 298.614 245.5C297.778 244.613 297.36 243.486 297.36 242.118C297.36 240.851 297.714 239.762 298.424 238.85C299.133 237.913 300.108 237.203 301.35 236.722C302.616 236.215 304.048 235.962 305.644 235.962C306.784 235.962 307.835 236.063 308.798 236.266C309.76 236.469 310.685 236.798 311.572 237.254C312.028 237.482 312.344 237.786 312.522 238.166C312.724 238.546 312.788 238.939 312.712 239.344C312.661 239.749 312.509 240.117 312.256 240.446C312.002 240.775 311.673 240.991 311.268 241.092C310.888 241.193 310.444 241.143 309.938 240.94C309.127 240.56 308.38 240.294 307.696 240.142C307.012 239.965 306.353 239.876 305.719 239.876C304.58 239.876 303.756 240.066 303.25 240.446C302.743 240.801 302.49 241.257 302.49 241.814C302.49 242.245 302.629 242.612 302.908 242.916C303.212 243.195 303.668 243.385 304.276 243.486L308.266 244.208C309.912 244.487 311.166 245.044 312.028 245.88C312.889 246.691 313.32 247.805 313.32 249.224C313.32 251.149 312.56 252.669 311.04 253.784C309.545 254.873 307.544 255.418 305.036 255.418ZM6.536 303.342C5.59867 303.342 4.87667 303.089 4.37 302.582C3.88867 302.075 3.648 301.353 3.648 300.416V288.636H2.28C1.57067 288.636 1.01333 288.446 0.608 288.066C0.228 287.686 0.038 287.167 0.038 286.508C0.038 285.799 0.228 285.267 0.608 284.912C1.01333 284.532 1.57067 284.342 2.28 284.342H5.32L3.648 285.862V284.684C3.648 282.024 4.30667 280.01 5.624 278.642C6.94133 277.274 8.892 276.451 11.476 276.172L12.578 276.058C13.2873 276.007 13.8447 276.109 14.25 276.362C14.6807 276.59 14.9593 276.907 15.086 277.312C15.238 277.717 15.276 278.135 15.2 278.566C15.124 278.997 14.9467 279.377 14.668 279.706C14.4147 280.01 14.0853 280.175 13.68 280.2L12.882 280.276C11.6153 280.352 10.716 280.669 10.184 281.226C9.652 281.783 9.386 282.607 9.386 283.696V284.988L8.664 284.342H19.304C20.216 284.342 20.9127 284.621 21.394 285.178C21.9007 285.71 22.154 286.47 22.154 287.458V300.188C22.154 301.176 21.9133 301.949 21.432 302.506C20.9507 303.038 20.2413 303.304 19.304 303.304C18.392 303.304 17.6827 303.038 17.176 302.506C16.6693 301.949 16.416 301.176 16.416 300.188V288.636H9.386V300.416C9.386 302.367 8.436 303.342 6.536 303.342ZM19.418 280.922C18.4047 280.922 17.6193 280.681 17.062 280.2C16.53 279.693 16.264 278.984 16.264 278.072C16.264 277.135 16.53 276.425 17.062 275.944C17.6193 275.437 18.4047 275.184 19.418 275.184C20.4313 275.184 21.204 275.437 21.736 275.944C22.2933 276.425 22.572 277.135 22.572 278.072C22.572 278.984 22.2933 279.693 21.736 280.2C21.204 280.681 20.4313 280.922 19.418 280.922ZM29.4729 303.342C28.5355 303.342 27.8135 303.089 27.3069 302.582C26.8255 302.075 26.5849 301.353 26.5849 300.416V286.926C26.5849 285.989 26.8255 285.279 27.3069 284.798C27.8135 284.291 28.5102 284.038 29.3969 284.038C30.3089 284.038 31.0055 284.291 31.4869 284.798C31.9682 285.279 32.2089 285.989 32.2089 286.926V289.092L31.7909 287.838C32.3735 286.597 33.2349 285.647 34.3749 284.988C35.5402 284.304 36.8575 283.962 38.3269 283.962C39.8215 283.962 41.0502 284.253 42.0129 284.836C42.9755 285.393 43.6975 286.255 44.1789 287.42C44.6602 288.56 44.9009 290.017 44.9009 291.79V300.416C44.9009 301.353 44.6475 302.075 44.1409 302.582C43.6595 303.089 42.9502 303.342 42.0129 303.342C41.1009 303.342 40.3915 303.089 39.8849 302.582C39.4035 302.075 39.1629 301.353 39.1629 300.416V292.056C39.1629 290.764 38.9222 289.839 38.4409 289.282C37.9849 288.699 37.2755 288.408 36.3129 288.408C35.0969 288.408 34.1215 288.788 33.3869 289.548C32.6775 290.308 32.3229 291.321 32.3229 292.588V300.416C32.3229 302.367 31.3729 303.342 29.4729 303.342ZM55.4925 303.418C54.1245 303.418 52.8958 303.152 51.8065 302.62C50.7171 302.088 49.8685 301.366 49.2605 300.454C48.6525 299.542 48.3485 298.516 48.3485 297.376C48.3485 296.008 48.7031 294.931 49.4125 294.146C50.1218 293.335 51.2745 292.765 52.8705 292.436C54.4665 292.081 56.5818 291.904 59.2165 291.904H61.2305V294.868H59.2545C57.9625 294.868 56.9111 294.944 56.1005 295.096C55.3151 295.223 54.7451 295.451 54.3905 295.78C54.0611 296.109 53.8965 296.565 53.8965 297.148C53.8965 297.857 54.1371 298.44 54.6185 298.896C55.1251 299.352 55.8471 299.58 56.7845 299.58C57.5191 299.58 58.1651 299.415 58.7225 299.086C59.3051 298.731 59.7611 298.263 60.0905 297.68C60.4198 297.072 60.5845 296.388 60.5845 295.628V291.258C60.5845 290.143 60.3311 289.358 59.8245 288.902C59.3178 288.421 58.4565 288.18 57.2405 288.18C56.5565 288.18 55.8091 288.269 54.9985 288.446C54.2131 288.598 53.3391 288.864 52.3765 289.244C51.8191 289.497 51.3251 289.561 50.8945 289.434C50.4638 289.282 50.1345 289.029 49.9065 288.674C49.6785 288.294 49.5645 287.889 49.5645 287.458C49.5645 287.002 49.6911 286.571 49.9445 286.166C50.1978 285.735 50.6158 285.419 51.1985 285.216C52.3891 284.735 53.5038 284.405 54.5425 284.228C55.6065 284.051 56.5818 283.962 57.4685 283.962C59.4191 283.962 61.0151 284.253 62.2565 284.836C63.5231 285.393 64.4731 286.267 65.1065 287.458C65.7398 288.623 66.0565 290.131 66.0565 291.98V300.416C66.0565 301.353 65.8285 302.075 65.3725 302.582C64.9165 303.089 64.2578 303.342 63.3965 303.342C62.5351 303.342 61.8638 303.089 61.3825 302.582C60.9265 302.075 60.6985 301.353 60.6985 300.416V299.01L60.9645 299.238C60.8125 300.099 60.4831 300.847 59.9765 301.48C59.4951 302.088 58.8745 302.569 58.1145 302.924C57.3545 303.253 56.4805 303.418 55.4925 303.418ZM73.2248 303.342C72.2875 303.342 71.5655 303.089 71.0588 302.582C70.5775 302.075 70.3368 301.353 70.3368 300.416V286.926C70.3368 285.989 70.5775 285.279 71.0588 284.798C71.5655 284.291 72.2621 284.038 73.1488 284.038C74.0608 284.038 74.7575 284.291 75.2388 284.798C75.7201 285.279 75.9608 285.989 75.9608 286.926V289.092L75.5428 287.838C76.1255 286.597 76.9868 285.647 78.1268 284.988C79.2921 284.304 80.6095 283.962 82.0788 283.962C83.5735 283.962 84.8021 284.253 85.7648 284.836C86.7275 285.393 87.4495 286.255 87.9308 287.42C88.4121 288.56 88.6528 290.017 88.6528 291.79V300.416C88.6528 301.353 88.3995 302.075 87.8928 302.582C87.4115 303.089 86.7021 303.342 85.7648 303.342C84.8528 303.342 84.1435 303.089 83.6368 302.582C83.1555 302.075 82.9148 301.353 82.9148 300.416V292.056C82.9148 290.764 82.6741 289.839 82.1928 289.282C81.7368 288.699 81.0275 288.408 80.0648 288.408C78.8488 288.408 77.8735 288.788 77.1388 289.548C76.4295 290.308 76.0748 291.321 76.0748 292.588V300.416C76.0748 302.367 75.1248 303.342 73.2248 303.342ZM102.018 303.418C99.9918 303.418 98.2184 303.025 96.6984 302.24C95.2038 301.429 94.0511 300.289 93.2404 298.82C92.4298 297.351 92.0244 295.615 92.0244 293.614C92.0244 292.119 92.2524 290.777 92.7084 289.586C93.1644 288.395 93.8231 287.382 94.6844 286.546C95.5711 285.71 96.6351 285.077 97.8764 284.646C99.1178 284.19 100.498 283.962 102.018 283.962C102.804 283.962 103.64 284.063 104.526 284.266C105.413 284.443 106.287 284.76 107.148 285.216C107.655 285.444 107.997 285.773 108.174 286.204C108.377 286.609 108.453 287.04 108.402 287.496C108.352 287.927 108.187 288.319 107.908 288.674C107.655 289.003 107.326 289.231 106.92 289.358C106.515 289.459 106.059 289.383 105.552 289.13C105.071 288.851 104.564 288.649 104.032 288.522C103.526 288.395 103.044 288.332 102.588 288.332C101.828 288.332 101.157 288.459 100.574 288.712C99.9918 288.94 99.4978 289.282 99.0924 289.738C98.7124 290.169 98.4084 290.713 98.1804 291.372C97.9778 292.031 97.8764 292.791 97.8764 293.652C97.8764 295.324 98.2818 296.641 99.0924 297.604C99.9284 298.541 101.094 299.01 102.588 299.01C103.044 299.01 103.526 298.959 104.032 298.858C104.539 298.731 105.046 298.529 105.552 298.25C106.059 297.997 106.515 297.933 106.92 298.06C107.326 298.187 107.642 298.427 107.87 298.782C108.124 299.111 108.263 299.504 108.288 299.96C108.339 300.391 108.263 300.821 108.06 301.252C107.883 301.657 107.554 301.974 107.072 302.202C106.211 302.633 105.35 302.937 104.488 303.114C103.627 303.317 102.804 303.418 102.018 303.418ZM101.6 310.486C101.119 310.486 100.6 310.448 100.042 310.372C99.5104 310.321 99.0164 310.22 98.5604 310.068C98.1298 309.941 97.8258 309.713 97.6484 309.384C97.4964 309.055 97.4584 308.725 97.5344 308.396C97.6104 308.067 97.7878 307.813 98.0664 307.636C98.3704 307.459 98.7504 307.446 99.2064 307.598C99.5358 307.699 99.8524 307.775 100.156 307.826C100.46 307.877 100.764 307.902 101.068 307.902C101.727 307.902 102.221 307.813 102.55 307.636C102.88 307.484 103.044 307.243 103.044 306.914C103.044 306.661 102.93 306.471 102.702 306.344C102.5 306.217 102.145 306.154 101.638 306.154C101.461 306.154 101.284 306.154 101.106 306.154C100.929 306.179 100.752 306.205 100.574 306.23C100.397 306.281 100.232 306.293 100.08 306.268C99.9538 306.243 99.8271 306.179 99.7004 306.078C99.5991 305.977 99.5358 305.837 99.5104 305.66C99.4851 305.508 99.4851 305.305 99.5104 305.052L99.9284 302.24H102.816L102.322 305.128L100.916 304.596C101.22 304.495 101.524 304.419 101.828 304.368C102.132 304.317 102.411 304.292 102.664 304.292C103.779 304.292 104.666 304.533 105.324 305.014C105.983 305.521 106.312 306.217 106.312 307.104C106.312 308.117 105.869 308.928 104.982 309.536C104.121 310.169 102.994 310.486 101.6 310.486ZM117.317 303.418C115.949 303.418 114.72 303.152 113.631 302.62C112.541 302.088 111.693 301.366 111.085 300.454C110.477 299.542 110.173 298.516 110.173 297.376C110.173 296.008 110.527 294.931 111.237 294.146C111.946 293.335 113.099 292.765 114.695 292.436C116.291 292.081 118.406 291.904 121.041 291.904H123.055V294.868H121.079C119.787 294.868 118.735 294.944 117.925 295.096C117.139 295.223 116.569 295.451 116.215 295.78C115.885 296.109 115.721 296.565 115.721 297.148C115.721 297.857 115.961 298.44 116.443 298.896C116.949 299.352 117.671 299.58 118.609 299.58C119.343 299.58 119.989 299.415 120.547 299.086C121.129 298.731 121.585 298.263 121.915 297.68C122.244 297.072 122.409 296.388 122.409 295.628V291.258C122.409 290.143 122.155 289.358 121.649 288.902C121.142 288.421 120.281 288.18 119.065 288.18C118.381 288.18 117.633 288.269 116.823 288.446C116.037 288.598 115.163 288.864 114.201 289.244C113.643 289.497 113.149 289.561 112.719 289.434C112.288 289.282 111.959 289.029 111.731 288.674C111.503 288.294 111.389 287.889 111.389 287.458C111.389 287.002 111.515 286.571 111.769 286.166C112.022 285.735 112.44 285.419 113.023 285.216C114.213 284.735 115.328 284.405 116.367 284.228C117.431 284.051 118.406 283.962 119.293 283.962C121.243 283.962 122.839 284.253 124.081 284.836C125.347 285.393 126.297 286.267 126.931 287.458C127.564 288.623 127.881 290.131 127.881 291.98V300.416C127.881 301.353 127.653 302.075 127.197 302.582C126.741 303.089 126.082 303.342 125.221 303.342C124.359 303.342 123.688 303.089 123.207 302.582C122.751 302.075 122.523 301.353 122.523 300.416V299.01L122.789 299.238C122.637 300.099 122.307 300.847 121.801 301.48C121.319 302.088 120.699 302.569 119.939 302.924C119.179 303.253 118.305 303.418 117.317 303.418ZM139.305 303.418C138.19 303.418 137.038 303.317 135.847 303.114C134.682 302.911 133.618 302.569 132.655 302.088C132.148 301.835 131.781 301.518 131.553 301.138C131.35 300.733 131.262 300.327 131.287 299.922C131.312 299.517 131.439 299.149 131.667 298.82C131.92 298.491 132.237 298.275 132.617 298.174C133.022 298.047 133.466 298.085 133.947 298.288C134.986 298.719 135.936 299.023 136.797 299.2C137.658 299.377 138.507 299.466 139.343 299.466C140.432 299.466 141.218 299.301 141.699 298.972C142.206 298.617 142.459 298.161 142.459 297.604C142.459 297.097 142.294 296.717 141.965 296.464C141.636 296.211 141.154 296.033 140.521 295.932L136.531 295.21C134.96 294.931 133.744 294.361 132.883 293.5C132.047 292.613 131.629 291.486 131.629 290.118C131.629 288.851 131.984 287.762 132.693 286.85C133.402 285.913 134.378 285.203 135.619 284.722C136.886 284.215 138.317 283.962 139.913 283.962C141.053 283.962 142.104 284.063 143.067 284.266C144.03 284.469 144.954 284.798 145.841 285.254C146.297 285.482 146.614 285.786 146.791 286.166C146.994 286.546 147.057 286.939 146.981 287.344C146.93 287.749 146.778 288.117 146.525 288.446C146.272 288.775 145.942 288.991 145.537 289.092C145.157 289.193 144.714 289.143 144.207 288.94C143.396 288.56 142.649 288.294 141.965 288.142C141.281 287.965 140.622 287.876 139.989 287.876C138.849 287.876 138.026 288.066 137.519 288.446C137.012 288.801 136.759 289.257 136.759 289.814C136.759 290.245 136.898 290.612 137.177 290.916C137.481 291.195 137.937 291.385 138.545 291.486L142.535 292.208C144.182 292.487 145.436 293.044 146.297 293.88C147.158 294.691 147.589 295.805 147.589 297.224C147.589 299.149 146.829 300.669 145.309 301.784C143.814 302.873 141.813 303.418 139.305 303.418Z" fill="white"/>
<path d="M7.456 348.64C7.65867 348.64 7.81867 348.699 7.936 348.816C8.05333 348.933 8.112 349.083 8.112 349.264V359.44C8.112 359.632 8.05333 359.787 7.936 359.904C7.81867 360.021 7.65867 360.08 7.456 360.08C7.25333 360.08 7.09333 360.021 6.976 359.904C6.86933 359.787 6.816 359.632 6.816 359.44V358.576C6.58133 359.067 6.23467 359.445 5.776 359.712C5.328 359.979 4.8 360.112 4.192 360.112C3.50933 360.112 2.90667 359.941 2.384 359.6C1.86133 359.259 1.456 358.784 1.168 358.176C0.88 357.557 0.736 356.843 0.736 356.032C0.736 355.232 0.88 354.528 1.168 353.92C1.456 353.312 1.86133 352.843 2.384 352.512C2.90667 352.181 3.50933 352.016 4.192 352.016C4.8 352.016 5.328 352.149 5.776 352.416C6.23467 352.683 6.58133 353.061 6.816 353.552V349.264C6.816 349.072 6.86933 348.923 6.976 348.816C7.09333 348.699 7.25333 348.64 7.456 348.64ZM4.448 359.04C5.20533 359.04 5.78667 358.784 6.192 358.272C6.608 357.749 6.816 357.013 6.816 356.064C6.816 355.115 6.608 354.384 6.192 353.872C5.78667 353.36 5.20533 353.104 4.448 353.104C3.69067 353.104 3.09867 353.36 2.672 353.872C2.256 354.384 2.048 355.104 2.048 356.032C2.048 356.981 2.256 357.723 2.672 358.256C3.09867 358.779 3.69067 359.04 4.448 359.04ZM16.5445 358.192C16.6618 358.192 16.7632 358.24 16.8485 358.336C16.9338 358.432 16.9765 358.555 16.9765 358.704C16.9765 358.971 16.7898 359.216 16.4165 359.44C16.0325 359.664 15.6272 359.835 15.2005 359.952C14.7738 360.059 14.3578 360.112 13.9525 360.112C12.7472 360.112 11.7925 359.755 11.0885 359.04C10.3952 358.325 10.0485 357.339 10.0485 356.08C10.0485 355.28 10.2032 354.576 10.5125 353.968C10.8218 353.349 11.2538 352.869 11.8085 352.528C12.3738 352.187 13.0138 352.016 13.7285 352.016C14.7418 352.016 15.5472 352.347 16.1445 353.008C16.7418 353.669 17.0405 354.565 17.0405 355.696C17.0405 355.909 16.9978 356.064 16.9125 356.16C16.8272 356.256 16.6885 356.304 16.4965 356.304H11.3445C11.4405 358.139 12.3098 359.056 13.9525 359.056C14.3685 359.056 14.7258 359.003 15.0245 358.896C15.3232 358.779 15.6432 358.624 15.9845 358.432C16.2618 358.272 16.4485 358.192 16.5445 358.192ZM13.7445 353.024C13.0618 353.024 12.5125 353.237 12.0965 353.664C11.6912 354.091 11.4512 354.693 11.3765 355.472H15.9045C15.8832 354.683 15.6858 354.08 15.3125 353.664C14.9392 353.237 14.4165 353.024 13.7445 353.024ZM26.515 349.744C25.9497 349.787 25.523 349.968 25.235 350.288C24.947 350.597 24.803 351.067 24.803 351.696V352.208H26.579C26.7603 352.208 26.899 352.256 26.995 352.352C27.091 352.448 27.139 352.576 27.139 352.736C27.139 352.896 27.091 353.019 26.995 353.104C26.899 353.189 26.7603 353.232 26.579 353.232H24.803V359.44C24.803 359.643 24.739 359.803 24.611 359.92C24.4937 360.027 24.3443 360.08 24.163 360.08C23.971 360.08 23.811 360.027 23.683 359.92C23.5657 359.803 23.507 359.643 23.507 359.44V353.232H22.435C22.2537 353.232 22.1097 353.189 22.003 353.104C21.907 353.008 21.859 352.885 21.859 352.736C21.859 352.576 21.907 352.448 22.003 352.352C22.1097 352.256 22.2537 352.208 22.435 352.208H23.507V351.92C23.507 350.96 23.747 350.208 24.227 349.664C24.707 349.109 25.395 348.8 26.291 348.736L26.707 348.704C26.9843 348.683 27.1817 348.709 27.299 348.784C27.427 348.859 27.491 348.992 27.491 349.184C27.491 349.493 27.3043 349.669 26.931 349.712L26.515 349.744ZM31.4789 360.112C30.7429 360.112 30.0922 359.947 29.5269 359.616C28.9722 359.285 28.5402 358.816 28.2309 358.208C27.9322 357.589 27.7829 356.875 27.7829 356.064C27.7829 355.253 27.9322 354.544 28.2309 353.936C28.5402 353.317 28.9722 352.843 29.5269 352.512C30.0922 352.181 30.7429 352.016 31.4789 352.016C32.2149 352.016 32.8655 352.181 33.4309 352.512C33.9962 352.843 34.4282 353.317 34.7269 353.936C35.0362 354.544 35.1909 355.253 35.1909 356.064C35.1909 356.875 35.0362 357.589 34.7269 358.208C34.4282 358.816 33.9962 359.285 33.4309 359.616C32.8655 359.947 32.2149 360.112 31.4789 360.112ZM31.4789 359.04C32.2469 359.04 32.8335 358.789 33.2389 358.288C33.6549 357.776 33.8629 357.035 33.8629 356.064C33.8629 355.115 33.6549 354.384 33.2389 353.872C32.8229 353.349 32.2362 353.088 31.4789 353.088C30.7215 353.088 30.1349 353.349 29.7189 353.872C29.3029 354.384 29.0949 355.115 29.0949 356.064C29.0949 357.024 29.2975 357.76 29.7029 358.272C30.1189 358.784 30.7109 359.04 31.4789 359.04ZM40.9779 352.048C41.4259 352.016 41.6499 352.197 41.6499 352.592C41.6499 352.763 41.6019 352.901 41.5059 353.008C41.4099 353.104 41.2445 353.163 41.0099 353.184L40.5299 353.232C39.8152 353.296 39.2819 353.552 38.9299 354C38.5885 354.437 38.4179 354.955 38.4179 355.552V359.44C38.4179 359.653 38.3592 359.813 38.2419 359.92C38.1245 360.027 37.9699 360.08 37.7779 360.08C37.5859 360.08 37.4259 360.027 37.2979 359.92C37.1805 359.803 37.1219 359.643 37.1219 359.44V352.688C37.1219 352.485 37.1859 352.331 37.3139 352.224C37.4419 352.107 37.5965 352.048 37.7779 352.048C37.9485 352.048 38.0925 352.107 38.2099 352.224C38.3272 352.331 38.3859 352.48 38.3859 352.672V353.568C38.6099 353.099 38.9245 352.741 39.3299 352.496C39.7459 352.251 40.2205 352.107 40.7539 352.064L40.9779 352.048ZM51.4345 352.016C53.1625 352.016 54.0265 353.045 54.0265 355.104V359.44C54.0265 359.643 53.9678 359.803 53.8505 359.92C53.7332 360.027 53.5785 360.08 53.3865 360.08C53.1945 360.08 53.0345 360.027 52.9065 359.92C52.7892 359.803 52.7305 359.643 52.7305 359.44V355.136C52.7305 354.421 52.6025 353.904 52.3465 353.584C52.0905 353.264 51.6905 353.104 51.1465 353.104C50.4958 353.104 49.9838 353.323 49.6105 353.76C49.2372 354.197 49.0505 354.789 49.0505 355.536V359.44C49.0505 359.643 48.9865 359.803 48.8585 359.92C48.7412 360.027 48.5865 360.08 48.3945 360.08C48.2025 360.08 48.0478 360.027 47.9305 359.92C47.8132 359.803 47.7545 359.643 47.7545 359.44V355.136C47.7545 354.421 47.6265 353.904 47.3705 353.584C47.1145 353.264 46.7092 353.104 46.1545 353.104C45.5145 353.104 45.0025 353.323 44.6185 353.76C44.2452 354.197 44.0585 354.789 44.0585 355.536V359.44C44.0585 359.643 43.9998 359.803 43.8825 359.92C43.7652 360.027 43.6105 360.08 43.4185 360.08C43.2265 360.08 43.0665 360.027 42.9385 359.92C42.8212 359.803 42.7625 359.643 42.7625 359.44V352.688C42.7625 352.496 42.8212 352.341 42.9385 352.224C43.0665 352.107 43.2265 352.048 43.4185 352.048C43.5998 352.048 43.7492 352.107 43.8665 352.224C43.9838 352.331 44.0425 352.48 44.0425 352.672V353.44C44.2772 352.981 44.6025 352.629 45.0185 352.384C45.4345 352.139 45.9145 352.016 46.4585 352.016C47.6745 352.016 48.4692 352.528 48.8425 353.552C49.0665 353.083 49.4078 352.709 49.8665 352.432C50.3252 352.155 50.8478 352.016 51.4345 352.016ZM59.5715 352.016C61.5235 352.016 62.4995 353.04 62.4995 355.088V359.44C62.4995 359.632 62.4408 359.787 62.3235 359.904C62.2168 360.021 62.0675 360.08 61.8755 360.08C61.6835 360.08 61.5288 360.021 61.4115 359.904C61.2942 359.787 61.2355 359.632 61.2355 359.44V358.672C61.0328 359.131 60.7235 359.488 60.3075 359.744C59.8915 359.989 59.4115 360.112 58.8675 360.112C58.3662 360.112 57.9022 360.011 57.4755 359.808C57.0595 359.605 56.7288 359.323 56.4835 358.96C56.2382 358.597 56.1155 358.197 56.1155 357.76C56.1155 357.173 56.2648 356.72 56.5635 356.4C56.8622 356.069 57.3528 355.835 58.0355 355.696C58.7182 355.547 59.6675 355.472 60.8835 355.472H61.2355V354.944C61.2355 354.304 61.1022 353.835 60.8355 353.536C60.5795 353.237 60.1582 353.088 59.5715 353.088C58.8462 353.088 58.1102 353.285 57.3635 353.68C57.0755 353.861 56.8728 353.952 56.7555 353.952C56.6275 353.952 56.5208 353.904 56.4355 353.808C56.3502 353.712 56.3075 353.589 56.3075 353.44C56.3075 353.291 56.3502 353.163 56.4355 353.056C56.5315 352.939 56.6808 352.821 56.8835 352.704C57.2568 352.491 57.6782 352.325 58.1475 352.208C58.6275 352.08 59.1022 352.016 59.5715 352.016ZM59.0435 359.088C59.6835 359.088 60.2062 358.875 60.6115 358.448C61.0275 358.011 61.2355 357.451 61.2355 356.768V356.304H60.9475C60.0088 356.304 59.2942 356.347 58.8035 356.432C58.3128 356.507 57.9608 356.64 57.7475 356.832C57.5448 357.013 57.4435 357.285 57.4435 357.648C57.4435 358.064 57.5928 358.411 57.8915 358.688C58.2008 358.955 58.5848 359.088 59.0435 359.088ZM72.8529 352.048C73.3009 352.016 73.5249 352.197 73.5249 352.592C73.5249 352.763 73.4769 352.901 73.3809 353.008C73.2849 353.104 73.1195 353.163 72.8849 353.184L72.4049 353.232C71.6902 353.296 71.1569 353.552 70.8049 354C70.4635 354.437 70.2929 354.955 70.2929 355.552V359.44C70.2929 359.653 70.2342 359.813 70.1169 359.92C69.9995 360.027 69.8449 360.08 69.6529 360.08C69.4609 360.08 69.3009 360.027 69.1729 359.92C69.0555 359.803 68.9969 359.643 68.9969 359.44V352.688C68.9969 352.485 69.0609 352.331 69.1889 352.224C69.3169 352.107 69.4715 352.048 69.6529 352.048C69.8235 352.048 69.9675 352.107 70.0849 352.224C70.2022 352.331 70.2609 352.48 70.2609 352.672V353.568C70.4849 353.099 70.7995 352.741 71.2049 352.496C71.6209 352.251 72.0955 352.107 72.6289 352.064L72.8529 352.048ZM77.759 352.016C79.711 352.016 80.687 353.04 80.687 355.088V359.44C80.687 359.632 80.6283 359.787 80.511 359.904C80.4043 360.021 80.255 360.08 80.063 360.08C79.871 360.08 79.7163 360.021 79.599 359.904C79.4817 359.787 79.423 359.632 79.423 359.44V358.672C79.2203 359.131 78.911 359.488 78.495 359.744C78.079 359.989 77.599 360.112 77.055 360.112C76.5537 360.112 76.0897 360.011 75.663 359.808C75.247 359.605 74.9163 359.323 74.671 358.96C74.4257 358.597 74.303 358.197 74.303 357.76C74.303 357.173 74.4523 356.72 74.751 356.4C75.0497 356.069 75.5403 355.835 76.223 355.696C76.9057 355.547 77.855 355.472 79.071 355.472H79.423V354.944C79.423 354.304 79.2897 353.835 79.023 353.536C78.767 353.237 78.3457 353.088 77.759 353.088C77.0337 353.088 76.2977 353.285 75.551 353.68C75.263 353.861 75.0603 353.952 74.943 353.952C74.815 353.952 74.7083 353.904 74.623 353.808C74.5377 353.712 74.495 353.589 74.495 353.44C74.495 353.291 74.5377 353.163 74.623 353.056C74.719 352.939 74.8683 352.821 75.071 352.704C75.4443 352.491 75.8657 352.325 76.335 352.208C76.815 352.08 77.2897 352.016 77.759 352.016ZM77.231 359.088C77.871 359.088 78.3937 358.875 78.799 358.448C79.215 358.011 79.423 357.451 79.423 356.768V356.304H79.135C78.1963 356.304 77.4817 356.347 76.991 356.432C76.5003 356.507 76.1483 356.64 75.935 356.832C75.7323 357.013 75.631 357.285 75.631 357.648C75.631 358.064 75.7803 358.411 76.079 358.688C76.3883 358.955 76.7723 359.088 77.231 359.088ZM78.047 351.168C77.9617 351.232 77.8763 351.264 77.791 351.264C77.6843 351.264 77.5937 351.232 77.519 351.168C77.4443 351.093 77.407 351.008 77.407 350.912C77.407 350.827 77.439 350.747 77.503 350.672L79.359 348.24C79.551 347.995 79.7697 347.872 80.015 347.872C80.1857 347.872 80.3297 347.931 80.447 348.048C80.5643 348.155 80.623 348.293 80.623 348.464C80.623 348.688 80.5163 348.891 80.303 349.072L78.047 351.168ZM86.9794 352.016C87.662 352.016 88.2647 352.187 88.7874 352.528C89.31 352.869 89.7154 353.349 90.0034 353.968C90.2914 354.576 90.4354 355.285 90.4354 356.096C90.4354 356.907 90.2914 357.616 90.0034 358.224C89.7154 358.821 89.31 359.285 88.7874 359.616C88.2754 359.947 87.6727 360.112 86.9794 360.112C86.3714 360.112 85.838 359.979 85.3794 359.712C84.9314 359.445 84.59 359.067 84.3554 358.576V362.336C84.3554 362.528 84.2967 362.677 84.1794 362.784C84.0727 362.901 83.918 362.96 83.7154 362.96C83.5127 362.96 83.3527 362.901 83.2354 362.784C83.118 362.667 83.0594 362.517 83.0594 362.336V352.688C83.0594 352.496 83.118 352.341 83.2354 352.224C83.3527 352.107 83.5127 352.048 83.7154 352.048C83.918 352.048 84.0727 352.107 84.1794 352.224C84.2967 352.341 84.3554 352.496 84.3554 352.688V353.552C84.59 353.061 84.9314 352.683 85.3794 352.416C85.838 352.149 86.3714 352.016 86.9794 352.016ZM86.7234 359.04C87.4807 359.04 88.0674 358.784 88.4834 358.272C88.8994 357.76 89.1074 357.035 89.1074 356.096C89.1074 355.157 88.8994 354.427 88.4834 353.904C88.0674 353.371 87.4807 353.104 86.7234 353.104C85.966 353.104 85.3794 353.36 84.9634 353.872C84.558 354.384 84.3554 355.115 84.3554 356.064C84.3554 357.013 84.558 357.749 84.9634 358.272C85.3794 358.784 85.966 359.04 86.7234 359.04ZM93.0279 360.08C92.8359 360.08 92.6759 360.027 92.5479 359.92C92.4305 359.803 92.3719 359.643 92.3719 359.44V352.688C92.3719 352.485 92.4305 352.331 92.5479 352.224C92.6759 352.107 92.8359 352.048 93.0279 352.048C93.2199 352.048 93.3745 352.107 93.4919 352.224C93.6092 352.331 93.6679 352.485 93.6679 352.688V359.44C93.6679 359.653 93.6092 359.813 93.4919 359.92C93.3745 360.027 93.2199 360.08 93.0279 360.08ZM93.0279 350.368C92.7719 350.368 92.5639 350.293 92.4039 350.144C92.2439 349.995 92.1639 349.797 92.1639 349.552C92.1639 349.317 92.2439 349.125 92.4039 348.976C92.5639 348.827 92.7719 348.752 93.0279 348.752C93.2839 348.752 93.4919 348.827 93.6519 348.976C93.8119 349.125 93.8919 349.317 93.8919 349.552C93.8919 349.797 93.8119 349.995 93.6519 350.144C93.4919 350.293 93.2839 350.368 93.0279 350.368ZM102.347 348.64C102.549 348.64 102.709 348.699 102.827 348.816C102.944 348.933 103.003 349.083 103.003 349.264V359.44C103.003 359.632 102.944 359.787 102.827 359.904C102.709 360.021 102.549 360.08 102.347 360.08C102.144 360.08 101.984 360.021 101.867 359.904C101.76 359.787 101.707 359.632 101.707 359.44V358.576C101.472 359.067 101.125 359.445 100.667 359.712C100.219 359.979 99.6906 360.112 99.0826 360.112C98.4 360.112 97.7973 359.941 97.2746 359.6C96.752 359.259 96.3466 358.784 96.0586 358.176C95.7706 357.557 95.6266 356.843 95.6266 356.032C95.6266 355.232 95.7706 354.528 96.0586 353.92C96.3466 353.312 96.752 352.843 97.2746 352.512C97.7973 352.181 98.4 352.016 99.0826 352.016C99.6906 352.016 100.219 352.149 100.667 352.416C101.125 352.683 101.472 353.061 101.707 353.552V349.264C101.707 349.072 101.76 348.923 101.867 348.816C101.984 348.699 102.144 348.64 102.347 348.64ZM99.3386 359.04C100.096 359.04 100.677 358.784 101.083 358.272C101.499 357.749 101.707 357.013 101.707 356.064C101.707 355.115 101.499 354.384 101.083 353.872C100.677 353.36 100.096 353.104 99.3386 353.104C98.5813 353.104 97.9893 353.36 97.5626 353.872C97.1466 354.384 96.9386 355.104 96.9386 356.032C96.9386 356.981 97.1466 357.723 97.5626 358.256C97.9893 358.779 98.5813 359.04 99.3386 359.04ZM108.587 352.016C110.539 352.016 111.515 353.04 111.515 355.088V359.44C111.515 359.632 111.456 359.787 111.339 359.904C111.232 360.021 111.083 360.08 110.891 360.08C110.699 360.08 110.544 360.021 110.427 359.904C110.31 359.787 110.251 359.632 110.251 359.44V358.672C110.048 359.131 109.739 359.488 109.323 359.744C108.907 359.989 108.427 360.112 107.883 360.112C107.382 360.112 106.918 360.011 106.491 359.808C106.075 359.605 105.744 359.323 105.499 358.96C105.254 358.597 105.131 358.197 105.131 357.76C105.131 357.173 105.28 356.72 105.579 356.4C105.878 356.069 106.368 355.835 107.051 355.696C107.734 355.547 108.683 355.472 109.899 355.472H110.251V354.944C110.251 354.304 110.118 353.835 109.851 353.536C109.595 353.237 109.174 353.088 108.587 353.088C107.862 353.088 107.126 353.285 106.379 353.68C106.091 353.861 105.888 353.952 105.771 353.952C105.643 353.952 105.536 353.904 105.451 353.808C105.366 353.712 105.323 353.589 105.323 353.44C105.323 353.291 105.366 353.163 105.451 353.056C105.547 352.939 105.696 352.821 105.899 352.704C106.272 352.491 106.694 352.325 107.163 352.208C107.643 352.08 108.118 352.016 108.587 352.016ZM108.059 359.088C108.699 359.088 109.222 358.875 109.627 358.448C110.043 358.011 110.251 357.451 110.251 356.768V356.304H109.963C109.024 356.304 108.31 356.347 107.819 356.432C107.328 356.507 106.976 356.64 106.763 356.832C106.56 357.013 106.459 357.285 106.459 357.648C106.459 358.064 106.608 358.411 106.907 358.688C107.216 358.955 107.6 359.088 108.059 359.088ZM124.045 358.192C124.162 358.192 124.263 358.24 124.349 358.336C124.434 358.432 124.477 358.555 124.477 358.704C124.477 358.971 124.29 359.216 123.917 359.44C123.533 359.664 123.127 359.835 122.701 359.952C122.274 360.059 121.858 360.112 121.453 360.112C120.247 360.112 119.293 359.755 118.589 359.04C117.895 358.325 117.549 357.339 117.549 356.08C117.549 355.28 117.703 354.576 118.013 353.968C118.322 353.349 118.754 352.869 119.309 352.528C119.874 352.187 120.514 352.016 121.229 352.016C122.242 352.016 123.047 352.347 123.645 353.008C124.242 353.669 124.541 354.565 124.541 355.696C124.541 355.909 124.498 356.064 124.413 356.16C124.327 356.256 124.189 356.304 123.997 356.304H118.845C118.941 358.139 119.81 359.056 121.453 359.056C121.869 359.056 122.226 359.003 122.525 358.896C122.823 358.779 123.143 358.624 123.485 358.432C123.762 358.272 123.949 358.192 124.045 358.192ZM121.245 353.024C120.562 353.024 120.013 353.237 119.597 353.664C119.191 354.091 118.951 354.693 118.877 355.472H123.405C123.383 354.683 123.186 354.08 122.813 353.664C122.439 353.237 121.917 353.024 121.245 353.024ZM133.199 360.112C132.708 360.112 132.239 360.053 131.791 359.936C131.354 359.819 130.964 359.653 130.623 359.44C130.431 359.312 130.292 359.195 130.207 359.088C130.132 358.971 130.095 358.832 130.095 358.672C130.095 358.533 130.132 358.421 130.207 358.336C130.292 358.24 130.399 358.192 130.527 358.192C130.655 358.192 130.842 358.272 131.087 358.432C131.407 358.624 131.722 358.779 132.031 358.896C132.351 359.003 132.746 359.056 133.215 359.056C133.791 359.056 134.239 358.955 134.559 358.752C134.879 358.549 135.039 358.256 135.039 357.872C135.039 357.637 134.98 357.451 134.863 357.312C134.746 357.163 134.543 357.035 134.255 356.928C133.967 356.811 133.546 356.693 132.991 356.576C132.052 356.373 131.38 356.101 130.975 355.76C130.57 355.419 130.367 354.955 130.367 354.368C130.367 353.909 130.495 353.504 130.751 353.152C131.007 352.8 131.359 352.523 131.807 352.32C132.266 352.117 132.783 352.016 133.359 352.016C133.775 352.016 134.175 352.075 134.559 352.192C134.954 352.299 135.3 352.453 135.599 352.656C135.962 352.912 136.143 353.179 136.143 353.456C136.143 353.595 136.1 353.712 136.015 353.808C135.93 353.904 135.828 353.952 135.711 353.952C135.583 353.952 135.391 353.861 135.135 353.68C134.836 353.488 134.554 353.339 134.287 353.232C134.02 353.125 133.69 353.072 133.295 353.072C132.794 353.072 132.388 353.184 132.079 353.408C131.78 353.632 131.631 353.931 131.631 354.304C131.631 354.539 131.684 354.731 131.791 354.88C131.908 355.019 132.095 355.147 132.351 355.264C132.618 355.371 132.996 355.477 133.487 355.584C134.212 355.744 134.772 355.92 135.167 356.112C135.572 356.304 135.86 356.539 136.031 356.816C136.202 357.093 136.287 357.445 136.287 357.872C136.287 358.544 136.004 359.088 135.439 359.504C134.874 359.909 134.127 360.112 133.199 360.112ZM144.295 358.192C144.412 358.192 144.513 358.24 144.599 358.336C144.684 358.432 144.727 358.555 144.727 358.704C144.727 358.971 144.54 359.216 144.167 359.44C143.783 359.664 143.377 359.835 142.951 359.952C142.524 360.059 142.108 360.112 141.703 360.112C140.497 360.112 139.543 359.755 138.839 359.04C138.145 358.325 137.799 357.339 137.799 356.08C137.799 355.28 137.953 354.576 138.263 353.968C138.572 353.349 139.004 352.869 139.559 352.528C140.124 352.187 140.764 352.016 141.479 352.016C142.492 352.016 143.297 352.347 143.895 353.008C144.492 353.669 144.791 354.565 144.791 355.696C144.791 355.909 144.748 356.064 144.663 356.16C144.577 356.256 144.439 356.304 144.247 356.304H139.095C139.191 358.139 140.06 359.056 141.703 359.056C142.119 359.056 142.476 359.003 142.775 358.896C143.073 358.779 143.393 358.624 143.735 358.432C144.012 358.272 144.199 358.192 144.295 358.192ZM141.495 353.024C140.812 353.024 140.263 353.237 139.847 353.664C139.441 354.091 139.201 354.693 139.127 355.472H143.655C143.633 354.683 143.436 354.08 143.063 353.664C142.689 353.237 142.167 353.024 141.495 353.024ZM153.02 352.048C153.223 352.048 153.383 352.107 153.5 352.224C153.617 352.341 153.676 352.496 153.676 352.688V359.472C153.676 360.635 153.377 361.509 152.78 362.096C152.183 362.693 151.297 362.992 150.124 362.992C148.983 362.992 148.033 362.768 147.276 362.32C146.892 362.107 146.7 361.861 146.7 361.584C146.7 361.435 146.737 361.312 146.812 361.216C146.897 361.12 147.004 361.072 147.132 361.072C147.239 361.072 147.431 361.147 147.708 361.296C148.081 361.488 148.449 361.643 148.812 361.76C149.175 361.877 149.607 361.936 150.108 361.936C150.865 361.936 151.436 361.733 151.82 361.328C152.204 360.933 152.396 360.352 152.396 359.584V358.208C152.172 358.709 151.825 359.093 151.356 359.36C150.897 359.627 150.353 359.76 149.724 359.76C149.041 359.76 148.433 359.6 147.9 359.28C147.377 358.96 146.967 358.507 146.668 357.92C146.38 357.333 146.236 356.656 146.236 355.888C146.236 355.12 146.38 354.443 146.668 353.856C146.967 353.269 147.377 352.816 147.9 352.496C148.433 352.176 149.041 352.016 149.724 352.016C150.343 352.016 150.881 352.149 151.34 352.416C151.799 352.683 152.145 353.061 152.38 353.552V352.688C152.38 352.496 152.433 352.341 152.54 352.224C152.657 352.107 152.817 352.048 153.02 352.048ZM149.98 358.688C150.727 358.688 151.313 358.443 151.74 357.952C152.167 357.451 152.38 356.763 152.38 355.888C152.38 355.024 152.167 354.347 151.74 353.856C151.324 353.355 150.737 353.104 149.98 353.104C149.223 353.104 148.625 353.355 148.188 353.856C147.761 354.347 147.548 355.024 147.548 355.888C147.548 356.763 147.761 357.451 148.188 357.952C148.625 358.443 149.223 358.688 149.98 358.688ZM161.995 352.048C162.198 352.048 162.352 352.107 162.459 352.224C162.576 352.341 162.635 352.496 162.635 352.688V359.456C162.635 359.637 162.576 359.787 162.459 359.904C162.352 360.021 162.198 360.08 161.995 360.08C161.803 360.08 161.648 360.027 161.531 359.92C161.424 359.803 161.371 359.653 161.371 359.472V358.672C161.126 359.141 160.779 359.499 160.331 359.744C159.894 359.989 159.398 360.112 158.843 360.112C157.915 360.112 157.216 359.856 156.747 359.344C156.278 358.821 156.043 358.053 156.043 357.04V352.688C156.043 352.496 156.102 352.341 156.219 352.224C156.336 352.107 156.496 352.048 156.699 352.048C156.902 352.048 157.056 352.107 157.163 352.224C157.28 352.341 157.339 352.496 157.339 352.688V357.008C157.339 357.701 157.478 358.213 157.755 358.544C158.032 358.864 158.47 359.024 159.067 359.024C159.75 359.024 160.299 358.805 160.715 358.368C161.131 357.92 161.339 357.333 161.339 356.608V352.688C161.339 352.496 161.398 352.341 161.515 352.224C161.632 352.107 161.792 352.048 161.995 352.048ZM168.9 352.048C169.348 352.016 169.572 352.197 169.572 352.592C169.572 352.763 169.524 352.901 169.428 353.008C169.332 353.104 169.166 353.163 168.932 353.184L168.452 353.232C167.737 353.296 167.204 353.552 166.852 354C166.51 354.437 166.34 354.955 166.34 355.552V359.44C166.34 359.653 166.281 359.813 166.164 359.92C166.046 360.027 165.892 360.08 165.7 360.08C165.508 360.08 165.348 360.027 165.22 359.92C165.102 359.803 165.044 359.643 165.044 359.44V352.688C165.044 352.485 165.108 352.331 165.236 352.224C165.364 352.107 165.518 352.048 165.7 352.048C165.87 352.048 166.014 352.107 166.132 352.224C166.249 352.331 166.308 352.48 166.308 352.672V353.568C166.532 353.099 166.846 352.741 167.252 352.496C167.668 352.251 168.142 352.107 168.676 352.064L168.9 352.048ZM173.806 352.016C175.758 352.016 176.734 353.04 176.734 355.088V359.44C176.734 359.632 176.675 359.787 176.558 359.904C176.451 360.021 176.302 360.08 176.11 360.08C175.918 360.08 175.763 360.021 175.646 359.904C175.529 359.787 175.47 359.632 175.47 359.44V358.672C175.267 359.131 174.958 359.488 174.542 359.744C174.126 359.989 173.646 360.112 173.102 360.112C172.601 360.112 172.137 360.011 171.71 359.808C171.294 359.605 170.963 359.323 170.718 358.96C170.473 358.597 170.35 358.197 170.35 357.76C170.35 357.173 170.499 356.72 170.798 356.4C171.097 356.069 171.587 355.835 172.27 355.696C172.953 355.547 173.902 355.472 175.118 355.472H175.47V354.944C175.47 354.304 175.337 353.835 175.07 353.536C174.814 353.237 174.393 353.088 173.806 353.088C173.081 353.088 172.345 353.285 171.598 353.68C171.31 353.861 171.107 353.952 170.99 353.952C170.862 353.952 170.755 353.904 170.67 353.808C170.585 353.712 170.542 353.589 170.542 353.44C170.542 353.291 170.585 353.163 170.67 353.056C170.766 352.939 170.915 352.821 171.118 352.704C171.491 352.491 171.913 352.325 172.382 352.208C172.862 352.08 173.337 352.016 173.806 352.016ZM173.278 359.088C173.918 359.088 174.441 358.875 174.846 358.448C175.262 358.011 175.47 357.451 175.47 356.768V356.304H175.182C174.243 356.304 173.529 356.347 173.038 356.432C172.547 356.507 172.195 356.64 171.982 356.832C171.779 357.013 171.678 357.285 171.678 357.648C171.678 358.064 171.827 358.411 172.126 358.688C172.435 358.955 172.819 359.088 173.278 359.088Z" fill="white"/>
<rect x="1" y="397" width="239" height="46" rx="7" fill="#FD377E"/>
<path d="M100.034 413.864V425.5H98.2784V413.864H100.034ZM104.153 420.318V425.5H102.455V416.773H104.085V418.193H104.193C104.394 417.731 104.708 417.36 105.136 417.08C105.568 416.799 106.112 416.659 106.767 416.659C107.362 416.659 107.883 416.784 108.33 417.034C108.777 417.28 109.123 417.648 109.369 418.136C109.616 418.625 109.739 419.229 109.739 419.949V425.5H108.04V420.153C108.04 419.521 107.875 419.027 107.545 418.67C107.216 418.311 106.763 418.131 106.188 418.131C105.794 418.131 105.443 418.216 105.136 418.386C104.833 418.557 104.593 418.807 104.415 419.136C104.241 419.462 104.153 419.856 104.153 420.318ZM112.017 425.5V416.773H113.716V425.5H112.017ZM112.875 415.426C112.58 415.426 112.326 415.328 112.114 415.131C111.905 414.93 111.801 414.691 111.801 414.415C111.801 414.134 111.905 413.896 112.114 413.699C112.326 413.498 112.58 413.398 112.875 413.398C113.17 413.398 113.422 413.498 113.631 413.699C113.843 413.896 113.949 414.134 113.949 414.415C113.949 414.691 113.843 414.93 113.631 415.131C113.422 415.328 113.17 415.426 112.875 415.426ZM119.678 425.676C118.833 425.676 118.106 425.485 117.496 425.102C116.89 424.716 116.424 424.184 116.098 423.506C115.772 422.828 115.609 422.051 115.609 421.176C115.609 420.29 115.776 419.508 116.109 418.83C116.443 418.148 116.912 417.616 117.518 417.233C118.125 416.85 118.839 416.659 119.661 416.659C120.323 416.659 120.914 416.782 121.433 417.028C121.952 417.271 122.371 417.612 122.689 418.051C123.011 418.491 123.202 419.004 123.263 419.591H121.609C121.518 419.182 121.31 418.83 120.984 418.534C120.662 418.239 120.231 418.091 119.689 418.091C119.215 418.091 118.801 418.216 118.445 418.466C118.092 418.712 117.818 419.064 117.621 419.523C117.424 419.977 117.325 420.515 117.325 421.136C117.325 421.773 117.422 422.322 117.615 422.784C117.808 423.246 118.081 423.604 118.433 423.858C118.789 424.112 119.208 424.239 119.689 424.239C120.011 424.239 120.303 424.18 120.564 424.062C120.829 423.941 121.051 423.769 121.229 423.545C121.411 423.322 121.537 423.053 121.609 422.739H123.263C123.202 423.303 123.018 423.807 122.712 424.25C122.405 424.693 121.994 425.042 121.479 425.295C120.967 425.549 120.367 425.676 119.678 425.676ZM125.08 425.5V416.773H126.778V425.5H125.08ZM125.938 415.426C125.642 415.426 125.388 415.328 125.176 415.131C124.968 414.93 124.864 414.691 124.864 414.415C124.864 414.134 124.968 413.896 125.176 413.699C125.388 413.498 125.642 413.398 125.938 413.398C126.233 413.398 126.485 413.498 126.693 413.699C126.905 413.896 127.011 414.134 127.011 414.415C127.011 414.691 126.905 414.93 126.693 415.131C126.485 415.328 126.233 415.426 125.938 415.426ZM131.604 425.693C131.051 425.693 130.551 425.591 130.104 425.386C129.657 425.178 129.303 424.877 129.041 424.483C128.784 424.089 128.655 423.606 128.655 423.034C128.655 422.542 128.75 422.136 128.939 421.818C129.128 421.5 129.384 421.248 129.706 421.062C130.028 420.877 130.388 420.737 130.786 420.642C131.183 420.547 131.589 420.475 132.001 420.426C132.524 420.366 132.948 420.316 133.274 420.278C133.6 420.237 133.837 420.17 133.984 420.08C134.132 419.989 134.206 419.841 134.206 419.636V419.597C134.206 419.1 134.066 418.716 133.786 418.443C133.509 418.17 133.096 418.034 132.547 418.034C131.975 418.034 131.524 418.161 131.195 418.415C130.869 418.665 130.643 418.943 130.518 419.25L128.922 418.886C129.111 418.356 129.388 417.928 129.751 417.602C130.119 417.273 130.541 417.034 131.018 416.886C131.496 416.735 131.998 416.659 132.524 416.659C132.873 416.659 133.242 416.701 133.632 416.784C134.026 416.864 134.393 417.011 134.734 417.227C135.079 417.443 135.361 417.752 135.581 418.153C135.801 418.551 135.911 419.068 135.911 419.705V425.5H134.251V424.307H134.183C134.073 424.527 133.909 424.742 133.689 424.955C133.469 425.167 133.187 425.343 132.842 425.483C132.498 425.623 132.085 425.693 131.604 425.693ZM131.973 424.33C132.443 424.33 132.844 424.237 133.178 424.051C133.515 423.866 133.77 423.623 133.945 423.324C134.123 423.021 134.212 422.697 134.212 422.352V421.227C134.151 421.288 134.034 421.345 133.859 421.398C133.689 421.447 133.494 421.491 133.274 421.528C133.054 421.562 132.84 421.595 132.632 421.625C132.424 421.652 132.25 421.674 132.109 421.693C131.78 421.735 131.479 421.805 131.206 421.903C130.937 422.002 130.721 422.144 130.558 422.33C130.399 422.511 130.32 422.754 130.32 423.057C130.32 423.477 130.475 423.795 130.786 424.011C131.096 424.223 131.492 424.33 131.973 424.33ZM138.173 425.5V416.773H139.815V418.159H139.906C140.065 417.689 140.346 417.32 140.747 417.051C141.152 416.778 141.611 416.642 142.122 416.642C142.228 416.642 142.353 416.646 142.497 416.653C142.645 416.661 142.76 416.67 142.844 416.682V418.307C142.776 418.288 142.654 418.267 142.48 418.244C142.306 418.218 142.132 418.205 141.957 418.205C141.556 418.205 141.198 418.29 140.884 418.46C140.573 418.627 140.327 418.86 140.145 419.159C139.963 419.455 139.872 419.792 139.872 420.17V425.5H138.173Z" fill="white"/>
<rect x="1" y="397" width="239" height="46" rx="7" stroke="#FD377E" stroke-width="2"/>
<path d="M14.092 120.858C14.7507 120.858 15.288 121.075 15.704 121.508C16.1373 121.941 16.354 122.505 16.354 123.198V137.108C16.354 137.819 16.146 138.391 15.73 138.824C15.314 139.257 14.7767 139.474 14.118 139.474C13.338 139.474 12.7487 139.214 12.35 138.694L4.446 128.84V137.108C4.446 137.819 4.24667 138.391 3.848 138.824C3.44933 139.257 2.912 139.474 2.236 139.474C1.57733 139.474 1.04 139.257 0.624 138.824C0.208 138.391 0 137.819 0 137.108V123.198C0 122.505 0.208 121.941 0.624 121.508C1.04 121.075 1.57733 120.858 2.236 120.858C2.98133 120.858 3.562 121.118 3.978 121.638L11.882 131.466V123.198C11.882 122.487 12.0813 121.924 12.48 121.508C12.896 121.075 13.4333 120.858 14.092 120.858Z" fill="url(#paint0_linear_123_980)"/>
<path d="M29.9477 126.266C30.6584 126.266 31.2217 126.457 31.6377 126.838C32.0537 127.219 32.2617 127.739 32.2617 128.398V137.394C32.2617 138.001 32.0451 138.503 31.6117 138.902C31.1784 139.283 30.6151 139.474 29.9217 139.474C29.2977 139.474 28.7864 139.309 28.3877 138.98C27.9891 138.633 27.7811 138.174 27.7637 137.602C27.3651 138.226 26.8537 138.703 26.2297 139.032C25.6231 139.361 24.9211 139.526 24.1237 139.526C22.4771 139.526 21.2551 139.075 20.4577 138.174C19.6604 137.255 19.2617 135.869 19.2617 134.014V128.398C19.2617 127.739 19.4697 127.219 19.8857 126.838C20.3017 126.457 20.8651 126.266 21.5757 126.266C22.2864 126.266 22.8497 126.457 23.2657 126.838C23.6817 127.219 23.8897 127.739 23.8897 128.398V134.118C23.8897 135.366 24.4271 135.99 25.5017 135.99C26.1257 135.99 26.6371 135.765 27.0357 135.314C27.4344 134.863 27.6337 134.274 27.6337 133.546V128.398C27.6337 127.739 27.8417 127.219 28.2577 126.838C28.6737 126.457 29.2371 126.266 29.9477 126.266Z" fill="url(#paint1_linear_123_980)"/>
<path d="M58.177 135.73C58.6277 136.163 58.853 136.666 58.853 137.238C58.853 137.81 58.6364 138.313 58.203 138.746C57.7697 139.179 57.2584 139.396 56.669 139.396C56.0277 139.396 55.4384 139.119 54.901 138.564L47.491 130.972V137.108C47.491 137.836 47.2744 138.417 46.841 138.85C46.4077 139.266 45.8184 139.474 45.073 139.474C44.345 139.474 43.7644 139.266 43.331 138.85C42.915 138.417 42.707 137.836 42.707 137.108V123.198C42.707 122.487 42.915 121.924 43.331 121.508C43.7644 121.075 44.345 120.858 45.073 120.858C45.8184 120.858 46.4077 121.075 46.841 121.508C47.2744 121.924 47.491 122.487 47.491 123.198V128.918L54.797 121.56C55.2477 121.092 55.759 120.858 56.331 120.858C56.903 120.858 57.4057 121.075 57.839 121.508C58.2724 121.924 58.489 122.418 58.489 122.99C58.489 123.562 58.2377 124.091 57.735 124.576L52.405 129.802L58.177 135.73Z" fill="url(#paint2_linear_123_980)"/>
<path d="M70.8224 135.21C71.221 135.21 71.5417 135.366 71.7844 135.678C72.0444 135.99 72.1744 136.397 72.1744 136.9C72.1744 137.593 71.8364 138.122 71.1604 138.486C70.571 138.781 69.869 139.032 69.0544 139.24C68.257 139.431 67.5204 139.526 66.8444 139.526C65.423 139.526 64.1837 139.257 63.1264 138.72C62.069 138.183 61.2544 137.411 60.6824 136.406C60.1104 135.401 59.8244 134.222 59.8244 132.87C59.8244 131.587 60.093 130.443 60.6304 129.438C61.185 128.415 61.9477 127.627 62.9184 127.072C63.9064 126.5 65.0157 126.214 66.2464 126.214C67.4424 126.214 68.491 126.474 69.3924 126.994C70.2937 127.514 70.987 128.251 71.4724 129.204C71.975 130.157 72.2264 131.275 72.2264 132.558C72.2264 132.957 72.131 133.269 71.9404 133.494C71.767 133.702 71.507 133.806 71.1604 133.806H64.2964C64.4177 134.638 64.6864 135.236 65.1024 135.6C65.5184 135.964 66.1337 136.146 66.9484 136.146C67.3817 136.146 67.7804 136.103 68.1444 136.016C68.5084 135.912 68.9157 135.773 69.3664 135.6C69.6264 135.496 69.8777 135.409 70.1204 135.34C70.3804 135.253 70.6144 135.21 70.8224 135.21ZM66.3764 129.334C65.7697 129.334 65.2844 129.533 64.9204 129.932C64.5564 130.313 64.3397 130.877 64.2704 131.622H68.3524C68.2484 130.097 67.5897 129.334 66.3764 129.334Z" fill="url(#paint3_linear_123_980)"/>
<path d="M82.9424 126.214C84.4678 126.214 85.6031 126.673 86.3484 127.592C87.0938 128.493 87.4664 129.871 87.4664 131.726V137.342C87.4664 138.001 87.2584 138.521 86.8424 138.902C86.4264 139.283 85.8631 139.474 85.1524 139.474C84.4418 139.474 83.8784 139.283 83.4624 138.902C83.0464 138.521 82.8384 138.001 82.8384 137.342V131.934C82.8384 131.171 82.6998 130.617 82.4224 130.27C82.1624 129.923 81.7638 129.75 81.2264 129.75C80.5331 129.75 79.9784 129.975 79.5624 130.426C79.1638 130.859 78.9644 131.449 78.9644 132.194V137.342C78.9644 138.001 78.7564 138.521 78.3404 138.902C77.9244 139.283 77.3611 139.474 76.6504 139.474C75.9398 139.474 75.3764 139.283 74.9604 138.902C74.5444 138.521 74.3364 138.001 74.3364 137.342V128.346C74.3364 127.739 74.5531 127.245 74.9864 126.864C75.4198 126.465 75.9831 126.266 76.6764 126.266C77.3351 126.266 77.8551 126.448 78.2364 126.812C78.6351 127.176 78.8344 127.653 78.8344 128.242C79.2851 127.583 79.8658 127.081 80.5764 126.734C81.2871 126.387 82.0758 126.214 82.9424 126.214Z" fill="url(#paint4_linear_123_980)"/>
<path d="M99.7766 135.912C101.163 135.912 101.857 136.475 101.857 137.602C101.857 138.746 101.163 139.318 99.7766 139.318H91.5866C90.98 139.318 90.486 139.127 90.1046 138.746C89.7233 138.365 89.5326 137.905 89.5326 137.368C89.5326 136.796 89.7493 136.267 90.1826 135.782L95.6426 129.932H91.4566C90.07 129.932 89.3766 129.36 89.3766 128.216C89.3766 127.089 90.07 126.526 91.4566 126.526H99.3346C99.9413 126.526 100.435 126.717 100.817 127.098C101.198 127.479 101.389 127.939 101.389 128.476C101.389 129.031 101.172 129.551 100.739 130.036L95.2526 135.912H99.7766Z" fill="url(#paint5_linear_123_980)"/>
<path d="M105.875 139.474C105.216 139.474 104.662 139.301 104.211 138.954C103.778 138.59 103.561 138.053 103.561 137.342V128.398C103.561 127.687 103.778 127.159 104.211 126.812C104.662 126.448 105.216 126.266 105.875 126.266C106.534 126.266 107.08 126.448 107.513 126.812C107.964 127.159 108.189 127.687 108.189 128.398V137.342C108.189 138.053 107.964 138.59 107.513 138.954C107.08 139.301 106.534 139.474 105.875 139.474ZM105.875 124.446C105.095 124.446 104.471 124.247 104.003 123.848C103.552 123.432 103.327 122.886 103.327 122.21C103.327 121.534 103.552 120.997 104.003 120.598C104.471 120.199 105.095 120 105.875 120C106.638 120 107.253 120.199 107.721 120.598C108.189 120.997 108.423 121.534 108.423 122.21C108.423 122.886 108.189 123.432 107.721 123.848C107.27 124.247 106.655 124.446 105.875 124.446Z" fill="url(#paint6_linear_123_980)"/>
<path d="M121.274 135.21C121.672 135.21 121.993 135.366 122.236 135.678C122.496 135.99 122.626 136.397 122.626 136.9C122.626 137.593 122.288 138.122 121.612 138.486C121.022 138.781 120.32 139.032 119.506 139.24C118.708 139.431 117.972 139.526 117.296 139.526C115.874 139.526 114.635 139.257 113.578 138.72C112.52 138.183 111.706 137.411 111.134 136.406C110.562 135.401 110.276 134.222 110.276 132.87C110.276 131.587 110.544 130.443 111.082 129.438C111.636 128.415 112.399 127.627 113.37 127.072C114.358 126.5 115.467 126.214 116.698 126.214C117.894 126.214 118.942 126.474 119.844 126.994C120.745 127.514 121.438 128.251 121.924 129.204C122.426 130.157 122.678 131.275 122.678 132.558C122.678 132.957 122.582 133.269 122.392 133.494C122.218 133.702 121.958 133.806 121.612 133.806H114.748C114.869 134.638 115.138 135.236 115.554 135.6C115.97 135.964 116.585 136.146 117.4 136.146C117.833 136.146 118.232 136.103 118.596 136.016C118.96 135.912 119.367 135.773 119.818 135.6C120.078 135.496 120.329 135.409 120.572 135.34C120.832 135.253 121.066 135.21 121.274 135.21ZM116.828 129.334C116.221 129.334 115.736 129.533 115.372 129.932C115.008 130.313 114.791 130.877 114.722 131.622H118.804C118.7 130.097 118.041 129.334 116.828 129.334Z" fill="url(#paint7_linear_123_980)"/>
<defs>
<filter id="filter0_d_123_980" x="588.204" y="282.883" width="285.379" height="122.592" filterUnits="userSpaceOnUse" color-interpolation-filters="sRGB">
<feFlood flood-opacity="0" result="BackgroundImageFix"/>
<feColorMatrix in="SourceAlpha" type="matrix" values="0 0 0 0 0 0 0 0 0 0 0 0 0 0 0 0 0 0 127 0" result="hardAlpha"/>
<feOffset dy="2.67961"/>
<feGaussianBlur stdDeviation="13.3981"/>
<feComposite in2="hardAlpha" operator="out"/>
<feColorMatrix type="matrix" values="0 0 0 0 0 0 0 0 0 0 0 0 0 0 0 0 0 0 0.25 0"/>
<feBlend mode="normal" in2="BackgroundImageFix" result="effect1_dropShadow_123_980"/>
<feBlend mode="normal" in="SourceGraphic" in2="effect1_dropShadow_123_980" result="shape"/>
</filter>
<filter id="filter1_d_123_980" x="440.267" y="205.513" width="385.676" height="165.678" filterUnits="userSpaceOnUse" color-interpolation-filters="sRGB">
<feFlood flood-opacity="0" result="BackgroundImageFix"/>
<feColorMatrix in="SourceAlpha" type="matrix" values="0 0 0 0 0 0 0 0 0 0 0 0 0 0 0 0 0 0 127 0" result="hardAlpha"/>
<feOffset dy="3.62137"/>
<feGaussianBlur stdDeviation="18.1069"/>
<feComposite in2="hardAlpha" operator="out"/>
<feColorMatrix type="matrix" values="0 0 0 0 0 0 0 0 0 0 0 0 0 0 0 0 0 0 0.25 0"/>
<feBlend mode="normal" in2="BackgroundImageFix" result="effect1_dropShadow_123_980"/>
<feBlend mode="normal" in="SourceGraphic" in2="effect1_dropShadow_123_980" result="shape"/>
</filter>
<linearGradient id="paint0_linear_123_980" x1="35.3857" y1="139.318" x2="35.8857" y2="139.318" gradientUnits="userSpaceOnUse">
<stop stop-color="#FD377E"/>
<stop offset="1" stop-color="white"/>
</linearGradient>
<linearGradient id="paint1_linear_123_980" x1="35.3857" y1="139.318" x2="35.8857" y2="139.318" gradientUnits="userSpaceOnUse">
<stop stop-color="#FD377E"/>
<stop offset="1" stop-color="white"/>
</linearGradient>
<linearGradient id="paint2_linear_123_980" x1="35.3857" y1="139.318" x2="35.8857" y2="139.318" gradientUnits="userSpaceOnUse">
<stop stop-color="#FD377E"/>
<stop offset="1" stop-color="white"/>
</linearGradient>
<linearGradient id="paint3_linear_123_980" x1="35.3857" y1="139.318" x2="35.8857" y2="139.318" gradientUnits="userSpaceOnUse">
<stop stop-color="#FD377E"/>
<stop offset="1" stop-color="white"/>
</linearGradient>
<linearGradient id="paint4_linear_123_980" x1="35.3857" y1="139.318" x2="35.8857" y2="139.318" gradientUnits="userSpaceOnUse">
<stop stop-color="#FD377E"/>
<stop offset="1" stop-color="white"/>
</linearGradient>
<linearGradient id="paint5_linear_123_980" x1="35.3857" y1="139.318" x2="35.8857" y2="139.318" gradientUnits="userSpaceOnUse">
<stop stop-color="#FD377E"/>
<stop offset="1" stop-color="white"/>
</linearGradient>
<linearGradient id="paint6_linear_123_980" x1="35.3857" y1="139.318" x2="35.8857" y2="139.318" gradientUnits="userSpaceOnUse">
<stop stop-color="#FD377E"/>
<stop offset="1" stop-color="white"/>
</linearGradient>
<linearGradient id="paint7_linear_123_980" x1="35.3857" y1="139.318" x2="35.8857" y2="139.318" gradientUnits="userSpaceOnUse">
<stop stop-color="#FD377E"/>
<stop offset="1" stop-color="white"/>
</linearGradient>
<clipPath id="clip0_123_980">
<rect width="16.0777" height="16.0777" fill="white" transform="translate(639.117 333.796)"/>
</clipPath>
<clipPath id="clip1_123_980">
<rect width="21.7282" height="21.7282" fill="white" transform="translate(509.073 274.319)"/>
</clipPath>
</defs>
</svg>
